<?xml version="1.0" encoding="UTF-8"?>
<svg id="a341de80f770ae1976217a91f764a2eec78d3f94" xmlns="http://www.w3.org/2000/svg" viewBox="0 0 480 480">
  <g>
    <path d="M169.32,176.82c1.9,0,2.6-1.1,3.8-2.4,2,0,3-1.2,3-1.2,0,0,1.1,.9,2.1,.9,1.9,0,3.1-1.4,3.1-1.4,0,0,1.1,.7,1.9,.7,2.5,0,3.2-1.7,3.2-1.7,0,0,.5,.6,1.6,.6,2.8,0,4.7-4.1,4.7-4.1,0,0,.7,.8,1.9,.8,3.9,0,5.7-6.1,5.7-6.1,0,0,.6,.3,1.4,.3,3.1,0,6.4-7.5,8.8-13.1,2.5-5.6,5.4-11.4,5.4-13.5,0-3.5,1.7-8.76,0-8.76s-6.71,2.44-6.71,2.44h-3.39c-3,0-5.42,.15-6.12,2.25-2.8-1.5-3.26,2.47-3.26,2.47,0,0-.03,1.5-2.53,1.5-3.5,0-4.54,2.15-4.54,2.15,0,0-.76,3.65-2.86,3.65s-3.2,1.3-3.6,3.4c-.5,2-1.58,.63-1.58,.63,0,0,.28,3.07-1.52,3.07-2.9,0-4.82,1.32-5.22,2.92-.4,1.7-1.8,1.98-2.5,3.78-3.6,0-1.67,3.9-2.57,7.2s-4,8.1-4,9.7c0,2,1.6,3.8,3.8,3.8h0Z" fill="#eb473d" />
    <path d="M184.72,201.82c3.6,0,3.7-3.9,3.7-3.9,0,0,2.7-3.1,2.7-6.4s-2.9-4.8-4.3-4.8-2.3,.9-2.3,.9c0,0-.4-.4-1.3-.4-2.7,0-4.1,1.9-4.1,3.9s1.2,2.4,1.7,6.4c.3,2.6,1.4,4.3,3.9,4.3h0Z" fill="#eb473d" />
    <path d="M218.42,200.82c-1.9,0-3,1.5-3.5,2.4-1.3-.6-2.5,.2-2.5,.2,0,0-.6-.7-1.8-.7-2.9,0-3.6,2.1-3.9,3.9-2.3,.4-3.8,1.8-3.9,5.2s-.4,6.7-.4,7.2c0,6.8,3.9,6.9,3.9,6.9,0,4.2,2.3,4.7,4,4.8,1.4,2.5,4.5,1.6,4.5,1.6,0,0,.9,1.9,3.4,1.9,1.3,0,2.1-.4,3-1.5,4.4,.4,4.5-3.6,4.5-3.6,0,0,3.7,.3,4.1-3.5,.4-4.6,1.2-12.9,1.2-14.8,0-6.1-3.6-6.4-4.2-6.4s-1,.1-1.5,.4c-1.2-1.7-3-1.2-3-1.2,0,0-.8-2.8-3.9-2.8h0Z" fill="#eb473d" />
    <path d="M164.72,213.82c-3.1,0-1.9,4.2-1.5,5.8,.3,1.3,1,5.4,1.1,6.4,.4,4.1,4.9,3.8,4.9,3.8v2.9c0,4.5,4.7,3.8,4.7,3.8v2c0,2.8,2.7,3.9,2.7,3.9,0,0,6.26,6.28,9.06,6.28,1.5,0,.4-4.71,.4-7.81s-2.26-7.87-2.76-13.07c-.4-5.3-2.5-5.8-3.5-6-1.8-3.3-4.8-2.1-4.8-2.1,0,0-.7-4-3.6-4-1.2,0-1.6,.5-1.6,.5,0,0-.7-1.2-2.8-1.2h0l-2.3-1.2Z" fill="#eb473d" />
  </g>
</svg>