<svg xmlns="http://www.w3.org/2000/svg" viewBox="0 0 480 480">
  <g>
    <path d="M272.73,61.27c2.24,19.79-13.32,36.67-32.71,36.67-18.2,0-32.85-14.77-32.85-32.85,0-19.39,16.75-34.83,36.67-32.71,15.04,1.71,27.17,13.85,28.89,28.89Z" fill="#fff" />
    <g>
      <path d="M230.85,75.52c-2.02-.11-3.51-1.91-3.51-3.94v-11.91c0-3.08,1.49-4.89,3.51-5,2.13-.11,3.94,1.6,3.94,3.72v13.3c0,2.23-1.81,3.94-3.94,3.83Z" fill="#040200" />
      <path d="M248.3,75.42c-1.7-.32-2.98-1.91-2.98-3.72v-12.13c0-2.77,1.17-4.36,2.98-4.79,2.45-.53,4.47,1.38,4.47,3.62v13.3c.11,2.45-2.02,4.25-4.47,3.72Z" fill="#040200" />
    </g>
    <path d="M228.63,40.81c.21,1.93-1.61,4.51-2.04,5.8s-1.07,3.33-2.9,4.84c-.75,.64-1.18,1.5-1.29,2.58-.21,4.62-4.73,8.17-8.92,7.31,1.29-9.13,7.2-16.76,15.15-20.52h0Z" fill="#c9d0db" />
    <path d="M238.51,91.85c-13.86-.75-25.04-12.14-25.25-26.22,5.05,.11,9.67,1.29,12.89,9.13,1.72,3.55,2.69,4.19,3.65,4.73,.86,.43,1.61,.97,2.26,1.61,.86,.86,1.72,1.93,2.36,4.51,.21,.64,.54,1.18,.86,1.61,1.18,1.18,2.47,2.79,3.22,4.62Z" fill="#c9d0db" />
    <path d="M261.29,81.43c-3.98,5.16-9.67,8.81-16.23,9.99,.11-5.37,4.41-10.32,10.32-10.32,1.93,0,1.83-.86,3.44-.86,1.07,0,1.83,.54,2.47,1.18Z" fill="#c9d0db" />
    <path d="M258.28,45.54c-.97,2.69-2.79,5.91-6.66,5.91-6.12,0-8.6-6.55-8.6-8.6-.21-1.07,0-2.9,.11-4.41,5.8,.75,11.07,3.33,15.15,7.09Z" fill="#c9d0db" />
    <circle cx="234.32" cy="47.58" r="3.98" fill="#c9d0db" />
    <circle cx="259.91" cy="74.67" r="3.98" transform="translate(106.87 297.62) rotate(-71.56)" fill="#c9d0db" />
    <path d="M243.72,98.92c-21.7,2.23-39.78-15.85-37.44-37.44,1.7-15.74,14.36-28.4,30.1-30.1,21.59-2.34,39.78,15.85,37.44,37.44-1.7,15.74-14.36,28.4-30.1,30.1h0Zm-1.6-60.21c-16.28-1.28-29.89,12.23-28.61,28.61,1.06,12.87,11.38,23.3,24.25,24.25,16.28,1.28,29.89-12.23,28.61-28.61-.96-12.87-11.38-23.3-24.25-24.25h0Z" fill="#040200" />
  </g>
</svg>