<?xml version="1.0" encoding="UTF-8"?>
<svg id="Layer_1" data-name="Layer 1" xmlns="http://www.w3.org/2000/svg" viewBox="0 0 480 480">
  <g>
    <path d="M291.4,65.4c0,2.4-.3,4.5-.9,6.3-3,9.1-13.1,12.2-26.8,13.3-6.2,5.4-14.2,8.8-23,8.8s-16.8-3.3-22.9-8.7c-14.4-1-25.1-4-28.2-13.4-.6-1.8-.9-3.9-.9-6.3,0-9.3,8-17.5,20.5-22.7,5.7-11.8,17.7-20,31.6-20s26.3,8.5,31.9,20.7c11.3,5.2,18.7,13.1,18.7,22Z" fill="#c9d0db" />
    <path d="M290.5,71.5c-3,9.1-13.1,12.2-26.8,13.3-6.2,5.4-14.2,8.8-23,8.8s-16.8-3.3-22.9-8.7c-14.4-1-25.1-4-28.2-13.4,0,0,9.9,4,20.6,4,1.8,0,3.7-.1,5.6-.4,7.6,3.3,27.5,10.2,48.9-.1,2.5,.1,4.7,.2,6.8,.1,5.9,0,11.2-.7,19-3.6Z" fill="#487589" opacity="0.5" />
    <g>
      <path d="M219.6,71.3c-1.4,0-2.7-.9-3.3-2.3-.7-1.8,.2-3.8,2-4.5,.2-.1,7.9-3.2,12.2-11.5,.9-1.7,3-2.4,4.7-1.5s2.4,3,1.5,4.7c-5.5,10.8-15.5,14.7-15.9,14.9s-.8,.2-1.2,.2Z" fill="#040200" />
      <path d="M260.4,71.3c-.4,0-.8-.1-1.2-.2-.4-.2-10.4-4-15.9-14.9-.9-1.7-.2-3.8,1.5-4.7s3.8-.2,4.7,1.5c4.3,8.4,12.1,11.5,12.2,11.5,1.8,.7,2.7,2.7,2,4.5-.6,1.5-1.9,2.3-3.3,2.3Z" fill="#040200" />
    </g>
    <path d="M275.1,40.5c-6.5-13.1-19.9-21.5-34.4-21.5s-27.4,8.1-34.1,20.8c-13.7,6-21.5,15.2-21.5,25.4,0,2.7,.4,5.2,1.1,7.5,4,12,17.3,14.7,30.1,15.7,6.9,5.6,15.4,8.7,24.3,8.7s17.6-3.1,24.4-8.9c11.5-1,24.8-3.8,28.7-15.5,.8-2.2,1.1-4.7,1.1-7.5,.1-9.8-7.1-18.7-19.7-24.7Zm12.1,29.9c-2.2,6.5-9.3,9.8-23.8,10.9h-.1c-.1,0-.3,0-.4,.1-.1,0-.2,0-.3,.1-.1,0-.2,.1-.3,.1s-.2,.1-.3,.1-.2,.1-.3,.2c-.1,.1-.2,.1-.3,.2,0,0-.1,0-.1,.1-5.7,5.1-13.1,7.9-20.7,7.9s-14.9-2.8-20.6-7.8c0,0-.1,0-.1-.1-.1-.1-.2-.1-.3-.2s-.2-.1-.3-.2-.2-.1-.3-.1-.2-.1-.3-.1-.2,0-.3-.1c-.1,0-.3-.1-.4-.1h-.1c-15.4-1-22.9-4.3-25.1-11-.5-1.5-.8-3.3-.8-5.2,0-7.4,6.9-14.7,18.4-19.4,.1,0,.1-.1,.2-.1,.1-.1,.2-.1,.3-.2,.1-.1,.2-.1,.3-.2,.1-.1,.2-.1,.3-.2,.1-.1,.2-.2,.2-.3,.1-.1,.1-.2,.2-.3,.1-.1,.1-.2,.2-.3,0-.1,.1-.1,.1-.2,5.3-11.1,16.2-18,28.4-18s23.5,7.3,28.7,18.6c0,.1,.1,.2,.2,.3,0,0,0,.1,.1,.1,.1,.2,.2,.3,.4,.5l.1,.1c.1,.1,.2,.2,.4,.3l.1,.1c.2,.1,.4,.2,.5,.3,10.7,4.8,16.9,11.7,16.9,18.8-.1,2-.3,3.8-.8,5.3Z" fill="#040200" />
    <g>
      <circle cx="201.3" cy="92.9" r="3.8" fill="#487589" opacity="0.5" />
      <circle cx="201.3" cy="128.3" r="3.8" fill="#487589" opacity="0.5" />
      <path d="M201.3,120.6c-1.9,0-3.5-1.6-3.5-3.5v-12.5c0-1.9,1.6-3.5,3.5-3.5s3.5,1.6,3.5,3.5v12.5c0,1.9-1.6,3.5-3.5,3.5Z" fill="#487589" opacity="0.5" />
      <circle cx="278.8" cy="92.9" r="3.8" fill="#487589" opacity="0.5" />
      <circle cx="278.8" cy="128.3" r="3.8" fill="#487589" opacity="0.5" />
      <path d="M278.8,120.6c-1.9,0-3.5-1.6-3.5-3.5v-12.5c0-1.9,1.6-3.5,3.5-3.5s3.5,1.6,3.5,3.5v12.5c-.1,1.9-1.6,3.5-3.5,3.5Z" fill="#487589" opacity="0.5" />
      <path d="M260.8,128.5c-1.9,0-3.5-1.6-3.5-3.5v-7.3c0-1.9,1.6-3.5,3.5-3.5s3.5,1.6,3.5,3.5v7.3c0,1.9-1.6,3.5-3.5,3.5Z" fill="#487589" opacity="0.5" />
      <path d="M260.8,109.1c-1.9,0-3.5-1.6-3.5-3.5v-7.3c0-1.9,1.6-3.5,3.5-3.5s3.5,1.6,3.5,3.5v7.3c0,2-1.6,3.5-3.5,3.5Z" fill="#487589" opacity="0.5" />
      <path d="M218.9,128.5c-1.9,0-3.5-1.6-3.5-3.5v-7.3c0-1.9,1.6-3.5,3.5-3.5s3.5,1.6,3.5,3.5v7.3c0,1.9-1.6,3.5-3.5,3.5Z" fill="#487589" opacity="0.5" />
      <path d="M218.9,109.1c-1.9,0-3.5-1.6-3.5-3.5v-7.3c0-1.9,1.6-3.5,3.5-3.5s3.5,1.6,3.5,3.5v7.3c0,2-1.6,3.5-3.5,3.5Z" fill="#487589" opacity="0.5" />
      <path d="M240,119.6c-1.9,0-3.5-1.6-3.5-3.5v-12.5c0-1.9,1.6-3.5,3.5-3.5s3.5,1.6,3.5,3.5v12.5c0,1.9-1.6,3.5-3.5,3.5Z" fill="#487589" opacity="0.5" />
    </g>
  </g>
</svg>