<svg xmlns="http://www.w3.org/2000/svg" viewBox="0 0 480 480">
  <g>
    <path d="M271.9,78.6c3.8-3.4,7.8-6.6,11.9-9.6,2.2-1.6,2.2-4.9,0-6.4-4.2-3-8.3-6.4-12.2-9.8,.3-5.2,.8-10.4,1.7-15.6,.4-2.7-1.9-5-4.6-4.6-5,.8-10.1,1.4-15.2,1.6-4.3-5-7.8-9.4-10.1-12.4-1.6-2.1-4.8-2.1-6.4,.1-3,4.2-6.3,8.3-9.7,12.1-6.6-.5-12.1-1.1-15.9-1.6-2.6-.4-4.9,1.9-4.5,4.6,.9,5.1,1.4,10.3,1.7,15.4-5.1,4.4-9.5,7.9-12.6,10.2-2.1,1.6-2.1,4.7,0,6.3,3,2.3,7.4,5.7,12.3,10-.5,6.5-1.1,12-1.6,15.8-.4,2.6,1.9,4.8,4.5,4.5,3.8-.5,9.4-1.2,16.2-1.7,3.4,3.8,6.7,7.9,9.7,12.1,1.6,2.2,4.8,2.2,6.4,.1,2.3-3.1,5.8-7.4,10.1-12.4,5.1,.3,10.3,.8,15.4,1.7,2.6,.4,4.9-1.8,4.6-4.5-.5-3.8-1.2-9.3-1.7-15.9Z" fill="#040200" />
    <path d="M263,75c3.8-3.3,7.8-6.5,12-9.2-4.3-2.8-8.4-6-12.2-9.4,.3-5.1,.9-10.3,2-15.3-4.9,1.1-10,1.7-15.1,2-6-6.9-9.7-12.2-9.7-12.2-2.7,4.2-5.9,8.3-9.2,12-9.1-.6-15.5-1.8-15.5-1.8,1.1,4.9,1.7,10,2,15.1-6.9,6-12.2,9.7-12.2,9.7,0,0,5.2,3.6,12,9.5-.6,9-1.8,15.2-1.8,15.2,0,0,6.4-1.2,15.5-1.8,3.3,3.8,6.5,7.8,9.2,12,0,0,3.7-5.3,9.7-12.2,5,.3,10.2,.9,15.1,2,0-.1-1.2-6.4-1.8-15.6Z" fill="#fb8c44" />
    <circle cx="240" cy="65.6" r="23.8" fill="#fbeb4e" />
    <path d="M231.8,75.7c-1.9,0-3.5-1.6-3.5-3.5v-12.3c0-1.9,1.6-3.5,3.5-3.5s3.5,1.6,3.5,3.5v12.4c0,1.9-1.6,3.4-3.5,3.4Z" fill="#040200" />
    <path d="M248.5,75.7c-1.9,0-3.5-1.6-3.5-3.5v-12.3c0-1.9,1.6-3.5,3.5-3.5s3.5,1.6,3.5,3.5v12.4c0,1.9-1.6,3.4-3.5,3.4Z" fill="#040200" />
  </g>
</svg>