<svg xmlns="http://www.w3.org/2000/svg" viewBox="0 0 480 480">
  <g>
    <path d="M345.3,175.4s-12.4-79.9-105.3-79.9-105.3,79.9-105.3,79.9c0,0-9.4,9-9.4,23.5,0,20.2,15.1,30.3,24.9,30.3,4.8,3.7,8.2,2.9,11.9,.6,3.6,6.5,7.6,10.8,7.6,10.8l-.39-11.38s-8.01-15.34-8.16-33.24c-.24-29.21,21.6-69.49,78.9-69.49s80.58,44.3,80.61,67.84c.03,21.99-10.61,38.11-10.61,38.11l.45,8.15s4-4.3,7.6-10.8c3.7,2.3,7,3.1,11.9-.6,9.8,0,24.9-10.1,24.9-30.3-.2-14.5-9.6-23.5-9.6-23.5h0Zm-185.4-7.4s-1.1-.8-2.8-1c1.2-3.3,7.8-19.2,23.7-30.9,0,0,.7,1.9,1.8,2.8-1.5,1.2-12.7,9.2-22.7,29.1h0Zm137.4-29.1c1.1-.9,1.8-2.8,1.8-2.8,16,11.7,22.5,27.6,23.7,30.9-1.7,.2-2.8,1-2.8,1-9.9-19.9-21.1-27.9-22.7-29.1h0Z" fill="#050200" />
    <path d="M158.1,222.6c-.3,.6-.8,1.1-1.7,1.1-2,0-7.2-9.6-7.2-29.9,0-3,.2-5.6,.6-7.7,.6-3.7,1.6-6.2,2.6-7.9,1.6-2.7,3.2-3.4,3.2-3.4l1.5,.7s-.3,.9-.6,2.5c-.4,1.8-.9,4.5-1.4,7.8-1.1,8.7-1.5,21.8,3.2,34.4,.2,.7,.2,1.6-.2,2.4h0Z" fill="#2e2e2e" />
    <path d="M240,109.1c75.2,0,92.1,61.4,92.1,61.4,0,0,3.2,4.5,5.2,11h0c.7,2.4,1.3,5.1,1.5,7.9,0,.6,.1,1.2,.1,1.9,0,22.3-3.6,28.7-3.6,28.7,0,0,11.2-5.5,11.2-20.5,0-3.2-.4-6.1-1.1-8.5-1.4-5.1-3.7-8.3-4.7-9.5-.3-.4-.5-.6-.5-.6,0,0-13.3-77.3-100.1-77.3s-100.2,77.4-100.2,77.4c0,0-.2,.2-.5,.6-1,1.2-3.4,4.4-4.7,9.5-.7,2.4-1.1,5.2-1.1,8.5,0,15,11.2,20.5,11.2,20.5,0,0-3.6-6.4-3.6-28.7,0-.6,0-1.2,.1-1.9,.2-2.8,.7-5.5,1.5-7.9h0c2-6.5,5.2-11,5.2-11,0,0,16.8-61.5,92-61.5Z" fill="#eb473d" />
    <path d="M142.7,181.6h0c-.7,2.4-1.3,5.1-1.5,7.9h0s-4.2-.1-6.6,1.6c1.4-5.1,3.7-8.3,4.7-9.5h3.4Z" fill="#fff" />
    <path d="M156.3,177.9c-.4,1.8-.9,4.5-1.4,7.8-1.4,.2-3.5,.5-5.2,.4,.6-3.7,1.6-6.2,2.6-7.9,.9-.3,2.3-.5,4-.3h0Z" fill="#fff" />
    <path d="M321.9,222.6c.3,.6,.8,1.1,1.7,1.1,2,0,7.2-9.6,7.2-29.9,0-3-.2-5.6-.6-7.7-.6-3.7-1.6-6.2-2.6-7.9-1.6-2.7-3.2-3.4-3.2-3.4l-1.5,.7s.3,.9,.6,2.5c.4,1.8,.9,4.5,1.4,7.8,1.1,8.7,1.5,21.8-3.2,34.4-.2,.7-.2,1.6,.2,2.4h0Z" fill="#2e2e2e" />
    <path d="M240,120.6c31.1,0,50.8,13.7,50.8,13.7,0,0,.8,0,.8-1.2s-14.6-16-51.6-16-51.6,14.8-51.6,16,.8,1.2,.8,1.2c0,0,19.7-13.7,50.8-13.7h0Z" fill="#2e2e2e" />
    <path d="M337.3,181.6h0c.7,2.4,1.3,5.1,1.5,7.9h0s4.2-.1,6.6,1.6c-1.4-5.1-3.7-8.3-4.7-9.5h-3.4Z" fill="#fff" />
    <path d="M323.7,177.9c.4,1.8,.9,4.5,1.4,7.8,1.4,.2,3.5,.5,5.2,.4-.6-3.7-1.6-6.2-2.6-7.9-.9-.3-2.3-.5-4-.3Z" fill="#fff" />
  </g>
</svg>