<?xml version="1.0" encoding="UTF-8"?>
<svg id="a341de80f770ae1976217a91f764a2eec78d3f94" xmlns="http://www.w3.org/2000/svg" viewBox="0 0 480 480">
  <g>
    <path d="M267.75,135.93c29.52,7.81,40.94,35.1,40.94,35.1,.7,1.2,.52,.43,1.22,1.63,.1,.2,2.34,.23,2.44,.43,11.8,.4,5.47-6.77-3.03-16.47l-.1-.1c-6.1-7-14.9-14.6-22.2-20-3.2-2.3-6.2-4.2-8.5-5.4-5-2.5-10.2-4.2-15-5.4-.1,0-.2,0-.3-.1-9.7-2.3-17.5-2.4-17.5-2.4l-4.8,4.3-1.3,4.8h0s2.3-.4,6.1-.4c3.5,0,8.4,.3,13.9,1.6h0c1.7,.4,3.4,.8,5.2,1.4" fill="#fff" isolation="isolate" opacity=".5" />
    <path d="M295.41,250.4c5.74-4.3,10.84-9.35,15.12-15,.3-2.57,1.9-4.97,5.13-5.8,3.53-.9,7.08-1.26,10.67-1.59,.58-.56,1.27-1.02,2.08-1.34,1.68-4.08,3.01-8.39,4.33-12.53,1.27-3.97,2.3-7.94,2.81-12.02-3.08-2.34-5.91-5.05-8.23-8.07h0v.02c-.97-1.26-1.55-2.65-1.72-4.05-2.84-.38-5.6-2.41-6.01-5.33-.44-3.06-1.8-5.83-2.37-8.84-.08-.44-.14-.89-.19-1.34-11.77,4.66-23.78-1.4-33.54-8.07-4.9-3.35-9.85-6.75-13.26-11.68-4.44-6.41-6.75-12.81-8.56-20.35-.28-1.17-.06-2.16,.44-2.93v-3.32c-5.64-1.56-11.73-3.04-17.37-2.78,.24,14.54,.87,29.08,.52,43.63-.04,1.76-.62,3.15-1.5,4.2,.26,.74,.41,1.57,.41,2.49-.01,5.55-.11,11.1-.05,16.65,0,.51-.03,1.17-.09,1.9,.79,.84,1.55,1.71,2.23,2.63,2.66,1,5.24,2.3,7.74,3.64,.82-.17,1.67-.27,2.52-.32,.77-.29,1.64-.46,2.61-.46,.45,0,.86,.04,1.26,.11,.74-.26,1.56-.42,2.47-.42,1.73,0,3.11,.52,4.15,1.35,.3,.11,.6,.23,.87,.38,1.82,.08,3.24,.73,4.25,1.73,2.24,.5,3.71,1.99,4.41,3.83,.03,.04,.07,.07,.1,.11,1.18,.77,2.01,1.89,2.46,3.18,1.23,1.29,1.82,3.08,1.82,4.9,.86,1.7,1.01,3.8,.45,5.69,.45,1.5,.43,3.18-.06,4.7,.51,2.11,.14,4.5-1.12,6.31-.46,2.77-2.36,5.3-5.63,5.8-.11,.09-.22,.18-.33,.26-.79,2.71-3.02,4.97-6.64,4.97h-.29c-.5,.26-1.02,.48-1.62,.61-.9,2.51-3.07,4.53-6.49,4.53-2.53,0-4.31-1.1-5.38-2.67-1.13,.25-2.35,.27-3.57,.05-3-.54-6.17,.41-9.29-.19-2.4-.46-4.33-1.13-6.8-.85-2.87,.33-5.64,.96-8.41,1.21,.06,7.22,1.01,12.04,.56,19.27,4.63,.23,7.69,3.52,12.46,3.54,3.34,.01,6.67-.71,9.99-1,1.38-.12,2.74-.14,4.11-.11,.59-1.51,1.66-2.82,3.18-3.59,1.1-1.54,1.61-1.02,3.97-1.12,1.07-.78,1.5-1,3.16-1l2.41,.25c1.12-.96,1.8-1.01,3.67-1.01,.91,0,2.44-.25,3.16,0,1.1-1.27,2.97-1.66,5.06-1.77,1.09-1.98,3.23-2.28,6.14-2.28m11.41-60.59c-2,0-3.7-1.6-3.7-3.7s1.7-3.7,3.7-3.7,3.7,1.6,3.7,3.7-1.7,3.7-3.7,3.7Zm18.7,20.2h0c-3.5,8.7-6.26,17.42-18.69,27.5l4.57-19.67,14.02-8.03h.1v.2h0Z" fill="#7cfb9d" />
    <rect x="261.28" y="143.2" width="7" height="55.1" transform="translate(-32.15 276.1) rotate(-52.35)" fill="#fff" isolation="isolate" opacity=".5" />
    <path d="M283.81,189.92c-.1,.7-.2,1.5-.2,2.3,0,6.3,5.1,11.4,11.4,11.4s11.4-5.1,11.4-11.4c0-6.3-5.1-11.4-11.4-11.4-3,0-5.7,1.2-7.7,3-1.7,1.6-3,3.7-3.5,6.1h0Zm7.5,2.3c0-2,1.7-3.7,3.7-3.7s3.7,1.6,3.7,3.7-1.6,3.7-3.7,3.7-3.7-1.7-3.7-3.7Z" fill="#050200" />
    <rect x="226.25" y="243.92" width="27.8" height="7.9" fill="#fff" isolation="isolate" opacity=".95" />
    <path d="M256.62,216.86h0c0,4.03,3.28,7.31,7.31,7.31,1.18,0,2.35-.25,3.36-.76,1.93-1.01,3.36-2.86,3.78-5.04,.08-.5,.17-1.01,.17-1.51,0-4.03-3.28-7.31-7.31-7.31-.59,0-1.18,.08-1.76,.25-2.18,.5-3.95,2.02-4.87,4.03-.42,.84-.67,1.93-.67,3.02h0Z" fill="#fff" isolation="isolate" opacity=".95" />
    <polygon points="332.36 213.99 323.07 209.03 325.51 193.81 335.46 199.86 332.36 213.99" fill="#fff" isolation="isolate" opacity=".95" />
    <path d="M314.58,237.67c1.54-2.42,3.08-4.83,4.62-7.25l7.32-.36c2.5-.1,7.21-.11,8.34-4.9l4.97-20c.57-5.31-1.78-7.19-3.88-8.59l-2.4-1.6-7.4-4.46c-.69-8.45-1.87-12.61-3.87-18.55-2.78-8.27-7.61-16.11-9.82-19.4-6.73-10.02-24.06-24.91-48.5-29.68-11.35-2.21-24.79-2.3-24.79-2.3,0,0-.04,4.83-.06,7.09v64.08c0,3,.82,5.79,3.02,7.99,1.1,1.1,3.21,2.93,5.01,4.73l.06,.06c-2.57,3.39-4.06,7.67-3.96,12.34,0,11.5,9.3,20.8,20.8,20.8,2.65,0,5.19-.48,7.46-1.35-5.42,3.7-6.48,4.3-14.06,6.44-1.17-2.23-3.2-3.19-5.87-3.19h-21c-5.5-.08-7.99,1.41-7.99,7v16.7c-.09,6.3,4.79,7.55,7.99,7.55h21.11c2.07,0,4.05-1.02,5.35-2.43,2.69-.31,6.4-.84,10.75-1.85,5.15-1.2,14.8-3.51,25.44-9.91,10.03-6.04,16.94-13.3,21.38-18.94Zm10.67-14.5l-3.31,.13c1.38-3.43,2.25-7.23,3.36-12.55,1.1-5.32,1.1-12.06,1.1-12.06l4.75,3.38c1.95,1.69,1.69,4.23,1.64,4.54,0-.05,.02-.13,.06-.29,.31-1.39,.15-.61-.06,.32l-.34,1.53-.68,3.1-2.37,9.29c-.38,1.51-1.06,2.49-2.61,2.52l-1.54,.09h0Zm-73.72-6.31c0-2.4,.7-4.6,1.9-6.5,1.2-2,3-3.7,5.2-4.7,1.6-.8,3.4-1.2,5.3-1.2,6.8,0,12.4,5.5,12.4,12.4,0,1.7-.3,3.4-1,4.9-1,2.2-2.5,4.1-4.5,5.4s-4.3,2.1-6.9,2.1c-6.9,0-12.5-5.5-12.4-12.4Zm62.14-45.34c-2.2-.2,2,.4,0,0-35.63-2.47-46.15-26.72-46.94-39.8h0c22.48,6.38,38.37,19.31,46.94,39.8Zm-16.25,72.34l4.39-18.83,13.79-8.67c-4.03,10.4-6.07,16.13-18.18,27.49Zm-13.55-13.89c-.68-1.25-1.72-1.86-2.2-2.1l-.02-.02c2-3.09,3.1-6.89,3.1-10.89,0-11.5-9.3-20.8-20.8-20.8-4.25,0-8.2,1.27-11.48,3.42l-.02-.02c-1.9-1.9-3.5-3.5-4.7-4.6-.9-.8-1.4-2-1.4-3.2v-63.08s6.78,.27,13.1,1.42l.8,4.36c1,4.6,2.8,10.6,6.3,16.7,6.5,11.4,20.36,25.29,49.56,27.99,1.2,4.7,1.86,9.02,2.13,14.68l.06,1.25c-.1,3.5,.09,5.36-.47,9.4l-4.09,3.09-16.8,11.7c-1.5,1.1-2.5,2.6-2.9,4.4h0l-4.86,25.7c-10.86,5.8-16.23,7.54-30.51,9.92v-8.81c3.69-1.33,8.1-3.26,12.81-6.11,5.24-3.17,11.63-8.17,12.38-9.49s1.24-2.62,0-4.9Zm-54.22,16.59s-.1,0,0,0h21.92s.1,0,.1,.1v17.24h-22.02" fill="#050200" />
  </g>
</svg>