<?xml version="1.0" encoding="UTF-8"?>
<svg id="_e9c74b67b7d5ed8bbf8c8219bb838c8ab54add8" data-name="4e9c74b67b7d5ed8bbf8c8219bb838c8ab54add8" xmlns="http://www.w3.org/2000/svg" viewBox="0 0 480 480">
  <g>
  <path d="M158.3,217.08c-3.6,4.1-36-9.28-37.8-11.38,0,0,.9-.7,2.5-1.7h0c5-3,16.7-9.3,30-9.6,.78,.08,5.17-.16,1.65,.69,.1,.5,.32,.53,.42,1.43,0,.3,.29,1.64,.29,2.04l.19,.93c.1,4.8,.65,8.02,1.55,12.62,.5,1.5,.8,3.48,1.2,4.98Z" fill="#9c7855"/>
  <path d="M359.2,205.7c-1.8,2.1-35.38,15.8-39.78,12.4,.2-.9,2.01-2.71,2.21-3.61,.1-.6,1.04-1.97,1.14-2.57,1.1-5.1,1.53-8.67,1.53-13.77-.1,0-.07-1.34-.17-1.34,0-.4,.2-.99,.3-1.29l1.86,.77c.1-.5,.1-.9,.2-1.2,0-.2,0-.4,.1-.5,9,.2,17.3,3.2,23.3,6,5.7,2.5,9.3,5.1,9.3,5.1Z" fill="#9c7855"/>
  <path d="M157.1,212.11c-10-1.1-26.8-4.01-32.7-6.61,.34-.16,.71-.32,1.11-.49-3.19-.17-6.34-.8-9.45-1.54-.55,.87-.56,1.64-.56,2.03,0,2.9,1.5,6.3,19.7,10.5,7.6,1.8,18.01,3.37,23.81,3.77-.3-.8-.41-2.17-.71-2.97-.4-1.5-.9-3.19-1.2-4.69Z" fill="#050200"/>
  <path d="M363.58,202.24c-2.93,.93-5.82,1.99-8.83,2.63,.53,.22,1.03,.43,1.45,.62-6,2.6-25.34,6.21-35.34,7.11-.1,.6,.35,1.03,.25,1.63-.2,1-1.21,2.36-1.41,3.26-.2,.8-.64,1.31-.84,2.11,5.8-.4,18.64-1.8,26.54-3.7,18.2-4.2,19.7-7.7,19.7-10.5,0-.3,0-1-.6-2-.23-.36-.52-.75-.92-1.16Z" fill="#050200"/>
  </g>
</svg>