<svg version="1.1" id="Layer_1" xmlns="http://www.w3.org/2000/svg" xmlns:xlink="http://www.w3.org/1999/xlink" x="0px" y="0px" viewBox="0 0 480 480" style="enable-background:new 0 0 480 480;" xml:space="preserve">
	<g>
		<path fill="#59C260" d="M275.4,287c0.2,0,0.5,0,0.7-0.1l11-2c1.9-0.4,3.2-2.2,2.8-4.1c-0.4-1.9-2.2-3.2-4.1-2.8l-11,2
		c-1.9,0.4-3.2,2.2-2.8,4.1C272.3,285.8,273.7,286.9,275.4,287z" />
		<path fill="#050200" d="M271,281.9c0.2,0,0.4,0,0.7-0.1l14.9-2.9c1.9-0.4,3.1-2.2,2.8-4.1c-0.4-1.9-2.2-3.1-4.1-2.8l-14.9,2.9
		c-1.9,0.4-3.1,2.2-2.8,4.1C267.9,280.7,269.3,281.9,271,281.9z" />
		<path fill="#050200" d="M273.5,293.5c0.3,0,0.5,0,0.8-0.1c6.5-1.5,18.1-2.3,18.2-2.3c1.9-0.1,3.4-1.8,3.2-3.7s-1.8-3.4-3.7-3.2
		c-0.5,0-12.2,0.9-19.2,2.5c-1.9,0.4-3.1,2.3-2.6,4.2C270.4,292.4,271.9,293.5,273.5,293.5z" />
	</g>
</svg>