<?xml version="1.0" encoding="UTF-8"?>
<svg id="_eefe51cef1e7b10e79197319a0b04a378886658" data-name="6eefe51cef1e7b10e79197319a0b04a378886658" xmlns="http://www.w3.org/2000/svg" viewBox="0 0 480 480">
  <g>
    <path d="M260.4,351.89h-.07v.02c2.8,.02,5.6,.12,8.41,.15,.21-.24,.42-.49,.63-.73,.14-.75,.43-2.52,.43-3.45,0-3.2-2.5-10.5-7-10.5-2.8,0-3.9,2.9-3.9,4.3,0,2.7,2.8,2.9,2.8,6.6,0,2.6-1.3,3.6-1.3,3.6Z" fill="#040200" />
    <path d="M275.64,350.99c.02,.12,.03,.25,.04,.38,0,.04,0,.07,0,.11,0,.05,.01,.1,.02,.15,.02,.1,.02,.2,.03,.3,.08,0,.16-.02,.24-.02,1.34,0,2.68,.07,4.02,.04,.33,0,.67-.02,1-.04,.06,0,.12,0,.17-.01,.15-.02,.31-.04,.46-.06,.65-.09,1.29-.24,1.9-.47,.11-.04,.22-.06,.34-.06,.11-.82,.35-2.75,.35-3.91,0-1.5-1.1-10.1-6.1-10.1-3.4,0-4.1,3.1-4.1,4.5,0,2.3,2,2.5,2,6.6,0,1.31-.18,2.11-.36,2.6Z" fill="#040200" />
    <path d="M208.69,351.58c.16,.22,.35,.46,.49,.71,.19-.05,.38-.09,.58-.09,.19,0,.38-.01,.57-.02,2.31-.34,4.77-.6,7.12-.33-.33-.34-1.16-1.38-1.16-3.47,0-3.7,2.8-3.9,2.8-6.6,0-1.5-1.1-4.3-3.9-4.3-4.5,0-7,7.2-7,10.5,0,.98,.33,2.89,.45,3.56,.01,.01,.03,.02,.04,.03Z" fill="#040200" />
    <path d="M193.81,351.81c.02,.05,.03,.1,.05,.15h9.08c.03-.06,.05-.12,.09-.18h-.22s-.8-.5-.8-3.3c0-4.1,2.1-4.3,2.1-6.6,0-1.4-.7-4.5-4.1-4.5-5.1,0-6.2,8.6-6.2,10.1s.4,4.3,.4,4.3c0,0-.15,.03-.39,.02Z" fill="#040200" />
  </g>
</svg>