<svg xmlns="http://www.w3.org/2000/svg" viewBox="0 0 480 480">
	<g>
		<path d="M245.14,264.91c11.14,0,12.14,5.01,12.1,9.03-.04,3.69-4.62,8.26-14.96,17.49-.38,.34-1.28,1.12-2.5,1.14-1.3,.02-2.3-.84-2.75-1.24-13.02-11.56-14.73-13.93-14.7-17.39,0,0-.02-2.75,1.49-5.1,.9-1.4,3.71-3.93,9.85-3.93s5.71,0,11.47,0Z" fill="#050200" />
		<path d="M240.48,285.11c-.06,.05-.2,.17-.42,.22,0,0-.49,.19-.98-.2-2.34-1.83-9.61-6.97-9.69-10.42-.05-1.78,1.12-4.82,5.09-4.8,3.86-.02,5.45,3.95,5.45,3.95,0,0,.94-3.95,5.25-3.95,3.6,0,5.36,2.35,5.36,4.86,0,3.07-3.15,4.74-10.05,10.33Z" fill="#EB473D" />
	</g>
</svg>