<svg xmlns="http://www.w3.org/2000/svg" viewBox="0 0 480 480">
  <g>
    <path d="M292.7,321.61h0c3.1-4.61,6.1-9.21,9.1-13.91,2.1-3.3,2.1-6.8,.3-10.3-1.3-2.4-2.4-4.9-3.6-7.3-4.1-8.4-8.4-16.7-13.9-24.3-1.3-1.8-2.5-3.7-3.6-5.3l-.56-.85c-2.6,1.24-5.12,2.35-7.79,3.31,0,.03,.01,.05,.02,.08,.04-.01,.09-.02,.13-.04,.3-.1,.9,.1,1.1,.4,6.5,10.8,13.2,21.4,18.4,32.9,.7,1.6,1.5,3.2,2.3,4.8,.5,.9,.5,1.8-.1,2.7-2.7,4.1-5.4,8.2-8.1,12.4-.5,.8-1.1,.9-1.9,.6-2.5-.9-5.1-1.8-7.6-2.8-.4-.2-.8-.5-1.3-.6-1.8-.4-2.7-1.4-2.3-3.4h5.1c.2,0,.5,.3,.6,.6,.9,1.9,2.5,2.8,4.2,2.5,1.9-.3,3.3-1.7,3.3-3.7,.1-3-.1-6.1-.4-9.1-.2-2-2-3.2-3.8-3.1-1.9,.2-3.3,1.7-3.4,3.7v1.5h-6.3c.6-1.6,1.1-3.1,1.7-4.6,.7-1.8,1.6-3.5,2.2-5.4,.4-1.2,.6-2.6,.3-3.8-1.1-4.2-2.3-8.3-3.7-12.4-.9-2.7-4.3-3.3-6.4-1.3-1.4,1.2-1.5,2.8-.9,4.5,.8,2.4,1.5,4.9,2.3,7.3,.8,2.4,.3,4.5-.9,6.6-.9,1.6-1.7,3.3-2.3,5-.4,1.1-.7,2.3-.6,3.5,.3,4.7,.7,9.4,1.1,14.1,0,.6-.1,.9-.7,1.1-3.1,1.3-5.8,3.1-7.8,5.8-.7,.8-1.1,2-1.2,3-.2,1.9,1,3.5,2.7,4.1,1.6,.6,3.2,.1,4.4-1.5,1.3-1.7,2.8-3.2,4.7-4.2,1.5-.8,2.7-.8,4.2,.4,3.8,3.2,7.7,6.3,11.7,9.3,4.1,3.1,5.2,7.2,4.6,12-.1,.5-.1,1-.2,1.5-.6,3.1-.8,3.2-4,3.7-.5,.1-1.1,0-1.6,0-8,0-15.9,.1-23.9,.1-5.5,0-9.7-2.8-13-6.9-.3-.3-.5-.9-.5-1.4-.1-3.5-.2-7-.3-10.5-.2-9.4-.3-18.8-.5-28.2,0-.8-.1-1.7-.3-2.5-.5-2-2.5-3.3-4.5-3.1-2.1,.2-3.7,1.8-3.8,4-.2,3.8-.2,7.7-.3,11.6-.1,6.5-.2,12.9-.3,19.4-.1,3.1-.1,6.1-.3,9.2,0,.6-.3,1.3-.7,1.8-3.5,4.3-8,6.7-13.7,6.6-7.4-.2-14.9-.2-22.3-.2h-2c-2.8-.1-3.9-1-4.1-3.7-.2-2.3-.2-4.6,0-6.9,.2-2.4,1.7-4.3,3.5-5.8,4.6-3.7,9.2-7.4,13.9-11,.3-.2,.8-.2,1.2-.1,2.8,.7,4.7,2.6,6.4,4.8,1.4,1.7,3.2,2.2,4.9,1.4,1.7-.7,2.7-2.9,2.2-4.8-.2-.8-.6-1.6-1.1-2.2-2.1-2.6-4.7-4.5-7.7-5.8-.2-.1-.5-.2-.7-.3,.4-3.8,.5-7.6,1.1-11,.7-4.4-.6-8.3-2.7-12-1.2-2.2-1.6-4.4-.8-6.8,.9-2.5,1.6-5,2.4-7.6,.4-1.6,.1-3-1.1-4.1-1.2-1.1-2.7-1.5-4.1-.8-.9,.4-1.9,1.2-2.2,2-1.4,4.4-2.7,8.9-3.9,13.5-.2,.9,.2,2.2,.6,3.2,1,2.8,2.2,5.5,3.3,8.2,.2,.4,.3,.9,.4,1.4h-6.2v-1.5c-.1-2-1.5-3.5-3.4-3.7-1.9-.2-3.7,1.1-3.9,3-.3,3-.5,6.1-.5,9.1,0,2.1,1.5,3.5,3.4,3.8,1.7,.3,3.3-.7,4.1-2.6l.3-.6h5.5v.3c.2,1.8-.6,2.6-2.3,3.1-3,.9-5.9,2.2-8.8,3.3-.9,.4-1.6,.2-2.2-.7-2.6-4-5.2-7.9-7.8-11.9-.8-1.2-.7-2.3-.1-3.5,4.5-9,8.7-18.1,14.1-26.6,2.2-3.5,4.3-7.1,6.4-10.6,.27-.54,.64-.7,1.22-.57l.14-.55c-2.69-1.48-5.5-2.31-8.25-2.74-.03,.04-.05,.08-.08,.12-.02,.02-.16,.26-.23,.37-.36,.56-.62,1.11-.81,1.48-8.2,11.2-14.4,23.5-20.3,36-1.4,3.1-1.5,6,.1,9.1,2.6,5.2,5.8,10,9.4,14.6,.9,1.2,2.1,2.2,3.4,3,.8,.6,2,.7,3.1,1-1.3,1.1-2.5,2.1-3.6,3.1-3.4,3.1-5.9,6.6-6.5,11.3-.5,3.9-.4,7.8,.3,11.6,.3,2.1,1.2,3.9,2.5,5.5,1.3,1.7,3,2.6,5.2,2.6,12,0,24.1,.2,36.1,.1,3.4,0,6.6-1.1,8.9-3.8,1.2-1.4,2.3-2.9,3.4-4.3,.1,.2,.3,.6,.5,.9,2.8,4.8,7,7.3,12.6,7.3,11.4,0,22.9-.2,34.3-.1,3.6,0,5.9-1.7,7.3-4.7,2.6-5.7,2.4-11.7,1-17.6-1-4.2-4-7.1-7.1-9.8-.7-.6-1.5-1.3-2.5-2.2,3.1-.1,5.2-1.4,6.7-3.6Z" fill="#050200" />
  </g>
</svg>