<?xml version="1.0" encoding="UTF-8"?>
<svg id="Layer_1" data-name="Layer 1" xmlns="http://www.w3.org/2000/svg" viewBox="0 0 480 480">
  <g>
    <path d="M240,263.8l-37-4.56s-10.94,18.81-15.93,22.17c-3.04,2.04-4.91,3.69-8.97,6.26-6.3,4-9.54,12.82-9.54,16.52,0,11.1,12.84,26.02,14.94,26.02,0,0,5.25-2.67,6.85-7.47,0,0,3.88-10.91,4.98-16.81,1.1-5.9-.32-9.04,2.08-9.04s1.87,3,1.87,5.1-4.56,21.37-4.56,21.37c0,0,13.49-6.22,15.15-23.55,.49-5.08-2.49-8.57-2.49-10.27s-.49-4.59,.41-8.09c.9-3.5,.23-6.66,2.43-6.66,3.4,0,3.6,2.3,3.6,3.4,0,1.2-.8,2.7-1.4,4.5-1,3-1.7,7.1-1.7,7.1,0,0,.6,7.32,.6,13.62,0,0-.31,2.52-3.11,13.72,0,0,1.52,1.67,1.66,2.49,.38,2.32-9.4,3.51-15.77,9.75-.96,.94-5.81,7.67-5.81,15.77,0,3.3,3.03,9.54,9.13,9.54,5.21,.74,23.24,1.87,23.24,1.87,5.32-.39,13.85-6.96,20.33-7.88,4.36-.62,14.95,6.44,16.6,6.43,10.41-.03,24.48,.41,24.48,.41,6.1,0,9.34-6.66,9.34-9.96s1.41-13.06-5.19-18.26c0,0-1.61-1.37-13.69-5.6l1.04-3.32c-1.2-1.18-6.07-6.22-6.43-14.19-.27-5.9,2.08-10.26,3.11-11.95,0,0,.79-5.09-.21-8.09-.6-1.8-1.66-3.36-1.66-4.56s-2.57-2.49,.83-2.49c2.2,0,1.49,.65,2.49,4.15,.9,3.5,1.87,7.84,1.87,9.54s-4.36,5.69-4.36,10.79c0,7.7,15.15,21.37,15.15,21.37,0,0-2.28-17.43-2.28-19.53s-2.4-3.61,0-3.61,1.8-2.29,2.9,3.61,3.73,19.95,3.73,19.95c1.6,4.8,7.26,7.47,7.26,7.47,2,0,15.56-15.54,15.56-26.64,0-2.88-3.94-13.27-3.94-13.27-4.59-4.79-15.95-10.38-20.54-15.17-4.68-4.88-6.32-10.75-11-15.63-12.01,1.23-24.03,2.46-36.04,3.7Zm-56.4,36.58l-2.5,2.8c-.6,.6-1.4,1-2.2,1-.7,0-1.5-.3-2-.8-1.2-1.1-1.3-3-.2-4.2l2.5-2.8c1.1-1.2,3-1.3,4.2-.2,1.3,1,1.3,2.9,.2,4.2Zm116.9,3.7c-.8,0-1.6-.3-2.2-1l-2.5-2.8c-1.1-1.2-1-3.1,.2-4.2s3.1-1,4.2,.2l2.5,2.8c1.1,1.2,1,3.1-.2,4.2-.5,.5-1.3,.8-2,.8Z" fill="#FB8C44" />
  </g>
</svg>