<?xml version="1.0" encoding="UTF-8"?>
<svg id="_584f0257b2f52ab11a50612ce61c14c29bda436" data-name="3584f0257b2f52ab11a50612ce61c14c29bda436" xmlns="http://www.w3.org/2000/svg" viewBox="0 0 480 480">
  <g>
    <path d="M312.74,226.57c-14.45,23.4-29.29,35.28-71.93,52.8-7.33-3.09-56.84-21.67-72.01-52.19,14.76,4.64,44.67,12.07,71.63,12.07s57.87-8.04,72.32-12.67h0Z" fill="#eb473d" />
    <path d="M305.16,245.84c11.39-10.38,12.36-15.98,14.13-19.34,.9-1.6,1.33-3.6,.13-5-1.2-1.4-2.7-1.9-4.5-1.3-9.4,3.3-43.82,14-74.32,14s-64.6-10.7-74.3-14c-1.8-.6-3.7-.1-4.9,1.4-1.2,1.4-1.84,4.04-.94,5.64,14.46,34.18,72.34,54.46,78.44,56.86,.5,.2,1.1,.3,1.7,.3s1.1-.1,1.7-.3c14.2-5.7,38.79-18.86,38.79-18.86,0,0,18.45-12.95,24.07-19.4m-64.36,31.36c-7.2-3-58.68-20.91-70.88-49.18,14.5,4.5,44.38,13.18,70.88,13.18s55.95-8.44,70.05-12.94c-19.75,26.07-30.39,30.51-70.05,48.94Z" fill="#050200" />
  </g>
</svg>