<?xml version="1.0" encoding="UTF-8"?>
<svg id="_584f0257b2f52ab11a50612ce61c14c29bda436" data-name="3584f0257b2f52ab11a50612ce61c14c29bda436" xmlns="http://www.w3.org/2000/svg" viewBox="0 0 480 480">
  <g>
    <path d="M312.74,226.57c-14.45,23.4-29.29,35.28-71.93,52.8-7.33-3.09-58.75-20.47-72.01-52.19,14.76,4.64,44.67,12.07,71.63,12.07s57.87-8.04,72.32-12.67h0Z" fill="#fff" />
    <path d="M312.61,237.33l-.66,.69c.25-.26,.47-.49,.66-.69Z" fill="#050200" />
    <path d="M312.63,237.31l-.02,.02,.02-.02Z" fill="#050200" />
    <path d="M311.5,238.48l-1.86,1.93c.66-.69,1.3-1.36,1.86-1.93Z" fill="#050200" />
    <path d="M311.96,238.01l-.46,.47,.46-.47Z" fill="#050200" />
    <path d="M309.64,240.42l-.72,.75c.25-.26,.49-.51,.72-.75Z" fill="#050200" />
    <path d="M312.87,237.06l-.24,.25,.24-.25Z" fill="#050200" />
    <path d="M313.23,236.69l-.03,.03,.03-.03Z" fill="#050200" />
    <path d="M313.23,236.69s.04-.04,0,0h0Z" fill="#050200" />
    <path d="M313.2,236.72l-.08,.09,.08-.09Z" fill="#050200" />
    <path d="M313.12,236.8c-.06,.07-.14,.15-.25,.26l.25-.26Z" fill="#050200" />
    <path d="M306.38,243.81c-.16,.16-.32,.33-.48,.5l.48-.5Z" fill="#050200" />
    <path d="M306.96,243.2c-.2,.21-.4,.42-.59,.61,.2-.21,.4-.41,.59-.61Z" fill="#050200" />
    <path d="M305.89,244.31l-.15,.15,.15-.15Z" fill="#050200" />
    <path d="M305.75,244.46l-.29,.3,.29-.3Z" fill="#050200" />
    <path d="M317.26,229.57c.82-.98,1.46-1.85,1.86-2.64,.15-.3,.29-.61,.42-.91,.6-1.25,.86-2.66,.32-3.83-.11-.24-.24-.48-.43-.69-.13-.15-.27-.29-.4-.42-.08-.07-.15-.13-.23-.2-.08-.07-.16-.13-.24-.19-.05-.04-.11-.08-.16-.11-.7-.47-1.38-.64-2.05-.62-.45,0-.92,.08-1.42,.24l-.1,.03c-.41,.12-.81,.27-1.21,.4-.46,.16-.99,.34-1.55,.53-12.22,4.03-43.36,12.99-71.28,13.03-30.47-.03-64.8-10.7-74.49-14-.27-.09-.55-.15-.82-.19-.11-.02-.2-.02-.31-.03-.09,0-.18-.02-.27-.02-1.67-.1-2.89,.66-3.76,1.98-.02,.03-.04,.07-.06,.1-.09,.14-.18,.28-.26,.44-.04,.07-.07,.13-.11,.2-.05,.1-.1,.19-.14,.29-.66,1.43-.83,2.99-.11,4.27,14.46,34.18,72.34,54.46,78.44,56.86,.5,.2,1.1,.3,1.7,.3s1.1-.1,1.7-.3c14.2-5.7,42.88-18.26,62.32-38.46l.1-.1-.1,.1,.68-.68,.14-.18,.02-.02-.02,.02c1.09-1.34,8.12-10.08,11.81-15.21Zm-32.3,5.84l-5.74,17.42-8.35-14.54c4.87-.85,9.6-1.84,14.08-2.88Zm-24.84,4.5l-5.19,23.72-8.84-22.54c4.66-.18,9.37-.6,14.03-1.18Zm-78.05,4.53l7.76-7.01,5.84,17.68c-4.87-3.24-9.52-6.81-13.6-10.67Zm24.05,17.02l8.11-16.03,6.67,23.49c-4.63-2.12-9.68-4.62-14.78-7.46Zm44.93,10.98c-3.19,1.49-6.59,3.06-10.24,4.76-1.51-.63-4.96-1.91-9.58-3.81l9.9-25.66,9.92,24.71Zm-15.21-31.34l-8.71,23.03-7.53-24.5c5.4,.73,10.87,1.26,16.25,1.47Zm-27.31-3.26l-5.7,14.89-6.1-17.37c3.79,.88,7.75,1.72,11.8,2.48Zm-31.36,1.47c-3.03-3.55-5.52-7.32-7.24-11.29,4.01,1.24,9.2,2.81,15.16,4.42l-7.92,6.87Zm83.95,28.37l5.61-22.35,8.7,14.8c-.97,.62-1.96,1.23-2.97,1.85-3.43,1.83-7.17,3.7-11.34,5.71Zm25.29-14.24l5.42-16.31,7.04,5.44c-4.04,4.21-8.04,7.69-12.46,10.87Zm10.28-20.99c5.58-1.52,10.42-3,14.17-4.19-2.63,3.47-5.1,6.55-7.5,9.34l-6.67-5.15Zm8.5,12.6l.18-.19-.18,.19Zm-.3,.31l.12-.12-.12,.12Z" fill="#050200" />
    <path d="M307.74,242.39l-.19,.2,.19-.2Z" fill="#050200" />
    <path d="M308.63,241.47c-.12,.12-.23,.24-.35,.36l.35-.36Z" fill="#050200" />
    <path d="M307.55,242.59l-.58,.61c.19-.2,.38-.4,.58-.61Z" fill="#050200" />
    <path d="M308.28,241.83l-.54,.56c.18-.18,.36-.37,.54-.56Z" fill="#050200" />
    <path d="M308.92,241.16l-.3,.31,.3-.31Z" fill="#050200" />
  </g>
</svg>