<?xml version="1.0" encoding="UTF-8"?>
<svg id="_d9d5edee81f358589a46863cbc64ef963000fd2" data-name="0d9d5edee81f358589a46863cbc64ef963000fd2" xmlns="http://www.w3.org/2000/svg" viewBox="0 0 480 480">
  <g>
    <path d="M279.18,258.77c23.5-8.7,43.99-26.17,43.99-59.87,0-27.23-11.2-40.93-18.61-48.66-1.16-1.21-3.8-5.33-4.66-6.1,4.4-7.8,16.94-32.67,16.68-57.86-.08-7.68-.46-62.36-21.26-62.36-2.68,.26-5.71,2.08-7.86,3.56-12.48,8.64-14.24,31.51-16.6,56.33-1.31,13.79-1.94,26-2.86,34.16-.19,1.66-1.53,7.21-1.68,8.42-2.35-.64-8.92-2.38-12.93-3.03-4.02-.65-5.1-.89-10.4-.92-2.71,.18-10.5-.06-12.76,.53-1.2,.1-8.13,1.21-9.27,1.37-4.6,.64-8.61,1.01-8.79,1.18-2.18-14.86,2.05-99.72-26.95-102.22-15.07,0-16.63,23.31-19.02,43.85-.93,7.95-2.13,15.99-2.13,19.93,0,25.3,14.3,49.58,18.6,57.38-6.3,5.7-25.25,22.47-25.25,53.97,0,33.7,19.36,51.67,42.66,60.37l6.9,2.4c25.6,6.89,39.59,6.89,65.2,0m22.18-58.23c-.84,63.4-110.12,59.6-109.15-1.32,0-4.1,.24-9.5,1.34-10.6,2.3-2.3,13.81-2.02,20.41-2.02l33.45-1.65,33.58,1.37c6.7,0,17.75,2.1,20.05,4.4,1.29,.85,.32,6.54,.32,9.82h0Z" fill="#2e2e2e" />
    <path d="M184.52,46.97c7.7,0,21.3,87.7,11,87.7-17.3,0-21-87.7-11-87.7Z" fill="#eaa1d0" />
    <path d="M195.52,138.17c-22.45-1.04-20.9-78.13-18.6-84.1,.6-2.9,2-10.6,7.6-10.6,3.8,0,6,4.1,8,10.4,1.6,4.9,3.3,11.8,4.9,19.8,3.2,16.5,5.3,34.8,5.3,46.7,0,4.7-.3,8.5-1,11.2-1.2,5.4-4.1,6.6-6.2,6.6Zm-11-85.9c-3.13,7.62-3.72,66.74,10.2,78.7,4.24-9.46-4.56-67.88-10.2-78.7Z" fill="#050200" />
    <path d="M295.72,46.97c-7.7,0-21.3,87.7-11,87.7,17.3,0,21-87.7,11-87.7Z" fill="#eaa1d0" />
    <path d="M284.72,138.17c22.45-1.04,20.9-78.13,18.6-84.1-.6-2.9-2-10.6-7.6-10.6-3.8,0-6,4.1-8,10.4-1.6,4.9-3.3,11.8-4.9,19.8-3.2,16.5-5.3,34.8-5.3,46.7,0,4.7,.3,8.5,1,11.2,1.2,5.4,4.1,6.6,6.2,6.6h0Zm11-85.9c3.13,7.62,3.72,66.74-10.2,78.7-4.24-9.46,4.56-67.88,10.2-78.7Z" fill="#050200" />
    <path d="M199.72,149.07c8.01,0,14.5,6.49,14.5,14.5-.76,19.23-28.24,19.23-29,0,0-8.01,6.49-14.5,14.5-14.5Z" fill="#050200" />
    <path d="M204.82,155.07c6.61,.2,6.61,9.8,0,10-6.61-.2-6.61-9.8,0-10Z" fill="#fff" />
    <path d="M197.52,165.67c3.56,.09,3.56,5.31,0,5.4-3.56-.09-3.56-5.31,0-5.4Z" fill="#fff" />
    <path d="M280.82,149.07c8.01,0,14.5,6.49,14.5,14.5-.76,19.23-28.24,19.23-29,0,0-8.01,6.49-14.5,14.5-14.5Z" fill="#050200" />
    <path d="M275.82,155.07c6.61,.2,6.61,9.8,0,10-6.61-.2-6.61-9.8,0-10Z" fill="#fff" />
    <path d="M283.02,165.67c3.56,.09,3.56,5.31,0,5.4-3.56-.09-3.56-5.31,0-5.4Z" fill="#fff" />
    <path d="M230.52,177.77h6.1v6.05c2.33,0,4.67,0,7,0v-6.06h6.5c4.61-.19,4.62-6.81,0-7h-19.6c-4.61,.19-4.62,6.81,0,7Z" fill="#050200" />
    <path d="M324.51,181.51c-3.06-14.11-11.04-27.23-21.42-37.28,.11-.15,.22-.31,.33-.46,4.48-7.99,16.19-31.6,16.19-56.6,0-14.1-4.3-66.7-25.1-66.7-28.5,2.52-27.76,83.44-30.25,102.93,0,0-7.02-1.74-16.19-2.32-8.27-.51-13.71-.26-20.7,.15-5.01,.29-7.55,.7-12.22,1.9-1.08-9.96-1.03-34.51-4.7-57.29-3.7-23.04-10.69-44-24.95-45.37-20.9,0-25.1,52.6-25.1,66.7,0,25.29,12.25,49.23,16.55,57.04-.09,.09-.23,.24-.32,.32-.19,.18-.14,.16-.35,.35,0,0-.28,.28-.27,.28-23.02,23.21-24.69,50.19-18.96,72.34,5.29,20.43,18.73,32.21,35.03,40.25,2.35,1.16,5.61,2.51,6.82,2.97s3.91,1.74,9.14,3.34c11.06,3.38,21.12,3.75,33.32,3.75,17.47,0,23.17-2.36,31.69-4.3,0,0,2.9-1.04,5.43-2.02s9.08-3.89,9.08-3.89l5.66-3.08c8.7-4.6,16-11.1,21.9-19,10.63-15.15,13.17-36.2,9.4-54Zm-9.49,38.2c-2.42,7.16-11.11,19.29-18.08,24.25-15.69,11.16-29.12,16.74-57.81,17.46-22.98-.85-32.19-3.74-50.75-13.2-10.95-5.58-20.35-18.41-23.53-31.96-2.3-9.8-8.72-38.95,15-65.06,4.26-4.69,4.78-5.45,3.63-8.04-.32-.73-3.13-6.13-3.13-6.13,0,0,0,0,0,0-5.62-12.58-13.59-28.2-12.9-47.83,.85-23.99,2.52-59.61,18.28-60.65,9.13-1.07,16.1,21.34,18.52,42.18,1.57,13.56,4.87,54.97,4.87,54.97,0,0,.06,1.4,.2,2.91s1.74,2.61,4.71,1.73c.71-.21,1.97-.48,1.97-.48,0,0,3.46-.91,7.22-1.56,2.73-.47,5.29-.66,9.81-.9,3.86-.2,10.93-.28,15.32,.17,5.36,.55,12.74,2.26,12.74,2.26l3.22,.84,1.45,.41s1.95,.54,2.93,.25c.72-.24,1.49-.92,2-2.15v-.02l.41-1.47c.38-.58,1-31.62,3.07-49.1,3.14-26.42,11.79-51.26,20.03-51.12,10.5,.18,19.09,36.85,19.09,60.85s-12.96,44.79-16.23,50.61h0l-1.1,1.71c-.63,.96-1.39,2.7-1.57,4.01,.04,.9,.71,1.5,1.18,2.3,.63,.83,1.86,1.37,2.48,2.12,.29,.28,.66,.58,.96,.88,3.51,3.55,7.03,6.65,10.22,12.61,2.23,4.17,7.17,14.4,7.95,20.74,1.73,14.06,2.55,22.43-2.17,36.4Z" fill="#050200" />
    <path d="M238.4,182.7c8.8,.3,15.8,.5,22.9,.7,3.9,.1,7.8,.1,11.6,.5,6.5,.6,12.9,1.3,19.4,2.1,3.4,.4,5.4,2.7,6.3,5.9,2.3,9.1,1.5,18-1.9,26.7-4,10.2-11.2,17.8-20,24-4.6,3.3-9.6,5.8-15.1,7-4,.9-8.1,1.4-12.2,1.8-4.3,.4-8.7,.7-13,.5-7.2-.4-14.4-1-21.3-3.4-7.1-2.5-13.1-6.8-18.7-11.8-8.2-7.3-13.4-16.4-15.4-27.2-1.1-5.9-.8-11.8,.7-17.6,1-3.7,3.4-5.7,7.1-6.1,5.5-.6,10.9-1.4,16.4-1.7,11.5-.6,23.2-1,33.2-1.4h0Zm1.7,8.4c-4.4,0-8.9-.1-13.3,0-5.9,.2-11.8,.5-17.7,.9-5.5,.4-11.1,.9-16.6,1.4-1.9,.1-3,1-3.5,2.8-.1,.6-.3,1.2-.4,1.7-.7,7,.1,13.7,3.5,20.1,5.9,11,14.6,18.9,26.4,23.1,5.8,2.1,11.7,2.6,17.8,2.8,6.3,.1,12.6,.2,18.7-1.1,12.7-2.5,22.6-9.3,29.9-19.9,4.4-6.4,7.1-13.3,6.7-21.2-.1-2.1-.5-4.2-.9-6.2-.2-1.1-1.1-1.9-2.4-2-4.1-.4-8.3-.8-12.4-1.2-11.9-.8-23.8-1.5-35.8-1.2h0Z" fill="#050200" />
  </g>
</svg>