<svg xmlns="http://www.w3.org/2000/svg" viewBox="0 0 480 480">
  <g>
    <g>
      <path d="M301.26,274.12c-9.04-1.79-15.4-8.48-18.42-12.5,2.57-1.79,4.91-3.46,7.14-5.13,3.46,4.47,6.59,8.93,8.71,12.39,1.23,2.12,2.12,3.91,2.57,5.25h0Z" fill="#2e2e2e" />
      <path d="M311.86,261.5c-.12,0-.36,.12-.6,.12-2.63,.24-7.9-1.2-12.81-3.71-1.2-1.68-2.27-3.11-3.35-4.43-.36-.48-.6-.84-.96-1.2h0c.24-.24,.6-.48,.84-.72,5.27,2.27,10.29,4.91,13.52,7.18,.24,.24,.6,.36,.84,.6h0c1.2,.84,1.91,1.56,2.51,2.15h0Z" fill="#2e2e2e" />
    </g>
    <path d="M318.9,226.1c.9-1.6,.6-3.6-.6-5s-3.1-1.9-4.9-1.3c-9.4,3.3-42.3,14-72.8,14s-64.6-10.7-74.3-14c-1.8-.6-3.7-.1-4.8,1.4-1.2,1.4-1.4,3.4-.5,5,17.8,32.5,71.9,55.1,78,57.5,.5,.2,1.1,.3,1.7,.3s1.1-.1,1.7-.3c14.2-5.7,25.9-11.8,35.5-17.9,3.2,4.4,10.4,12.2,21.1,14.2,.8,.2,1.6,.2,2.3,.2,3,0,4.6-1.4,5.4-2.8,1.4-2.4,1-5.6-1.4-10.2,1.3,.3,2.6,.4,3.9,.4,2.3,0,4.5-.5,6.2-2,1.8-1.5,2.6-3.5,2.2-5.6-.8-5-8.7-9.7-15.6-12.8,10.1-9.5,15-17.4,16.9-21.1h0Zm-18.6,47.1c-8.1-1.6-13.8-7.6-16.5-11.2,2.3-1.6,4.4-3.1,6.4-4.6h0c3.1,3.9,5.9,8,7.8,11.1,1.1,1.9,2,3.5,2.3,4.7h0Zm7.4-14.8c.2,.2,.5,.3,.7,.5h0c.9,.7,1.6,1.2,2,1.8h0c-.1,0-.3,.1-.5,.1-2.2,.2-6.6-1-10.7-3.1-1-1.4-1.9-2.6-2.8-3.7-.3-.4-.5-.7-.8-1h0c.2-.2,.5-.4,.7-.6,4.5,1.9,8.7,4.1,11.4,6h0Z" fill="#040200" />
    <path d="M294.1,240.9l-5.8,6.9s-6.4-.4-9.3-.4-5.2-1.4-6.6,2.1c-1.4,3.4-3.8,8.7-3.8,8.7l-6.2,2.7s2.9-10.1-3.2-10.1c-5.2,0-5.2,12.5-5.2,12.5,0,0-3.3,1-9.9,2,0-3.4,1.2-12.5-4.1-12.5-6,0-4,12.6-4,12.6l-10-2.1s-.4-12.6-5.1-12.6c-6,0-3.2,10.3-3.2,10.3l-6.4-3s-1.9-4.9-3.1-7.3c-1.2-2.4-2.1-3.9-4.7-3.9s-12,.9-12,.9l-5.7-6.9,4-5.7s16.8,4.2,40.7,5.4v1.9c0,1.2,1.2,4.6,5.3,4.6s3.3-.6,4.3-.6,.9,.6,4.1,.6c2.8,0,4.9-.6,5.4-6.3,25.5-.8,41.1-5.5,41.1-5.5l3.4,5.7Z" fill="#fff" />
  </g>
</svg>