<svg xmlns="http://www.w3.org/2000/svg" viewBox="0 0 480 480">
  <g>
    <path d="M309.2,229.9c-7.7,10.9-26.5,31.2-68.4,48.2-7.2-3-51.1-22.1-69.9-48.2,14.5,4.5,43.4,12.2,69.9,12.2,26.3-.1,54.2-7.7,68.4-12.2h0Z" fill="#fff" />
    <path d="M290.06,257.89c5.38,6.78,9.8,13.78,10.87,17.12-8.72-1.72-14.86-8.29-17.76-12.06,2.48-1.72,4.74-3.34,6.89-5.06h0Z" fill="#2e2e2e" />
    <path d="M310.86,262.16c-2.02,.53-7.23-.85-11.8-3.19-1.38-1.91-2.76-3.61-3.83-5,.21-.21,.53-.43,.74-.64,6.8,2.98,13.08,6.7,14.88,8.82Z" fill="#2e2e2e" />
    <path d="M318.9,227.3c.9-1.6,.6-3.6-.6-5s-3.1-1.9-4.9-1.3c-9.4,3.3-42.3,14-72.8,14s-64.6-10.7-74.3-14c-1.8-.6-3.7-.1-4.9,1.4-1.2,1.4-1.4,3.4-.5,5,17.8,32.5,71.9,55.1,78,57.5,.5,.2,1.1,.3,1.7,.3s1.1-.1,1.7-.3c14.2-5.7,25.9-11.8,35.5-17.9,3.3,4.4,10.4,12.2,21.1,14.2,.8,.2,1.6,.2,2.3,.2,3.1,0,4.6-1.4,5.4-2.8,1.4-2.4,1-5.6-1.4-10.2,1.3,.3,2.6,.4,3.9,.4,2.3,0,4.5-.5,6.2-2,1.8-1.5,2.6-3.5,2.2-5.6-.8-5-8.7-9.7-15.6-12.8,10.2-9.5,15.1-17.4,17-21.1Zm-123.9,25.4c-4-2.9-8-6-11.6-9.3l6.2-5.6,5.4,14.9h0Zm1.5-16.1c4.2,.9,8.6,1.8,13.1,2.6l-7,13.9-6.1-16.5Zm17.5,9.2l6.7,22.7c-4.4-2.3-9.2-5-14.1-8.1l7.4-14.6h0Zm5.8-5.2c5.3,.7,10.6,1.1,15.9,1.3l-8.8,22.6-7.1-23.9h0Zm46.7,5.1l8.7,14.8c-4.4,2.8-9.2,5.6-14.5,8.3l5.8-23.1h0Zm-11.8,18.3l-8.8-22.1c4.9-.2,9.8-.6,14.7-1.2l-5.9,23.3h0Zm16.1-24.7c4.7-.8,9.3-1.7,13.7-2.7l-5.5,16.6-8.2-13.9h0Zm20.8-1.8l6.6,5.1c-3.2,3.1-7,6.5-11.6,10l5-15.1Zm11.4,0l-5.5-4.2c4.4-1.2,8.4-2.4,11.6-3.4-1.5,2.2-3.5,4.7-6.1,7.6h0Zm-132.1-7.7c3.5,1.1,7.9,2.4,12.9,3.7l-5.5,5c-2.8-2.8-5.3-5.7-7.4-8.7Zm69.9,48.2c-1.6-.7-5.2-2.2-9.8-4.4l9.9-25.5,10.2,25.5c-3.4,1.5-6.8,3-10.3,4.4h0Zm43-14.8c2.3-1.6,4.4-3.1,6.4-4.6,5,6.3,9.1,12.8,10.1,15.9-8.1-1.7-13.8-7.8-16.5-11.3Zm26.6-1.3c-1.9,.5-6.8-.8-11.1-3-1.3-1.8-2.6-3.4-3.6-4.7,.2-.2,.5-.4,.7-.6,6.4,2.8,12.3,6.3,14,8.3Z" fill="#040200" />
  </g>
</svg>