<svg xmlns="http://www.w3.org/2000/svg" viewBox="0 0 480 480">
  <g>
    <path d="M310.42,228.26c-7.84,11.23-26.97,32.16-69.61,49.68-7.33-3.09-52-22.78-71.13-49.68,14.76,4.64,44.17,12.57,71.13,12.57s55.16-7.94,69.61-12.57h0Z" fill="#fbeb4e" />
    <g>
      <path d="M289.87,256.29c5.89,7.42,10.72,15.08,11.9,18.73-9.54-1.88-16.25-9.07-19.43-13.19,2.71-1.88,5.18-3.77,7.54-5.54h0Z" fill="#fbeb4e" />
      <path d="M311.58,261.66c-2.21,.58-7.89-.93-12.88-3.48-1.51-2.09-3.02-3.95-4.18-5.46,.23-.23,.58-.46,.81-.7,7.43,3.25,14.28,7.31,16.25,9.63Z" fill="#fbeb4e" />
    </g>
    <path d="M318.9,226.5c.9-1.6,.6-3.6-.6-5s-3.1-1.9-4.9-1.3c-9.4,3.3-42.3,14-72.8,14s-64.6-10.7-74.3-14c-1.8-.6-3.7-.1-4.9,1.4-1.2,1.4-1.4,3.4-.5,5,17.8,32.5,71.9,55.1,78,57.5,.5,.2,1.1,.3,1.7,.3s1.1-.1,1.7-.3c14.2-5.7,25.9-11.8,35.5-17.9,3.3,4.4,10.4,12.2,21.1,14.2,.8,.2,1.6,.2,2.3,.2,3.1,0,4.6-1.4,5.4-2.8,1.4-2.4,1-5.6-1.4-10.2,1.3,.3,2.6,.4,3.9,.4,2.3,0,4.5-.5,6.2-2,1.8-1.5,2.6-3.5,2.2-5.6-.8-5-8.7-9.7-15.6-12.8,10.2-9.6,15.1-17.5,17-21.1h0Zm-78.1,50.7c-7.2-3-51.1-22.1-69.9-48.2,14.5,4.5,43.4,12.2,69.9,12.2s54.3-7.7,68.4-12.2c-7.7,10.9-26.6,31.1-68.4,48.2Zm43-14.9c2.3-1.6,4.4-3.1,6.4-4.6,5,6.3,9.1,12.8,10.1,15.9-8.1-1.6-13.8-7.7-16.5-11.3Zm26.6-1.3c-1.9,.5-6.8-.8-11.1-3-1.3-1.8-2.6-3.4-3.6-4.7,.2-.2,.5-.4,.7-.6,6.4,2.8,12.3,6.3,14,8.3Z" fill="#040200" />
  </g>
</svg>