<svg version="1.1" id="Layer_1" xmlns="http://www.w3.org/2000/svg" xmlns:xlink="http://www.w3.org/1999/xlink" x="0px" y="0px" viewBox="0 0 480 480" style="enable-background:new 0 0 480 480;" xml:space="preserve">
	<g>
		<path fill="#EB473D" d="M204.5,287c-0.2,0-0.5,0-0.7-0.1l-11-2c-1.9-0.4-3.2-2.2-2.8-4.1c0.4-1.9,2.2-3.2,4.1-2.8l11,2
		c1.9,0.4,3.2,2.2,2.8,4.1C207.6,285.8,206.1,286.9,204.5,287z" />
		<path fill="#050200" d="M208.9,281.9c-0.2,0-0.4,0-0.7-0.1l-14.9-2.9c-1.9-0.4-3.1-2.2-2.8-4.1c0.4-1.9,2.2-3.1,4.1-2.8l14.9,2.9
		c1.9,0.4,3.1,2.2,2.8,4.1C212,280.7,210.6,281.9,208.9,281.9z" />
		<path fill="#050200" d="M206.4,293.5c-0.3,0-0.5,0-0.8-0.1c-6.5-1.5-18.1-2.3-18.2-2.3c-1.9-0.1-3.4-1.8-3.2-3.7s1.8-3.4,3.7-3.2
		c0.5,0,12.2,0.9,19.2,2.5c1.9,0.4,3.1,2.3,2.6,4.2C209.4,292.4,208,293.5,206.4,293.5z" />
	</g>
</svg>
