<?xml version="1.0" encoding="UTF-8"?>
<svg id="_d3b8ea4173b8e5fdc6ad226c3fdabfa3fc1cd61" data-name="4d3b8ea4173b8e5fdc6ad226c3fdabfa3fc1cd61" xmlns="http://www.w3.org/2000/svg" viewBox="0 0 480 480">
  <g>
    <path d="M354.29,193.81c-1.79-3.6-8.27-6.28-11.48-8.29-4-2.52-8.01-5.13-10.61-9.18-1.24-1.93-.02-4.33,1.68-5.4,4.09-2.58,8.52-4.57,12.54-7.27,1.04-.69,4.84-2.85,4.87-4.33,0-.15-.24-.35-.61-.57-4.24,4.17-16.32-2.32-20.45-3.94-.32-.13-.59-.28-.85-.46-5.97-2.18-9.45-8.93-13.87-13.23-2.92-2.84-5.54-5.84-6.11-10.07-.48-3.57,1.58-5.2,3.73-7.7,.66-.77,3.28-3.61,3.02-4.87-.26-1.25-5.18-1.26-6.54-1.37-5-.37-10.04-.23-14.98-1.2-4.59-.9-9.76-2.65-12.79-6.24-4.35-1.39-8.71-2.44-13.42-2.03-5.92,.51-11.37,2.89-16.39,5.93-3.31,2-6.55,3.58-9.84,4.29-.14,.14-.28,.27-.41,.4-.13-.08-.26-.16-.39-.25-3.71,.65-7.51,.15-11.56-2.14-1.72-.97-3.1-2.2-4.33-3.54-4.65-2.57-8.12-6.62-11.5-10.69-.1-.12-.17-.25-.25-.37-1.16,.59-1.93,2.32-2.87,3.98-1.81,3.21-4.06,5.48-7.66,6.62-4.27,1.35-8.95,1.13-13.33,2.1-3.71,.83-7.24,2.16-10.53,4.08-6.65,3.89-11.59,10.08-14.68,17.07-2.84,6.42-4.05,13.35-12.03,14.83-3.12,.58-14.98-1.25-12.26,4.31,2.31,4.72,7.66,8.99,12.23,11.41,2.97,1.58,2.15,6.82-1.22,7.29-12.07,1.69-13.23,17.56-11.19,26.83,.72,3.29,1.36,6.61,1.2,9.99-.15,3.37-1.06,6.67-1.18,10.05-.21,5.8,2.49,12.35,5.86,17.39,.9,.3,1.71,.88,2.24,1.79,1.99,3.39,5.59,5.32,7.79,8.55,2.06,3.02,2.74,6.44,3.41,9.97,.6,3.15,.78,6.65,4.5,4.9,2.54-1.2,4.67-3.62,6.22-5.89,1.63-2.38,5.58-2.61,6.93,.26,1.87,3.97,2.11,7.36,1.17,10.96,2.77,.54,4.7-.76,7.35-3.32,2.02-1.95,6.23-.98,6.6,2.05,.2,1.58,.42,5.86,2.28,6.46,.26,.08,.5,.19,.72,.31,.41-.99,.36-2.17-.25-3.2-.5-1-1-1.9-1.3-3-1.06-3.51-.52-7.07-.02-9.24-.05-.02-.1-.05-.16-.07-.19-.08-.38-.17-.57-.26l-.07-.04c-.15-.08-.31-.16-.46-.25-.33-.17-.65-.35-.97-.53-.77-.35-1.45-.65-1.61-.74-.28-.15-1.87-.86-3.06-1.48-1.33,1.87-4.03,5.68-6.67,8.8,.9-5.2,1.1-9.1,.4-11.9-.4-2-1.2-3.2-2.1-4.1,3.1-2.6,7.5-7.5,8.2-15,4.3,2.9,8.1,6,8.7,7.5,.2,3.7,2.7,5.4,5,5.4h.1c3.8,0,7.9-4.3,8.5-13.9,.4-6.9-3.23-11.3-6.13-15.4-1-1.4-2.42-3.22-3.22-4.62-1.2-2.2-1.66-4.16-1.86-6.26-.3-3.7,1.89-7.73,5.39-11.23,4.7-4.8,11.81-7.59,18.41-7.09,12,.9,15.11,6.21,15.31,6.51v-.1c.1,.2,.2,.3,.3,.5,1.1,1.6,3.3,1.9,4.9,.8,4.9-3.5,19.3-12.7,27-13.5,.4,0,1.89-.14,2.69,.86,1.2,1.5,1.54,5,.74,9-1,4.1,.01,8.13,2.21,11.73,1.8,2.9,4.76,6.91,11.56,8.41h.1c.2,.1,.4,.1,.6,.1,.4,0,.8-.1,1.2-.2,.1,0,.1-.1,.2-.1,.2-.1,.3-.1,.4-.2,.07,0,.13-.03,.2-.1,.1,0,.2-.1,.3-.2l.5-.5c0-.1,.1-.1,.1-.2,.1-.2-.53-.36-.43-.46-.63-.06,.15-.11,.15-.21,0-.2,.09-.22,.09-.42v-.45c.1-.2,.06-.31,.06-.51l-.18-.64c-.1-.7-1.38-14.23,5.22-17.53,2.3,1.2,7.39,5.03,8.59,10.23,1.1,4.9-.87,11.8-6.67,18.4h0c-3.9,6.3-4.66,10.85-3.06,15.45,.5,1.6,1.02,3.58,2.02,4.78-1.8,4-4.38,12.18-2.18,20.38-2.9,4.7-7.19,10.18-8.29,11.08-1.5,1.1-1.77,2.29-.67,3.89,0,.01-.01-.02,0,0,3.68-3.82,5.73-8.01,11.03-9.94,1.7-.62,3.62,.67,4.44,2.04,.76,1.27,4.42,5.44,6.28,4.97,.33-.08,1.5-4.76,1.84-5.86,1.99-6.24,5.99-11.75,9.84-16.96,4.4-5.96,8.66-12.03,13.2-17.88,4.03-5.2,7.6-10.33,8.46-17.01,.58-4.53,1.51-7.43,5.58-10.01,2.87-1.82,11.27-4.56,9.06-9.01l.05,.02v-.02Z" fill="#d9875d" />
    <path d="M205.1,231.2c-.6,10.9-6.4,12.9-6.6,8.4-.2-4.4-15.5-13.5-16-13.7,.1,.5,.2,1.1,.3,1.8,1.6,13-9.5,19-9.5,19-.3,9.3-12.2,17-12.2,17,.5-1.6,3.7-11.1-9-24-1.4-1.3-2.6-2.6-3.7-3.9,0-4.6-.2-9.8-.6-12.2-.1-.8-.1-1.6,.2-2.4,1.6-4,7-3.6,8.4,8.2,0,0,3.2-4.1,5.2-4.9,.2-.1,.4-.1,.6-.1,1.8,.1,2.7-5.1,4.7-5.1s-3.1-12.2,10.3-8.2l.5,.5c1.8,2.3,4,7.2,4,7.2,0,0,1.1-5.4,2.4-6-1.3-4.1,2.7-12.7,9.2-3.3,1.2,1.8,2.4,3,3.5,3.7,3.5,5.9,8.8,10.1,8.3,18h0Z" fill="#e19f69" />
    <path d="M172.9,185.2s-14.9,10.8-2,13.7c1.3,0,4.5,2.2,7.2-2.6l2.7-4.8,.9-2.9-8.8-3.4h0Z" fill="#b66f4b" />
    <path d="M160,171.9s8.8,1.1,.8,8.8c-2.1,4-2.6,3.8-4,5.4l-.3,.4c-.9,1-2.5,1.3-3.6,.5-.5-.4-.9-.9-.9-1.7-2.4-.2-7.5-4.5-3.6-8.7l3.9-4.2,7.7-.5h0Z" fill="#b66f4b" />
    <path d="M191.7,174.9s6.6-10.3,11.4-3.1c2.9-4.1,15.3-7.6,5.9,8.9-2.4,4.6-3.8,6.5-3.8,6.5l-15.3,3.2-13.3-6.2,15.1-9.3h0Z" fill="#e19f69" />
    <path d="M165.2,147.4s5.4,2.8,5.5,4.3c0,0,5.4-1.5,6,3s-6,5.6-7.6,7.3l-1.6,1.7s-.5,1.9-.3,2.5c.2,.5-8.8,2.6-9.1,2.3s-13.5-11.2-13.5-11.2l-2.8-5.5,23.4-4.4h0Z" fill="#e19f69" />
    <path d="M222.8,172.1s-8.9-5.9-.8-9c0,0,2.8-.8,4.2,.7,.7,.2,.7-9.1,8.9-.3l1.1-2.6s-6.3-3.2-8.8-8l-6.3-.6-7.1-1.5s-7.4-3.9-5.5-7.2c0,0-9.9-6.1,4.7-8,0,0,.2-6.3,4.1-6.7,2.4-.3,15.6,8.6,15.6,8.6,0,0,3.7,3.6,4.1,4.2,.4,.6,4.3-10.2,7.3-10.4s2.7,1.3,3.5,1.6c.6,1,1.4-2.5,4.8-3.9,0,0-2.6-3.2-2.4-3.8,.2-.6-3.3-4.2-3.3-4.2l7-8h5.4s3.5,.4,3.2,4c0,0,4.7-1.4,5.5,6.8l-17.8,18.7s-4.2,14.9-3.3,16.2c2.6-8.7,13.3-5.1,7.4,2.6,0,0,5.4,.1,4.8,4.7,0,0,20.1-8.2,7.1,7.2l-16.6,8.8-14.6,3.9-12.2-4.7-5.8-3.6,5.8-5.5Z" fill="#b66f4b" />
    <path d="M259.5,138s-.3,3.9,.7,5c1,1-4,2.2,0,7.2,2.3,2.1,8-3.5,8-3.5l7.2,.1,1.4-17.1-3.3-4.1-6.6,2.4-7.4,10h0Z" fill="#e19f69" />
    <path d="M227.4,119.3s12.9,6.1,10,10.2c-2.9,4.1-9.3,1-11.9,.7l-2.6-.3-10.6-7.4-1.7-15.6s7.4-3.9,10.7,2.4c3.3,6.2,6.1,10,6.1,10Z" fill="#e19f69" />
    <path d="M208.7,117.9l-6.6-2.9s-9.2,4.2-2.5,8.6c0,1.1,2.5,2.8,2.5,2.8l6,1.2,2.5-2-1.9-7.7Z" fill="#b66f4b" />
    <path d="M294.9,118.2s-12.6,3.8-10.1,10.1c0,0,3.3,4.2,8.9-.6,1.2,2.3,3.4,3.6,4.4,3.6h1.6l7.7-1.7,5.6-6v-5.4l-2.7-1.6h-7.1c-1.3,.7-8.3,1.6-8.3,1.6Z" fill="#e19f69" />
    <path d="M330.7,170.7l15.9-6.4-1.1-5.3-5.2-1.9s-16.8,1.4-21.9-1.4c-1.4-.8-3.2-.8-4.5,.2-1.8,1.3-2.6,3.9,3.9,8.4" fill="#e19f69" />
    <path d="M289.1,143.6s4.1-8.8-5.1-9.5l-4.3-2.9-1.8,5.5,3.4,4.4s-.7-1.4,.9,.4c1.5,1.9,6.9,2.1,6.9,2.1Z" fill="#b66f4b" />
    <path d="M289.6,153.9c-5.2-1.8-11.2-1.8-9.4,5.9,5.6,3.1,15.4,7.2,15.4,7.2l-1.6-2.6s5.1,1.4,4.7-1.4c-.4-2.8,5.7,2.9,5.4-2.6-.3-5.5-1.3-5.4-.3-5.5l1-.1s-17.5-7.7-15.2-.9h0Z" fill="#b66f4b" />
    <path d="M289,174.1s-9.2-6.9-7,4.6c.2,1.3-4,7.9-4,7.9-3.1,1.5-3.1-1.7-3.1-1.7l.8,10.7s-.1,.4,0,2.1,4.7,7.2,4.7,7.2l4.9-3.9,4.1-7.2,2.9-5.9,1.6-3.3c.1,.1,2-13.9-4.9-10.5h0Z" fill="#e19f69" />
    <path d="M307.1,176.4c2.8-.3,4.9,3.3,6.2,5.7s1.3,2.4,1.3,2.4h0l4.9,4.9s-6.2,2.2-6.9,1.7-1.9,5.6-4.6,5c-2.7-.5-6.6-7.6-6.6-7.6,0,0-5.5-4-5.1-4.7,.4-.6,.6-8.7,.6-8.7,0,0-.2-19.5,10.2,1.3h0Z" fill="#b66f4b" />
    <path d="M320.8,182.8s1.3-6.9,6.1-2.9c0,0,4.4,6.1,10.5,4.9,4.6,4.2,15.5,8.9,15.5,8.9l-9.3,7s-12.9,1.2-14.1,.6c-1.2-.5-2.6-1.1-2.6-1.1l-4.8-6.3-1.3-11.1h0Z" fill="#e19f69" />
    <path d="M328.2,207.6s.9,11.2,7.2,7.4c0,0,1-6.5-3.6-10l-3.6,2.6Z" fill="#b66f4b" />
    <path d="M313.7,208.5s5.2-3.6,7.1,2.3c-1.6,4.9-.4,4.6,0,6.2s-4.2,6.6-4.2,6.6l-6.3,8.8-4.9,5.9-6.1-2.8s-2.8-6.6-3.2-7c-.4-.3,2.6-9.4,2.6-9.4,0,0,12.5-14.1,15-10.6Z" fill="#e19f69" />
    <path d="M316.4,226.8s8.5-1.1,7.1,6.2c-1.3,3.1-3.3,3-3.3,8.8-.1,1-5.4,8.2-5.4,8.2l-1.5,1.3s-2,8.1-2.6,8.8c-.5,.6-5.1,7.7-5.1,7.7,0,0-5-7.3-5.6-8s-4.9-9-4.9-9l3.8-11.2,10.3-3.9,7.2-8.9h0Z" fill="#e19f69" />
    <path d="M293.63,250.8l-4.42,1.9c-.13,.87-.36,1.67-.99,2.34h.02l.09,.27s-.16,.12-.43,.27l-.07,.11c-.52,.83-8.19,4.35-9.14,4.07h-.04c-.4,.18-.86,.39-1.34,.61l7.52,13.92,6.89-6.81,3.37-10.21-1.47-6.47h.01Z" fill="#d9875d" />
    <path d="M200.72,260.65s.02,.02,.02,.03l-.26-.14c-.1-.05-.2-.09-.29-.14-.85-.4-1.69-.83-2.51-1.28-.26-.1-.53-.23-.8-.38-.35-.09-.71-.17-1.06-.25-.05,.06-.12,.09-.16,.16l-.32-.17c-.12-.06-.26-.13-.44-.21-.18-.05-.35-.11-.53-.18v.18c0-.06-.12-.17-.32-.3-.15-.06-.29-.13-.43-.2-.19-.08-.38-.17-.57-.26l-.07-.04c-.15-.08-.31-.16-.46-.25-.33-.17-.65-.35-.97-.53-.77-.35-1.45-.65-1.61-.74-.45-.24-4.41-1.98-4.39-2.39v-.02c-.06-.03-.13-.07-.19-.1-1.84-.88-3.91-1.93-3.89-2.29,.05-.91,.23-1.79,.48-2.64-2.31-1.76-4.18-3.32-4.18-3.32l-.56,4.62-1.79,14.85,1.12,1.15,4.82,4.9,2.02-1.44,4.48-3.17,3.25,6.78,.9-.14,3.36-.72,5.23-10.85c.06-.16,.11-.33,.19-.51l-.05-.02h-.02Z" fill="#d9875d" />
    <g>
      <path d="M248.09,155.8c.45-1.77,1.2-3.92,2.49-6.17,3.09-5.4,7.51-8.3,9.92-9.62l.3-.2,.3-.2c5.8-4.6,9.3-8.9,11.3-12.1,1.8,4.1,2.6,11.8-5.6,24.7-1,1.6-.6,3.8,1.1,4.8,.6,.4,1.2,.6,1.9,.6,1.2,0,2.3-.6,3-1.6,2.3-3.6,4-7,5.3-10.1,5.8,.7,20.6,3.5,24,13.2,.5,1.4,1.9,2.3,3.3,2.3,.4,0,.8-.1,1.2-.2,1.8-.6,2.8-2.6,2.1-4.5-4.6-12.6-20.9-16.4-28.6-17.5h0c3-14.5-5.9-20.8-6.5-21.1-1.6-1.1-3.8-.7-4.9,.9-.3,.4-.5,.9-.5,1.3-.4,1.2-2.6,6.9-11.1,13.5-10.65,8.08-16.68,15.65-16.09,21.1,.94,5.64,5.89,3.8,7.09,.9Z" fill="#050200" />
      <path d="M357.3,191.49h0c-1.1-1.69-2.8-2.89-4.9-3.39-4.68-1.1-12.44-7.85-18.73-14.23-.03-.03-.01-.08,.03-.09,12.24-2.44,20.4-13.18,20.8-13.68,0-.1,.1-.1,.1-.2,.1-.1,.1-.2,.2-.3,0-.1,.1-.2,.1-.3s.1-.2,.1-.3,0-.2,.1-.3v-1c0-.1,0-.2-.1-.3,0-.1-.1-.2-.1-.4,0-.1-.1-.2-.1-.2-.1-.1-.1-.3-.2-.4,0-.1-.1-.1-.1-.2-.1-.1-.2-.3-.3-.4l-.5-.5s-.1,0-.1-.1c-.1-.1-.3-.2-.5-.3-.07,0-.13-.03-.2-.1-.1-.1-.3-.1-.5-.2h-.2c-.2,0-.3-.1-.5-.1h-.6c-2,.2-5.4-.2-9-.6-1.5-.2-3-.4-4.5-.5h-.3c-6.9,0-9.6-1.3-15.2-7.6-1.4-1.6-2.7-3.3-3.7-5.1-2.09-3.68-4.97-7.26-7.17-9.76-.02-.02-.02-.06,0-.08,7.26-6.59,8.56-14.96,8.66-15.46,.2-1.5-.5-2.8-1.7-3.5l-.6-.3h-.2c-.2,0-.3-.1-.5-.1h-.8c-.4,0-.9,.1-1.3,.3-.1,0-5,2.3-14,2.1-6.4-.2-9.9-2.1-13.9-4.3-4.1-2.3-8.8-4.8-16.6-5.2-12.27-.5-23.85,9.46-28.47,14.07-.02,.02-.05,.02-.07,0-1.09-.69-2.17-1.38-3.16-1.98-2-1.2-4.1-2-6.2-2.3-8.1-1.3-15.6-12.5-17.8-16.7,0-.1-.1-.1-.1-.2-.1-.1-.1-.2-.2-.3-.1-.1-.1-.2-.2-.2-.1-.1-.2-.2-.2-.3-.1-.1-.2-.2-.3-.2s-.1-.1-.2-.1h-.1c-.1-.1-.2-.1-.3-.1-.1-.1-.2-.1-.3-.1s-.2-.1-.3-.1-.2-.1-.4-.1h-.6c-.1,0-.2,0-.3,.1-.1,0-.2,0-.3,.1-.1,0-.2,.1-.3,.1s-.2,.1-.4,.1h-.1c-.1,0-.1,.1-.2,.1-.1,.1-.2,.1-.3,.2s-.2,.1-.2,.2l-.2,.2c-.1,.1-.2,.2-.2,.3s-.1,.1-.1,.2c0,0,0,.1-.1,.1-2.59,4.28-3.59,8.46-3.6,12.44,0,.03-.03,.06-.06,.05-7.42-.8-22.17-1.07-33.14,7.41-7.99,6.19-12.39,15.68-13.2,28.26,0,.02-.02,.04-.04,.05-6.09,2.29-13.38,3.78-19.57,1.49-.2-.1-.4-.1-.6-.1h-.4c-.4,0-.7,0-1,.1h-.1c-.2,0-.3,.1-.5,.2-.1,0-.2,.1-.2,.1-.1,.1-.2,.1-.3,.2s-.2,.1-.2,.2c-.1,.1-.2,.2-.3,.2-.1,.1-.1,.2-.2,.3-.1,.1-.2,.2-.2,.3-.1,.1-.1,.3-.2,.4,0,.1-.1,.1-.1,.2-.1,.2-.1,.4-.2,.7v.3c0,.4,0,.7,.1,1.1,.1,.5,2.98,10.64,17.38,17.34,.05,.02,.05,.08,0,.1-5.26,1.91-10.9,5.2-14.18,10.66-4.1,6.7-3.9,15.1,.6,25,.19,.49,.58,.97,.97,1.28,.02,0,.03,.04,.02,.06-.99,2.59-1.79,5.48-1.99,8.46-.8,8.3,2.1,16.4,8.4,23.9,1.2,1.3,2.5,2.7,3.9,4.1,7,7.2,9.9,14.5,8.1,20.4v.2c0,.1,0,.2-.1,.4v1c0,.1,.1,.2,.1,.3s.1,.2,.1,.3,.1,.2,.1,.3,.1,.2,.2,.3c0,0,0,.1,.1,.1l.1,.1c.1,.2,.2,.3,.4,.5l.2,.2c.2,.2,.4,.3,.6,.5,.2,.1,.4,.2,.6,.2h.2c.3,0,.5,.1,.8,.1h.8c.1,0,.2-.1,.3-.1s.1,0,.2-.1c.1,0,.2-.1,.3-.1s.1-.1,.2-.1,.1-.1,.2-.1c.4-.2,6.59-4.33,10.6-10.54,.03-.05,.1-.03,.1,.02-.02,1.58-.23,3.73-.9,6.71-.1,.3-.1,.6-.2,1-.6,2.6-1.7,7.9,2,9.8,.7,.3,1.3,.5,2,.5,3,0,5.8-3,8.4-6,.4-.5,.8-.9,1.2-1.4,.1,.8,.3,1.6,.6,2.5,.5,1.6,1.2,3.2,2.1,4.6,.7,1.1,1.8,1.7,3,1.7,.6,0,1.3-.2,1.8-.5,1.6-1,2.2-3.2,1.1-4.8-.6-.9-1-1.9-1.3-3-.53-1.79-.68-3.58-.63-5.19,.69,.5,1.47,1.05,2.48,1.71l3.83,.32c.04-.12,1.23-3.34,1.28-3.46l-.05-.02s.02,.02,.02,.03l-.26-.14c-.1-.05-.2-.09-.29-.14-.85-.4-1.69-.83-2.51-1.28-.26-.1-.53-.23-.8-.38l-15.19-14.45h0c2.32-2.78,4.51-6.65,5-11.72,0-.04,.05-.07,.09-.04,4.26,2.88,8.01,5.94,8.62,7.44v.02c.2,3.59,2.7,5.29,5,5.39h.1c3.8,0,7.9-4.3,8.5-13.9,.4-7-2.9-11.6-5.8-15.6-1-1.4-2-2.8-2.8-4.2-1.2-2.2-1.8-4.1-2-6.2-.3-3.7,1.5-7.7,5-11.2,4.7-4.7,11.5-7.3,18.1-6.8,12,.9,15.4,5.9,15.4,5.9l.05,.05s.15,.15,.25,.35c1.1,1.6,3.3,1.9,4.9,.8,4.9-3.5,19.39-12.7,26.99-13.5h0c.31,0,1.5,.2,2.3,1.2,1.2,1.6,1.5,4.6,.7,8.6-1,4-.2,8.4,2,12,1.8,2.9,7.09,7.47,12.19,8.2h0c.08,0,4.39,.28,4.1-4-.29-4.31-1.99-13.77,4.47-17.09,.02,0,.04,0,.05,0,2.31,1.21,7.28,4.51,8.47,9.69,1.1,4.9-1.3,10.7-7.1,17.3l-.4,.5c-4,6.3-5.2,11.8-3.6,16.5,.5,1.59,1.39,2.98,2.38,4.17,.01,.02,.02,.04,0,.06-1.26,2.81-2.95,7.64-3.09,13.09-3.11,1.9-11.56,6.93-15.57,9.35,1.41,.05,1.43,1.97,2.15,3.16,.46,.76,1.72,.76,1.59,1.54l11.68-7.72c.23-.12,.46-.25,.68-.38,.08,.4,.17,.81,.28,1.21v.04c-2.9,4.79-6.49,9.88-7.59,10.78-1.6,1.1-2,3.3-.8,4.9,.7,1,1.8,1.5,2.9,1.5,.7,0,1.4-.2,2-.6,1.89-1.29,4.76-5.35,7.06-9.03,.02-.03,.07-.03,.09,0,2.39,3.17,5.58,5.75,9.75,7.94h.1c.2,.1,.4,.2,.6,.2,.1,0,.2,0,.3,.1,.2,0,.3,.1,.5,.1h.1c.2,0,.4,0,.6-.1h.1c.2,0,.4-.1,.6-.2l.6-.3h.1c.2-.1,.3-.2,.4-.4h.1c.3-.3,.5-.6,.7-.9v-.1c.1-.1,.1-.2,.1-.3s.1-.2,.1-.3v-.8c.1-3.5,1.5-13.4,6.7-16.6,1.3-.8,5.3-3.9,10.2-15.6,.4-1,1.1-1.9,2-2.6,13.07-9.88,14.39-22.54,13.01-30.25,0-.03,.01-.06,.04-.06,8.87-2.1,13.65-4.69,15.15-8.19,.8-2.2,.6-4.3-.6-6.2h.05Zm-171.71,65.04c-1.41,1.95-3.33,4.53-5.26,6.81-.04,.04-.11,0-.1-.05,.85-4.51,1.01-8.02,.56-10.69,1.47,1.33,3.01,2.62,4.79,3.93h.01Zm151.31-56.71h0c-1.98,.1-5.15,.1-6.95,.1-.03,0-.05-.02-.05-.05-2.71-17.16-13.19-22.35-13.69-22.65-1.7-.8-3.8-.1-4.6,1.6-.8,1.7-.1,3.8,1.6,4.7,.4,.2,10.5,5.5,10.3,25,0,1.9,1.5,3.5,3.49,3.5s3.51-1.75,3.51-3.72v-1.32s.03-.06,.06-.06h5.1s.05,.02,.06,.04c.89,4.43,1.35,14.78-10.21,23.46-1.9,1.4-3.4,3.3-4.3,5.5-4,9.6-7,12-7.3,12.2-5.96,3.58-8.47,11.01-9.48,16.4,0,.04-.06,.06-.09,.03-2.56-2.19-4.33-4.76-5.22-7.63-1.59-5.37-.12-10.94,1.18-14.44,.01-.03,.05-.04,.08-.03,1.88,.89,3.66,1.58,5.14,2.17,.5,.2,.9,.3,1.3,.5s.9,.2,1.3,.2c1.4,0,2.7-.8,3.2-2.2,.59-1.49,.11-3.17-1.16-4.07-.02-.02-.03-.04-.02-.07l.78-1.76c.9-1.9,2-3.7,3.3-5.4,4.3-5.4,7-8,8.2-8.7,1.7-.9,2.4-3,1.4-4.7-.9-1.7-3-2.4-4.7-1.4-.9,.5-3.7,2-10.4,10.5-1.6,2.1-3,4.4-4.2,6.8l-.88,1.94s-.05,.04-.08,.03c-2.18-1.1-4.25-2.59-4.95-4.67-1-3.1,.9-7.2,2.8-10.3h0c7.3-8.31,10.1-16.11,8.5-23.3-1.69-7.28-7.56-11.67-11.07-13.78-.02,0-.03-.03-.02-.06,1.2-5.7,2.18-13.98-2.51-20.06-3.9-5-10.8-7.6-20.5-7.7-1.9,0-3.5,1.5-3.6,3.4,0,1.9,1.5,3.5,3.4,3.6,7.5,.1,12.6,1.8,15.1,5,3.09,3.99,2.1,10.48,1.11,15.07,0,.02-.02,.03-.03,.04-7.63,3.49-9.06,12.59-9.07,18.69,0,.05-.05,.07-.09,.05-1.26-.79-2.33-1.87-3.01-3.04-1.3-2-1.7-4.5-1.1-6.7v-.2c1.3-6.4,.5-11.3-2.2-14.6-3-3.7-7.2-3.7-7.7-3.7h-.2c-8.88,.7-22.25,9.07-28.17,12.98-.02,0-.05,0-.07,0-2.81-2.5-8.31-5.77-18.57-6.47-.8-.1-1.6-.1-2.4-.1,1.9-1.2,3.6-2,5.1-2,1.9-.1,3.4-1.8,3.2-3.7-.1-1.9-1.8-3.4-3.7-3.3-5.4,.4-10.6,4.5-16.1,8.8-5.7,4.5-11.6,9.1-16.8,9-4.13-.1-8.16-1.74-11.15-3.51-.05-.03-.03-.1,.03-.1,10.96-.78,14.64-9.13,18.12-17.19,.6-1.3,1.2-2.7,1.8-4.1,3.3-7,17.4-6.8,22.5-6.2,1.9,.2,3.7-1.1,3.9-3,.3-1.9-1.1-3.7-3-3.9-.9-.1-18.99-2.4-27.29,6.49,0,0,0,0-.02,0-15.09,6.5-16.19,7.8-16.69,8.3-1.3,1.4-1.2,3.6,.2,4.9,.7,.6,1.5,.9,2.4,.9,.8,0,1.7-.3,2.4-.9,.69-.49,3.22-1.76,6.36-3.14,.05-.02,.1,.03,.08,.08-3.77,8.3-6.49,11.85-15.64,10.56h-.1c-3.2-.4-4.7,.8-5.5,1.9h0c-.4,.71-1.4,2.51-.1,4.9,2.2,4.2,11.9,10.8,21.6,11h.3c.67,0,1.24-.09,1.9-.1,.04,0,.07,.04,.05,.08-1.57,3.18-2.36,6.65-2.06,9.92,.2,3.2,1.2,6.1,2.9,9.1,1,1.7,2.1,3.3,3.2,4.8,2.7,3.7,4.8,6.6,4.5,11.1-.1,2.14-.48,3.71-.86,4.89,0,.04-.07,.05-.1,0-2.93-4.37-9.86-9.12-15.02-12.19,0,0-.02-.02-.03-.04-.8-3.58-1.9-5.48-2.79-7.08-.9-1.6-1.4-2.6-1.6-5.2-.2-2.07-.1-4.82,.28-8.54,.17-1.66-.73-3.34-2.32-3.89-2.15-.74-4.44,.77-4.67,2.93-.5,4.2-.6,7.5-.3,10,.3,4.1,1.5,6.2,2.5,8,.9,1.6,1.7,3.1,2.3,6.5,.1,.5,.2,1,.2,1.6,.69,5.55-1.46,9.53-3.64,12.03-.03,.03-.08,.02-.09-.02-1.21-2.97-3.28-5.64-5.27-8.21-2.1-2.7-4.2-5.4-5.4-8.6-.3-.8-.5-1.59-.7-2.39v-.02c.2-4.79,1.2-7.39,1.2-7.49,.7-1.8-.2-3.8-2-4.5s-3.8,.2-4.5,2c-.1,.4-1.4,3.9-1.7,10.1v.4l.1,.4c.2,1.3,.6,2.7,1.1,3.9,1.5,4.2,4.1,7.5,6.4,10.5,2.9,3.7,5.1,6.7,5,10.3-.1,3.26-2.25,6.43-4.72,9.11-.03,.04-.09,.02-.1-.03-.93-6.06-4.52-12.32-10.38-18.38l-.1-.1c-1.3-1.2-2.4-2.4-3.4-3.6-5.1-6-7.4-12.3-6.8-18.7,1-11.8,11.3-20.4,11.4-20.5,1.5-1.2,1.7-3.4,.5-4.9s-3.4-1.7-4.9-.5c-.3,.2-4.25,3.56-7.83,8.9-.03,.04-.09,.03-.1,0-2.06-6.05-1.95-11.01,.44-14.89,5.6-9.2,22-10.2,22.2-10.2h.2c.1,0,.3,0,.4-.1,.1,0,.2,0,.2-.1,.1,0,.2-.1,.4-.1,.1,0,.2-.1,.2-.1,.1-.1,.2-.1,.3-.2,.1,0,.1-.1,.2-.1l.4-.4c.1-.2,.3-.3,.4-.5,.1-.2,.2-.3,.3-.5,0-.1,0-.2,.1-.2,0-.1,.1-.2,.1-.3v-1.6c0-.1-.1-.2-.1-.3s-.1-.2-.1-.3c-.1-.1-.1-.2-.2-.3,0-.1-.1-.2-.1-.2-.1-.1-.2-.2-.2-.3l-.2-.2c-.1-.1-.2-.2-.3-.2-.1-.1-.2-.1-.2-.2-.1-.1-.2-.1-.3-.2-.1,0-.2-.1-.2-.1-.1,0-.3-.1-.4-.1s-.1-.1-.2-.1c-11.8-2.3-18.2-6.9-21.6-10.6h1c14.3,0,28.4-9.6,29.1-10.1,1.6-1.1,2-3.3,.9-4.9-1.1-1.6-3.3-2-4.9-.9-.1,0-1.96,1.27-4.9,2.84-.04,.02-.09,0-.09-.06,1.21-8.54,4.61-15,10.08-19.28,9.88-7.68,24.34-6.6,29.77-5.81,.02,0,.04,.02,.04,.04,.79,2.95,1.87,5.61,3.05,7.78,.02,.04,0,.08-.05,.08-10.56,.12-19.11,3.8-19.51,4-1.8,.8-2.6,2.8-1.8,4.6s2.8,2.6,4.6,1.8c.1-.1,11.4-4.9,23-2.9,6,1,11,3.7,15,7.9,.7,.7,1.6,1.1,2.5,1.1s1.7-.3,2.4-1c1.4-1.3,1.5-3.5,.1-4.9-4.8-4.99-10.69-8.19-17.48-9.7,0,0-.02,0-.03-.02-1.41-1.91-4.49-6.5-5.39-12.18,0-.2,0-.3-.1-.5-.29-2.06-.3-4.22,.17-6.37,0-.05,.07-.06,.1-.02,4.01,5.49,10.68,12.91,19.03,14.2,1.2,.2,2.5,.7,3.8,1.4,5.39,3.1,8.39,5.69,9,6.5h0l.7,1.2c.6,1.1,1.8,1.8,3,1.8,.6,0,1.2-.2,1.7-.5,1.7-1,2.3-3.1,1.3-4.8l-.7-1.3h0c-.49-.79-1.38-1.78-2.55-2.86-.02-.02-.03-.06,0-.08,4.42-4.21,13.49-11.66,22.46-11.26,6.2,.3,9.6,2.2,13.6,4.3,4.2,2.3,9,5,17.1,5.1,3.94,.1,7.3-.19,9.98-.68,.05,0,.08,.04,.06,.08-2.12,3.88-6.21,8.52-13.84,10.6-1.9,.5-3,2.4-2.4,4.3,.4,1.5,1.8,2.6,3.4,2.6,.3,0,.6,0,.9-.1,2.48-.7,4.67-1.59,6.56-2.58,.02,0,.05,0,.07,0,1.9,2.1,4.88,5.69,6.77,9.07,1.3,2.2,2.8,4.4,4.6,6.4,6.8,7.6,11.4,9.9,20.2,9.9h0c1.4,.2,2.9,.3,4.2,.5,.8,.1,1.5,.2,2.3,.3-3.4,2.9-8.3,5.9-13.9,6.2-.2,0-.4,0-.7-.1-7.6-2.8-11.8-4.5-12.8-4.9-1.5-.9-3.5-.4-4.6,1-1.1,1.6-.8,3.8,.8,4.9,.4,.3,.8,.6,10.09,4.09,0,0,.02,0,.02,.02,3.52,4.12,18,20.49,28.19,22.79,.1,0,.2,0,.2,.1-.8,.7-4,2.8-14.2,4.7h0Z" fill="#050200" />
    </g>
  </g>
</svg>