<svg xmlns="http://www.w3.org/2000/svg" viewBox="0 0 480 480">
  <g>
    <path d="M273.1,308.2s.5,1,1.4,1.4h-1.5v2.9s4,.8,6.3,3.3,3.8,2.7,3.8,2.7c0,0,3.3,3.9,5.7,4.1,.8,.8,1.2,1.4,1.2,1.4,0,0-.5,.8-4.1,1.1,3.1,3.4,10.6,6.1,10.6,19.4,0,17.4-8.4,14.9-17.6,14.9-16.3,0-24.4,.1-24.4,.1-10.7,0-14.5-6.9-14.5-10v-41.2h33.1v-.1Z" fill="#040200" />
    <path d="M244.4,315.9l21.1-1.1,.2,1.9s-9.7,4.1-9.7,9.1c0,3.1,2.1,4.2,3.8,4.2,4.1,0,5.2-6.7,10.4-6.7,1.1,0,9.7,7.3,9.7,7.3,3.9,3.1,8.6,6.2,8.6,12.9s-1.4,7.6-5.9,7.6h-23.5c-7.3,0-14.1-5.6-14.1-8.6s-.6-26.6-.6-26.6Z" fill="#fbeb4e" />
    <path d="M278.3,341.1c-.8,0-1.5-.2-2.2-.7l-6.4-4.2c-1.8-1.2-2.3-3.7-1.1-5.5,1.2-1.8,3.7-2.3,5.5-1.1l6.4,4.2c1.8,1.2,2.3,3.7,1.1,5.5-.7,1.2-2,1.8-3.3,1.8Z" fill="#fff" />
    <path d="M207,308.2s-.5,1-1.4,1.4h1.5v2.9s-4,.8-6.3,3.3-3.8,2.7-3.8,2.7c0,0-3.3,3.9-5.7,4.1-.8,.8-1.2,1.4-1.2,1.4,0,0,.5,.8,4.1,1.1-3.1,3.4-10.6,6.1-10.6,19.4,0,17.4,8.4,14.9,17.6,14.9,16.3,0,24.4,.1,24.4,.1,10.7,0,14.5-6.9,14.5-10v-41.2h-33.1v-.1Z" fill="#040200" />
    <path d="M235.7,315.9l-21.1-1.1-.2,1.9s9.7,4.1,9.7,9.1c0,3.1-2.1,4.2-3.8,4.2-4.1,0-5.2-6.7-10.4-6.7-1.1,0-9.7,7.3-9.7,7.3-3.9,3.1-8.6,6.2-8.6,12.9s1.4,7.6,5.9,7.6h23.5c7.3,0,14.1-5.6,14.1-8.6s.6-26.6,.6-26.6Z" fill="#fbeb4e" />
    <path d="M201.7,341.1c.8,0,1.5-.2,2.2-.7l6.4-4.2c1.8-1.2,2.3-3.7,1.1-5.5s-3.7-2.3-5.5-1.1l-6.4,4.2c-1.8,1.2-2.3,3.7-1.1,5.5,.8,1.2,2,1.8,3.3,1.8Z" fill="#fff" />
  </g>
</svg>