<svg xmlns="http://www.w3.org/2000/svg" viewBox="0 0 480 480">
  <g>
    <path d="M240,316.2h4.3v6.2h13.2s5.5-6.2,11.3-6.2h7.2l10.6,8.6-.8,.1s10.8,6.9,10.8,17.3c0,1.1,1.9,17-9.7,17h-32.7c-8.4,0-14.2-5.7-14.2-9.8v-33.2Z" fill="#040300" />
    <path d="M287.9,339.4h-43.2v-9.2h16.1c2.7-2,5.4-6.9,9.2-6.9,.7,0,1.9,.8,3.7,2.3,1.6,1.2,3.7,3,6.3,5.1,.2,.2,.5,.4,.7,.6,6.7,5,7.2,8.1,7.2,8.1Z" fill="#2E2E2E" />
    <path d="M280,330.7c-1.8,1.5-5.7,4.6-7.2,4.6-2,0-3.9-1.1-3.9-3.9,0-2.3,3.5-4.9,4.8-5.8,1.6,1.2,3.6,2.9,6.3,5.1Z" fill="#fff" />
    <path d="M248.4,347.4h39.8s.8,3.9-5.6,3.9h-25.1c-4.8,0-9.1-3.9-9.1-3.9Z" fill="#fff" />
    <path d="M240.2,316.2h-4.3v6.2h-13.2s-5.5-6.2-11.3-6.2h-7.2l-10.6,8.6,.8,.1s-10.8,6.9-10.8,17.3c0,1.1-1.9,17,9.7,17h32.7c8.5,0,14.2-5.7,14.2-9.8s0-33.2,0-33.2Z" fill="#040300" />
    <path d="M192.3,339.4h43.2v-9.2h-16.1c-2.7-2-5.4-6.9-9.2-6.9-.7,0-1.9,.8-3.7,2.3-1.6,1.2-3.7,3-6.3,5.1-.2,.2-.5,.4-.7,.6-6.7,5-7.2,8.1-7.2,8.1Z" fill="#2E2E2E" />
    <path d="M200.2,330.7c1.8,1.5,5.7,4.6,7.2,4.6,2,0,3.9-1.1,3.9-3.9,0-2.3-3.5-4.9-4.8-5.8-1.6,1.2-3.6,2.9-6.3,5.1Z" fill="#fff" />
    <path d="M231.8,347.4h-39.8s-.8,3.9,5.6,3.9h25.1c4.8,0,9.1-3.9,9.1-3.9Z" fill="#fff" />
  </g>
</svg>