<svg version="1.1" id="Layer_1" xmlns="http://www.w3.org/2000/svg" xmlns:xlink="http://www.w3.org/1999/xlink" x="0px" y="0px" viewBox="0 0 480 480" style="enable-background:new 0 0 480 480;" xml:space="preserve">
	<g>
		<g>
			<path d="M227.6,264.1h-10.1l-7,14s-2.9,5-2.5,10.9c2.4,4,11.9,6.4,11.9,6.4l7.5-1.5,.8-15.1-.6-14.7Z" fill="#FBEB4E" />
			<path d="M252.4,264.1h10.1l7,14s2.9,5,2.5,10.9c-2.4,4-11.9,6.4-11.9,6.4l-7.5-1.5-.8-15.1,.6-14.7Z" fill="#FBEB4E" />
		</g>
		<path d="M220.7,267.2c-.9,4.2-3.2,9.4-8.6,13.6-.6,.4-1.3,.7-2.1,.7-1.1,0-2.1-.5-2.8-1.4-1.2-1.5-.9-3.7,.6-4.9,3.7-2.8,5.3-6.3,6-9.2,.8-3.2,.4-5.7,.3-5.8-.1-.5,.09,2.59,.19,2.19,2.2,.5,3.5,.02,5.9,.32,.2,1.3,1.22,1.19,.52,4.49Z" fill="#050200" />
		<path d="M259.3,267.2c.9,4.2,3.2,9.4,8.6,13.6,.6,.4,1.3,.7,2.1,.7,1.1,0,2.1-.5,2.8-1.4,1.2-1.5,.9-3.7-.6-4.9-3.7-2.8-5.3-6.3-6-9.2-.8-3.2-1.05-3.51-.95-3.61-.65,2.19,.1,.4,0,0-2.2,.5-3.45,.02-5.85,.32-.2,1.3-.79,1.19-.09,4.49Z" fill="#050200" />
		<path d="M273.6,283.2c-.3,2.1-.6,3.5-.8,4.5-.3,1-.9,1.9-1.8,2.5-.7,.4-1.5,.7-2.3,.7h-.3l-12.5,1.4-1.8-24.5-.3-3.7-.1-.9c-.1-1.1-.5,1.5-1.3,.9-1.4,.1-2.31-1-3.81-.9l-.66,.9c-.5,.4-.83-2.2-1.03-1.6-1.5,.1-3.9,.2-7,.2s-5.5-.1-7-.2c-.2-.6-.96,1.39-1.46,.99l-.95-.15c-1.4-.1-1.75-.41-3.15-.51-.9,.6-1.23-.73-1.23,.37l-.1,.9-.3,3.7-1.8,24.5-12.5-1.4h-.3c-.8,0-1.6-.2-2.3-.7-.9-.6-1.5-1.4-1.8-2.5-.3-1-.6-2.5-.8-4.5,.1,.9,.3,4.2-1.5,3.9v4.8s1,.9,1.2,1.5c1.1,.3,3.5,.2,4.7,4.5l16.1,1.8h.4c1.8,0,3.4-1.4,3.5-3.2l2.1-28.2,.1-1.8c2.2,.6,4.7,.7,7,.7s4.8-.1,7-.7l.1,1.8,2.1,28.2c.1,1.8,1.7,3.2,3.5,3.2h.4l16.1-1.8c1.2-4.3,3.6-4.2,4.7-4.5,.2-.6,1.2-1.5,1.2-1.5v-4.8c-1.6,.4-1.4-3-1.3-3.9Z" fill="#050200" />
	</g>
</svg>