<svg xmlns="http://www.w3.org/2000/svg" viewBox="0 0 480 480">
	<g>
		<path d="M239.89,121.24c61.5,0,85.45,44.87,85.45,76.87,0,46.9-44.61,61.19-46.31,61.69h0c13,18.9,22.15,39.14,22.15,42.83s-6.35,12.17-9.85,16.87c-3.1,4.2-7.3,4.73-8.1,4.73,0,0-.1,0,0,0,9.1,6.7,9.56,11.95,9.56,22.65,0,4.8,1.07,10.37-5.73,10.37s-18.94-.23-32.54-.29c-10.87-.05-12.61-7.8-14.63-9.14q0-.1,0,0c-3.4,2.08-4.43,9.12-14.79,8.71-13.59-.53-25.68,.71-32.48,.71s-6.82-5.4-6.82-10.3c0-10.7,2.27-15.39,11.37-22.09h0c-.7,0-6.51-1.35-9.61-5.55-3.5-4.8-7.58-13.6-7.58-17.3s9.5-24.31,22.5-43.21l-2.76-.55c-1.7-.6-41.17-13.45-41.17-60.35,0-32,19.84-76.66,81.34-76.66h0Z" fill="#844BC4"/>
	</g>
</svg>