<?xml version="1.0" encoding="UTF-8"?>
<svg id="Layer_1" data-name="Layer 1" xmlns="http://www.w3.org/2000/svg" viewBox="0 0 480 480">
  <g>
    <path d="M330.01,128.55c-.03,.12-.3-2.59-.35-2.82-.15-.81-.78-2.88-.59-2.59-.53-1.18-1.17-2.31-1.83-3.42-.2-.34-.42-.66-.63-.99-.15-.18-.38-.47-.71-.9-2-2.13-3.92-4.31-6.05-6.32-2.46-2.32-5.08-4.45-7.59-6.7-.37-.33-.57-.53-.68-.65-.16-.1-.35-.23-.62-.4-.67-.45-1.35-.86-2.03-1.28,.91,.59-.99-.45-1.77-.78-.14-.06-.26-.11-.35-.16-.16,0-.34,0-.55-.01-2.93-.12-5.83-.21-8.76-.24-4.58-.04-8.88-.7-13.4-1.54-.44-.08-3.52-.67-3.89-.77-.54-.08-1.07-.14-1.61-.19-.42,.97-1.29,1.75-2.71,1.96-2.1,.32-4.1,1.18-6,2.36-.48,.52-.97,1.05-1.45,1.57-1.03,1.12-2,2.19-3.16,3.18-.47,.4-2.07,1.54-3.25,2.37-.54,.64-1.07,1.28-1.58,1.93-.13,.23-.26,.45-.39,.68-1.18,1.98-2.63,3.73-4.11,5.48-.35,.5-.68,.99-1.01,1.46-4.84,7.01-14.02,6.9-21.62,4.66-.09-.03-.18-.06-.28-.09-.34-.1-.68-.2-1.01-.31-1.57-.52-2.78-1.33-3.8-2.3-2.07-1.68-3.7-3.9-4.79-6.38-.21-.28-.43-.57-.66-.85-3.92-4.78-9.57-8.62-15.15-11.17-4.11-1.88-11.2-5.63-15.62-4.6-2.71,.64-4.89,1.72-7.77,1.92-3.39,.23-6.77,.49-10.14,.86-2.79,3.27-6.33,5.76-10.42,7.4-.42,.25-.74,.43-.98,.57l-.09,.09c-1.09,1.6-1.96,3.35-2.82,5.08-1.59,3.22-2.88,6.35-4.24,10.71-1.22,3.89-2.34,7.8-3.59,11.68,.24,.46,.45,.93,.61,1.43,1.79,3.99,2.32,7.6,2.58,11.93,.08,1.2,.13,2.41,.13,3.61v.03c.3,.31,1.3,2.83,1.58,3.37,.48,.95,.95,1.93,1.39,2.92,3.34,3.2,5.34,7.87,5.35,12.57,0,2.83-.85,5.4-2.28,7.59v.11c-.1,5.72-1.01,11.26-2.46,16.7,.09,.88,.17,1.76,.24,2.64,.4,5.63,.89,11.06,2.39,16.52,1.42,5.17,3.53,10.32,6.74,14.66,3.13,4.23,6.42,8.66,9.74,12.75,3.64,4.48,9.53,6.65,14.15,9.97,4.42,3.18,9.31,5.46,14.5,7.1,5.11,1.61,10.34,2.54,15.71,2.39,2.58-.07,5.06-.27,7.63,.12,1.66,.25,3.23,.78,4.83,1.12,7.29-.15,14.47-1.72,21.76-1.8,.89-.01,1.84,.07,2.81,.18,12.16-4.37,24.49-8.13,35.89-14.35,6.08-3.32,9.37-8.37,13.08-14.04,1.74-2.66,3.41-5.37,5.34-7.89,1.9-2.48,4.28-4.81,4.39-8.1,.05-1.65,.91-2.72,2.05-3.26,.3-1.38,.6-2.76,.89-4.14,1-4.71,1.26-9.39,1.32-14.11-.54-.62-1.07-1.26-1.49-1.98-2.79-4.81-.36-10.16-2.11-15.06-1.36-3.8-4.44-6.66-3.21-11.1,.77-2.77,3.04-5.23,5.19-7.37,.93-1.62,2.16-3.04,3.61-4.24-.12-1.5,.49-3.09,1.81-3.94,.51-2.79,1.3-5.5,2.19-8.23,.38-1.16,.7-2.3,1.02-3.47-.25,.83,.43-2.26,.49-2.87,.33-3.4,.36-6.84,.18-10.26h0Zm-35.54,76.38c-1.48,11.87-7.58,22.23-16.89,29.71-10.3,8.27-21.95,11.86-34.99,12.72-1.21,.08-2.11-.31-2.71-.95-8.76-.13-16.37-1.65-22.89-4.27-.31,0-.62-.04-.95-.12-9.79-2.31-17.22-9.26-22.77-17.37-5.33-7.79-10.05-16.84-10.43-26.43-.04-1.07,.29-1.88,.81-2.47,.06-.36,.15-.71,.29-1.05,.22-1.88,1.56-3.65,3.98-3.65,.54,0,1,.11,1.41,.28,.41-.24,.89-.41,1.47-.48,.12,0,.24-.03,.36-.04,.07,0,.15-.02,.22-.02,8.8-1.05,17.64-1.34,26.49-1.69,8.73-.34,17.63-2.02,26.33-1.17,8.67,.85,16.78,.48,25.47,.09,7.82-.35,15.51,1.43,22.91,3.83,2.68,.87,3.17,3.55,2.28,5.54,.7,1.78,.53,3.83-.51,5.9,.15,.48,.21,1.04,.13,1.66v-.02Z" fill="#D9875D" />
    <g>
      <path d="M209.42,146.7c-1.9,0-3.5,1.6-3.5,3.5v3.4l-19.8,5.5c-1.9,.5-3,2.4-2.4,4.3,.4,1.6,1.8,2.6,3.4,2.6,.3,0,.6,0,.9-.1l20.6-5.7c2.6-.7,4.4-3.1,4.4-5.8v-4.2c-.1-1.9-1.7-3.5-3.6-3.5h0Z" fill="#040200" />
      <path d="M294.52,159.1l-19.8-5.5v-3.4c0-1.9-1.6-3.5-3.5-3.5s-3.5,1.6-3.6,3.5v4.2c0,2.7,1.8,5.1,4.4,5.8l20.6,5.7c.3,.1,.6,.1,.9,.1,1.6,0,3-1,3.4-2.6,.6-1.9-.5-3.8-2.4-4.3Z" fill="#040200" />
      <path d="M254.42,167.5h-28.1c-1.9,0-3.5,1.6-3.5,3.5s1.6,3.5,3.5,3.5h10.8v2.2c0,1.7,1.4,3.2,3,3.5h.4c1.7-.2,3-1.7,3-3.5v-2.2h10.8c1.9,0,3.5-1.6,3.5-3.5,.1-1.9-1.5-3.5-3.4-3.5h0Z" fill="#040200" />
    </g>
    <path d="M320.78,169.55c-.3-1.3,.74-2.75,1.64-3.85,6.8-7.8,10.6-17.9,10.6-28.3,0-23.9-19.5-43.4-43.4-43.4-16.9,0-32.3,10.2-39.4,25.3l-.93,1.86c-2.93-.39-6.56-.55-9.66-.55h-.81c-3.1,0-5.48,.23-7.98,.33l-.82-1.64c-7-15.1-22.4-25.3-39.4-25.3-23.9,0-43.4,19.5-43.4,43.4,0,10.4,3.8,20.5,10.6,28.3,.9,1.1,2.47,1.56,2.17,2.86-.3,.9-.82,2.09-.92,2.19l-.83,2.12c-2.82,10.15-3.84,14.1-3.84,22.37,0,28.96,10.6,50.65,38.2,62.75,2.4,1,8.67,4.01,14.49,5.79,9.89,2.46,20.07,4.59,31.13,4.02h5.8c13.5-.5,23.8-1.98,38.23-7.82,7.3-3.4,13.89-6.55,19.69-11.45,16.62-11.81,23.77-33.34,23.77-53.44,0-8.3-.9-14.13-3.76-22.33,0,0-.59-1.82-.67-1.94m-81.93,90.6c-48.01-1.28-78.12-22.7-77.12-66.02,.1-7.27,1.41-11.87,3.16-19.02,.1-.2,.57-1.52,.57-1.52l.31-1.22,.95-2.46c.1-.1,.7-1.8,.7-1.8,.7-1.4,1.4-2.96,2.39-4.78,.56-1.22,.85-3.79-.65-4.99s-4.03-1.11-5.23,.39c-.3,.4-.6,.8-.9,1.3-2.9-3.3-5.2-7-6.7-11.1-1.5-4-2.3-8.3-2.3-12.7,0-20,16.3-36.4,36.4-36.4,14.5,0,27.09,7.45,32.69,20.55-1,.1-2.46,.36-2.56,.36-2.54,.95-2.93,3.03-2.83,4.05,.2,.81,1.09,3.17,2.99,3.07,.1,0,9.24-1.21,18.84-1.31,9.7,.1,10.93,0,19.62,1.78,1.9,.2,3-1.1,3.44-2.5,.3-2.39-.63-4.26-2.53-4.46-.1,0-2.29-.44-3.55-.58,5.6-13.1,18.39-20.97,32.89-20.97,20.1,0,36.4,16.4,36.4,36.4,0,8.8-3.51,17.32-9.31,23.92-.3-.4-1.58-2.48-1.88-2.88-1.2-1.5-3.25-2.47-4.87-1.57s-2.09,5.23-.89,6.73c1.1,1.5,1.54,3.75,2.34,5.15,.1,.1,.92,2.37,1.02,2.47,.5,.9,.71,1.99,1.11,2.89s.77,2.18,.77,2.18c.1,.3,.45,1.45,.55,1.65,1.36,4.35,2.19,9.64,2.82,17.35,1.08,40.6-24.14,63.03-77.12,66.02" fill="#040200" />
    <g>
      <path d="M202.52,208.9l10.3-16.4c-9.2,.7-16.9,1.8-23,2.8l12.7,13.6h0Z" fill="#fff" />
      <path d="M229.02,204.8l9.5-13.3c-7.4,0-14.2,.2-20.4,.6l10.9,12.7Z" fill="#fff" />
      <path d="M278.12,208.9l-10.3-16.4c9.2,.7,16.9,1.8,23,2.8l-12.7,13.6h0Z" fill="#fff" />
      <path d="M251.62,204.8l-9.5-13.3c7.4,0,14.2,.2,20.4,.6l-10.9,12.7h0Z" fill="#fff" />
      <path d="M298.44,191.9c-.9-3.2-2.9-5.5-6.3-5.9-6.5-.8-12.9-1.5-19.4-2.1-3.8-.4-7.7-.4-11.6-.5-7.1-.2-14.1-.4-22.9-.7-10,.4-21.7,.8-33.2,1.4-5.5,.3-10.9,1.1-16.4,1.7-3.7,.4-6.1,2.4-7.1,6.1-1.5,5.8-1.8,11.7-.7,17.6,2,10.8,7.2,19.9,15.4,27.2,5.6,5,11.6,9.3,18.7,11.8,6.9,2.4,14.1,3,21.3,3.4,4.3,.2,8.7-.1,13-.5,4.1-.4,8.2-.9,12.2-1.8,5.5-1.2,10.5-3.7,15.1-7,8.8-6.2,16-13.8,20-24,3.4-8.7,4.2-17.6,1.9-26.7h0Zm-40.22,.1h0l-6.3,7.2-5.4-7.6c4.1,0,8,.2,11.7,.4h0Zm-49.7,.9l-6.5,10.3-8-8.5c4.2-.6,9.1-1.3,14.5-1.8Zm25.6-1.3l-5.4,7.6-6.3-7.2c3.7-.2,7.6-.4,11.7-.4h0Zm52.5,3.1l-8,8.5-6.5-10.3c5.4,.5,10.3,1.2,14.5,1.8Zm-1.88,28.2c-7.3,10.6-17.2,17.4-29.9,19.9-6.1,1.3-12.4,1.2-18.7,1.1-6.1-.2-12-.7-17.8-2.8-11.8-4.2-20.5-12.1-26.4-23.1-3.26-6.14-4.13-12.55-3.57-19.24l11.66,12.64,.4,.4c.1,.1,.2,.1,.3,.2h.1c.2,.1,.3,.2,.5,.2h.1c.2,.1,.3,.1,.5,.2h.2c.2,0,.4,.1,.6,.1,.3,0,.5,0,.8-.1,.07,0,.13-.03,.2-.1,.2-.1,.4-.1,.5-.2,.1,0,.1-.1,.2-.1,.2-.1,.4-.3,.6-.4h.1c.2-.2,.4-.4,.5-.6v-.1l10.1-16,10.7,12.4c.1,.1,.2,.2,.4,.3l.2,.2,.6,.3c.07,0,.13,.03,.2,.1,.2,.1,.3,.1,.5,.2h.2c.2,0,.4,.1,.7,.1,.2,0,.5,0,.7-.1,.07,0,.13-.03,.2-.1,.2,0,.3-.1,.5-.2,.1,0,.1-.1,.2-.1,.2-.1,.4-.2,.5-.4,0,0,.1,0,.1-.1,.2-.2,.4-.4,.5-.6l8.4-11.8,8.4,11.8c.1,.2,.3,.4,.5,.6,0,.1,.1,.1,.1,.1,.1,.2,.3,.3,.5,.4,.1,0,.1,.1,.2,.1,.2,.1,.3,.2,.5,.2,.07,.07,.13,.1,.2,.1,.2,.1,.5,.1,.7,.1,.3,0,.5-.1,.7-.1h.2c.2-.1,.3-.1,.5-.2,.07-.07,.13-.1,.2-.1l.6-.3,.2-.2c.2-.1,.3-.2,.4-.3l10.7-12.4,10.1,16v.1c.1,.2,.3,.4,.5,.6h.1c.2,.1,.4,.3,.6,.4,.1,0,.1,.1,.2,.1,.1,.1,.3,.1,.5,.2,.07,.07,.13,.1,.2,.1,.3,.1,.5,.1,.8,.1,.2,0,.4-.1,.6-.1h.2c.2-.1,.3-.1,.5-.2h.1c.2,0,.3-.1,.5-.2h.1c.1-.1,.2-.1,.3-.2l.3-.3,.1-.1,10.67-11.43c.07,.58,.12,1.15,.15,1.73,.4,7.9-2.3,14.8-6.7,21.2h-.01Z" fill="#050200" />
    </g>
    <g>
      <path d="M173.98,148.42c-1.77-3.1-2.77-6.53-2.77-10.19,0-11.07,8.97-20.04,20.04-20.04,6.98,0,13.29,3.65,16.94,9.41-13.18,4.76-24.81,11.85-34.22,20.82h0Z" fill="#eaa1d0" />
      <path d="M213.2,126.04h0v-.03c-.06-.2-.13-.4-.21-.6h0c-.08-.21-.17-.43-.28-.63l-.22-.39c-5.49-9.23-16.56-14.15-27.43-11.38-10.48,2.55-18.21,11.67-19.05,22.43-.46,6.14,1.54,12.42,5.18,17.24h0c.05,.07,.1,.14,.14,.2,1.28,1.54,2.92,1.64,4.4,1.62,1.79,0,2.78-1.96,3.93-3.12,7.67-8.41,17.67-15.74,30.02-19.53,2.81-1.1,4.28-3.05,3.53-5.82h-.02Zm-38.02,19.88s.28,.61,0,0c-.9-1.73-1.37-3.08-1.73-5.46-.13-.71-.24-1.43-.27-2.15-.03-.54-.02-1.06,.02-1.58-.05-2.25,.45-4.35,1.35-6.25,.49-1.3,1.18-2.51,2-3.61,2.2-3.24,5.64-5.64,9.46-6.77,1.46-.49,3.22-.62,3.72-.64,1.49-.06,2.68-.22,3.59-.08,1.92,.09,3.72,.58,5.36,1.35,2.86,1.21,4.92,2.85,6.66,5.45l-.19,.08-.26,.1c-.26,.07-.32,.16-.58,.24-.53,.24-.94,.37-1.41,.6-.78,.34-1.56,.73-2.35,1.07-4.68,2.35-9.57,4.76-13.63,7.68-1.25,.97-2.2,1.56-3.46,2.53-.19,.11-.47,.41-.66,.52-.29,.22-.26,.22-.55,.44-.09,.11-.32,.31-.51,.42-.58,.43-1.21,1.04-1.67,1.43-.5,.43-1.23,1.1-1.51,1.37-.31,.27-1.12,1.07-1.84,1.77" fill="#040200" />
    </g>
    <g>
      <path d="M307.19,147.8h0c-9.41-8.97-21.04-16.06-34.22-20.82,3.65-5.76,9.96-9.41,16.94-9.41,11.07,0,20.04,8.97,20.04,20.04,0,3.66-1,7.09-2.77,10.19h0Z" fill="#eaa1d0" />
      <path d="M267.28,126.03h0c-.75,2.77,.72,4.72,3.53,5.82,12.36,3.79,22.35,11.12,30.02,19.53,1.15,1.16,2.14,3.12,3.93,3.12,1.48,.02,3.12-.08,4.4-1.62,.04-.06,.09-.13,.14-.2h0c3.64-4.82,5.64-11.1,5.18-17.24-.84-10.76-8.57-19.88-19.05-22.43-10.87-2.77-21.94,2.15-27.43,11.38l-.22,.39c-.11,.2-.2,.42-.28,.63h0c-.08,.2-.15,.4-.21,.6v.03h-.02Zm36.5,18.38c-.72-.7-1.53-1.5-1.84-1.77-.28-.27-1.01-.94-1.51-1.37-.46-.39-1.09-1-1.67-1.43-.19-.11-.42-.31-.51-.42-.29-.22-.26-.22-.55-.44-.19-.11-.47-.41-.66-.52-1.26-.97-2.21-1.56-3.46-2.53-4.06-2.92-8.95-5.33-13.63-7.68-.79-.34-1.57-.73-2.35-1.07-.47-.23-.88-.36-1.41-.6-.26-.08-.32-.17-.58-.24l-.26-.1-.19-.08c1.74-2.6,3.8-4.24,6.66-5.45,1.64-.77,3.44-1.26,5.36-1.35,.91-.14,2.1,.02,3.59,.08,.5,.02,2.26,.15,3.72,.64,3.82,1.13,7.26,3.53,9.46,6.77,.82,1.1,1.51,2.31,2,3.61,.9,1.9,1.4,4,1.35,6.25,.04,.52,.05,1.04,.02,1.58-.03,.72-.14,1.44-.27,2.15-.36,2.38-.83,3.73-1.73,5.46-.28,.61,0,0,0,0" fill="#040200" />
    </g>
  </g>
</svg>