<svg xmlns="http://www.w3.org/2000/svg" viewBox="0 0 480 480">
  <g>
    <path d="M288.3,132.9s14.9,10.1,17.8,14.5c-7.5,3.7-24.7,9.8-29.3,11.9-4.5,2.2-25.1,10.6-12.2,11.2,12.9,.6,91,0,91,0l-4.7-8.6s-11-4.2-11.6-10.1-5.8-11.8-13.3-14.7-24-14.9-37.7-4.2Z" fill="#c9d0db" />
    <path d="M355.2,175.2h-99.4c-1.7,0-3.2-1-3.8-2.6-.7-1.6-.3-3.3,.9-4.5,2.5-2.5,9.6-8.6,22-10.7,5.9-5.5,11.3-9.5,21.7-7.2,4.3-4.7,11.2-10.2,23.1-6.3,1.8,.6,2.8,2.6,2.2,4.4-.6,1.8-2.6,2.8-4.4,2.2-8.1-2.7-12.5,.6-16,4.6-1.5,1.7-3.8,2.4-6.1,1.9-7.6-1.8-10.9,.8-15.9,5.5-.9,.9-2.1,1.4-3.3,1.6-4.9,.8-8.8,2.3-11.8,3.9h88.1c-2.5-4-9.1-5.6-11.3-6-2.7-.5-4.7-2.9-4.7-5.7v-3.3c0-4-1.1-6.9-3.2-9-3.8-3.7-10.4-3.7-12.3-3.6-2,.1-3.8-.8-4.9-2.4-1.6-2.1-6-7.1-13.1-7.1-9.1,0-14.7,6.8-14.8,6.9-1.2,1.5-3.4,1.7-4.9,.5s-1.8-3.4-.6-4.9c.3-.4,7.7-9.5,20.3-9.5,9.8,0,15.9,6.3,18.4,9.5,3.7-.1,11.4,.5,16.8,5.6,3.6,3.4,5.4,8.2,5.4,14.1v2.4c5.1,1.1,15.1,4.5,16.8,13.6,.3,1.5-.1,3.1-1.1,4.2-1.1,1.2-2.5,1.9-4.1,1.9Z" fill="#040200" />
    <path d="M161.5,165.5s-2.8,3.9-6.7,17.8l11.2,3.7,28.4,13c4.8,7.6-3.8,8.7-14.4,7.8-10.6-.9-59.3-1.3-59.3-1.3,0,0,1.3-8.2,8.5-12.5,3.6-7.9,5.5-15.1,17.2-19.6,4.8-5.4,7.6-9.3,15.1-8.9Z" fill="#c9d0db" />
    <path d="M197.7,210.8H121.3c-1.4,0-2.7-.6-3.6-1.6s-1.4-2.4-1.3-3.8c.5-5.9,5.7-10.1,11.2-13.8,2.5-13.7,9.5-17,16.2-18.8,3.2-7.7,9.8-11.2,14.7-11.2,3.8,0,7.5,1.9,7.9,2.1,1.7,.9,2.4,3,1.5,4.7s-3,2.4-4.7,1.5c-.7-.4-3-1.3-4.8-1.3-2.3,0-6.4,2-8.5,7.5-.6,1.7-2,2.9-3.7,3.3-4.7,1.2-10,2.5-12,14.2-.2,1.4-1,2.6-2.2,3.3-3.3,2.2-6.5,4.6-8,6.8h69.3c-2.7-4-8-8.5-17.6-6.9-1.7,.3-3.5-.3-4.7-1.5-9.5-9.2-15-10.9-21-6.4-1.6,1.1-3.7,.8-4.9-.7-1.1-1.6-.8-3.7,.7-4.9,12.5-9.2,23.7,.9,29.4,6.5,17.5-2.5,24.5,10.5,26.3,14.6,.6,1.4,.5,3-.4,4.3-.4,1.3-1.8,2.1-3.4,2.1Z" fill="#040200" />
  </g>
</svg>