<svg xmlns="http://www.w3.org/2000/svg" viewBox="0 0 480 480">
  <g>
    <path d="M311.1,176.82h0c2.2,0,3.8-1.8,3.8-3.8,0-1.6-3.1-6.4-4-9.7s1.03-7.2-2.57-7.2c-.7-1.8-2.1-2.08-2.5-3.78-.4-1.6-2.32-2.92-5.22-2.92-1.8,0-1.52-3.07-1.52-3.07,0,0-1.08,1.37-1.58-.63-.4-2.1-1.5-3.4-3.6-3.4s-2.86-3.65-2.86-3.65c0,0-1.04-2.15-4.54-2.15-2.5,0-2.53-1.5-2.53-1.5,0,0-.46-3.97-3.26-2.47-.7-2.1-3.12-2.25-6.12-2.25h-3.39s-5.01-2.44-6.71-2.44,0,5.26,0,8.76c0,2.1,2.9,7.9,5.4,13.5,2.4,5.6,5.7,13.1,8.8,13.1,.8,0,1.4-.3,1.4-.3,0,0,1.8,6.1,5.7,6.1,1.2,0,1.9-.8,1.9-.8,0,0,1.9,4.1,4.7,4.1,1.1,0,1.6-.6,1.6-.6,0,0,.7,1.7,3.2,1.7,.8,0,1.9-.7,1.9-.7,0,0,1.2,1.4,3.1,1.4,1,0,2.1-.9,2.1-.9,0,0,1,1.2,3,1.2,1.2,1.3,1.9,2.4,3.8,2.4h0Z" fill="#21CAFD" />
    <path d="M295.7,201.82h0c2.5,0,3.6-1.7,3.9-4.3,.5-4,1.7-4.4,1.7-6.4s-1.4-3.9-4.1-3.9c-.9,0-1.3,.4-1.3,.4,0,0-.9-.9-2.3-.9s-4.3,1.5-4.3,4.8,2.7,6.4,2.7,6.4c0,0,.1,3.9,3.7,3.9h0Z" fill="#21CAFD" />
    <path d="M262,200.82h0c-3.1,0-3.9,2.8-3.9,2.8,0,0-1.8-.5-3,1.2-.5-.3-.9-.4-1.5-.4s-4.2,.3-4.2,6.4c0,1.9,.8,10.2,1.2,14.8,.4,3.8,4.1,3.5,4.1,3.5,0,0,.1,4,4.5,3.6,.9,1.1,1.7,1.5,3,1.5,2.5,0,3.4-1.9,3.4-1.9,0,0,3.1,.9,4.5-1.6,1.7-.1,4-.6,4-4.8,0,0,3.9-.1,3.9-6.9,0-.5-.3-3.8-.4-7.2s-1.6-4.8-3.9-5.2c-.3-1.8-1-3.9-3.9-3.9-1.2,0-1.8,.7-1.8,.7,0,0-1.2-.8-2.5-.2-.5-.9-1.6-2.4-3.5-2.4h0Z" fill="#21CAFD" />
    <path d="M313.4,215.02h0c-2.1,0-2.8,1.2-2.8,1.2,0,0-.4-.5-1.6-.5-2.9,0-3.6,4-3.6,4,0,0-3-1.2-4.8,2.1-1,.2-3.1,.7-3.5,6-.5,5.2-2.76,9.97-2.76,13.07s-1.1,7.81,.4,7.81c2.8,0,9.06-6.28,9.06-6.28,0,0,2.7-1.1,2.7-3.9v-2s4.7,.7,4.7-3.8v-2.9s4.5,.3,4.9-3.8c.1-1,.8-5.1,1.1-6.4,.4-1.6,1.6-5.8-1.5-5.8l-2.3,1.2Z" fill="#21CAFD" />
  </g>
</svg>