<svg version="1.1" id="Layer_1" xmlns="http://www.w3.org/2000/svg" xmlns:xlink="http://www.w3.org/1999/xlink" x="0px" y="0px" viewBox="0 0 480 480" style="enable-background:new 0 0 480 480;" xml:space="preserve">
	<g>
		<path fill="#FFFFFF" d="M232.4,102.8c0,0-11.5,12.7-10.2,21c1.9,3.2,2.3,1.4,2.3,1.4l0.3,1.1c0,0,8.4-1.8,15.2-1.8
		c6.8,0,14.4,0.4,14.4,0.4s1.9-5.3-2-11.9C248.4,106.5,249.5,102.8,232.4,102.8z" />
		<path fill="#5A6FF6" d="M292,86.1c0,17.5-28.9,16.2-52,16.2s-52,1.3-52-16.2c0-13.2,20.6-23.3,30.2-30.4c9.6-7.1,17.8-9.3,21.8-9.3
		s12.2,2.2,21.8,9.3S292,73,292,86.1z" />
		<g>
			<path fill="#FFFFFF" d="M215.1,57.9c0,0,3.1,17.5-7.8,17.5c-6.3,0-7.4-7-7.4-7L215.1,57.9z" />
			<path fill="#FFFFFF" d="M197.5,98.6c0,0,4-8.4,13.6-8.4c13.4,0,14.7,12.1,14.7,12.1L197.5,98.6z" />
			<path fill="#FFFFFF" d="M249.5,48.7c-2.2,9.8,5.8,18.6,15,18.6c5.5,0,8.5-4.1,8.5-4.1L249.5,48.7z" />
			<circle fill="#FFFFFF" cx="232" cy="60" r="4" />
			<circle fill="#FFFFFF" cx="275.9" cy="86.8" r="4" />
		</g>
		<g>
			<path fill="#050200" d="M295.5,86.1c0-12.5-13.9-21.5-25-28.7c-2.5-1.6-4.8-3.1-6.6-4.4c-10.1-7.4-18.9-10-23.9-10s-13.8,2.6-23.9,10
			c-1.8,1.3-4.1,2.8-6.6,4.4c-11.2,7.3-25,16.3-25,28.7c0,4.4,1.5,8.2,4.5,11.2c7.2,7.2,21.5,8.4,36.7,8.5c-1,3.1-2.5,6.9-4.5,9.3
			c-0.6,0.7-1.4,1.7-1.9,3c-0.9,2.3-1.1,4.1-0.6,5.3c0,0.1,0.1,0.3,0.1,0.4c0,2.6,2.5,4.5,5.2,4.5s4.8-2.1,4.8-4.6
			c0-1.7-0.9-3.1-2.3-4c0,0,0,0,0,0c3.4-4,5.5-10.2,6.5-13.8c0.9,0,1.7,0,2.6,0c3,0,5.9,0,8.9,0c0.8,0,1.5,0,2.3,0
			c1,3.6,3.1,9.8,6.5,13.8c0,0,0,0,0,0c-1.4,0.8-2.3,2.3-2.3,4c0,2.6,2.2,4.6,4.8,4.6s5.2-1.9,5.2-4.5c0-0.1,0.1-0.3,0.1-0.4
			c0.5-1.2,0.3-3-0.6-5.3c-0.5-1.3-1.3-2.2-1.9-3c-2-2.3-3.5-6.1-4.5-9.3c15.3-0.2,29.8-1.3,37-8.6C294,94.3,295.5,90.6,295.5,86.1z
			 M286.1,92.3c-6.7,6.6-26.1,6.6-41.6,6.5c-1.5,0-3,0-4.5,0s-2.9,0-4.5,0c-15.6,0.1-35,0.1-41.6-6.5c-1.7-1.7-2.4-3.6-2.4-6.2
			c0-8.7,12.6-16.9,21.9-22.9c2.5-1.7,4.9-3.2,6.9-4.7c9.3-6.8,16.8-8.6,19.8-8.6s10.4,1.8,19.8,8.6c2,1.5,4.4,3,6.9,4.7
			c9.2,6,21.9,14.2,21.9,22.9C288.5,88.7,287.8,90.7,286.1,92.3z" />
			<path fill="#050200" d="M235.1,69.3c-1.8-0.8-3.8,0.1-4.6,1.8c0,0.1-3.6,8-12.7,12.4c-1.7,0.8-2.5,2.9-1.6,4.7c0.6,1.3,1.9,2,3.2,2
			c0.5,0,1-0.1,1.5-0.3c11.6-5.6,15.9-15.5,16.1-15.9C237.7,72.1,236.8,70.1,235.1,69.3z" />
			<path fill="#050200" d="M262.2,83.2c-9.1-4.4-12.6-12.2-12.7-12.4c-0.8-1.8-2.8-2.6-4.6-1.8c-1.8,0.8-2.6,2.8-1.9,4.6
			c0.2,0.4,4.5,10.4,16.1,15.9c0.5,0.2,1,0.3,1.5,0.3c1.3,0,2.6-0.7,3.2-2C264.7,86.1,263.9,84,262.2,83.2z" />
		</g>
	</g>
</svg>