<?xml version="1.0" encoding="UTF-8"?>
<svg id="_e9c74b67b7d5ed8bbf8c8219bb838c8ab54add8" data-name="4e9c74b67b7d5ed8bbf8c8219bb838c8ab54add8" xmlns="http://www.w3.org/2000/svg" viewBox="0 0 480 480">
  <g>
    <path d="M357.4,203.8c-1.3-.6-3.9-2.2-6.2-3-15.1-5.2-52.5-12.5-110.9-12.5h0c-58.5,0-95.6,7.5-110.6,12.7-2.3,.8-5.1,2.5-6.4,3.1l-2.1-.6,119.1-121.6c.1,.1,119.6,119.1,119.6,119.1l-2.5,2.8Z" fill="#f0ba84" />
    <path d="M124.4,205.5c1.3-.6,3.1-1.3,5.4-2.1,5.3-1.8,13.2-4,23.7-6h.1c2.8-.5,5.8-1.1,9-1.6,5.6-.9,11.8-1.8,18.5-2.5,16.3-1.8,35.9-3.1,58.8-3.1h.6c22.7,0,42.1,1.2,58.2,3,6.7,.7,12.8,1.6,18.3,2.4,3.2,.5,6.2,1,9.1,1.6h.2c10.9,2.1,19.1,4.3,24.5,6.2,2.3,.8,4.1,1.5,5.4,2.1l-.04,.02c2.02-.03,4.05-.1,6.06,.06,.96,.08,1.91,.23,2.85,.42,.02-.2,.03-.4,.03-.6,0-.3,0-1-.6-2-.5-.8-1.3-1.7-2.9-2.7l-119.1-118.8c-.1-.1-.2-.2-.3-.2-.1-.1-.2-.1-.2-.2h-.1c-.8-.5-1.7-.6-2.5-.5h-.1c-.2,0-.4,.1-.5,.2-.1,0-.1,.1-.2,.1-.1,.1-.3,.1-.4,.2-.1,.1-.2,.1-.2,.2-.1,.1-.2,.1-.3,.2l-118.8,118.8c-1.5,1-2.4,1.9-2.8,2.7-.6,.9-.6,1.7-.6,2.1,0,.24,.01,.48,.04,.73,.13-.04,.27-.06,.41-.06,2.03,0,4.05-.05,6.08-.02,.78,0,1.64,.05,2.37-.04m206.3-15.1c-1.5-.3-3-.6-4.7-.9-2.8-.5-5.8-1-9.1-1.5-10.4-1.6-23.2-3.2-38.5-4.2-11.2-.8-23.8-1.2-37.7-1.2h-.7c-15.2,0-28.8,.5-40.8,1.4-14.3,1-26.3,2.5-36.1,4-3.3,.5-6.3,1-9.1,1.6-1.4,.3-2.7,.5-4,.8-5.9,1.2-10.8,2.3-14.8,3.5l22.9-23,43.5-43.6,38.4-38.6,39.2,39,41.9,41.8,24.3,24.2c-4-1-8.9-2.1-14.7-3.3Z" fill="#050200" />
  </g>
</svg>