<svg version="1.1" id="Layer_1" xmlns="http://www.w3.org/2000/svg" xmlns:xlink="http://www.w3.org/1999/xlink" x="0px" y="0px" viewBox="0 0 480 480" style="enable-background:new 0 0 480 480;" xml:space="preserve">
	<g>
		<path d="M270,313.8s1.8-8.9,2.2-11.2c.5-2.3-.1-1.5,.3-5s2.3-5.5,2.3-8.2-1.5-4.6-3-13.1c-.4-1.8-.4-2.9-2.6-2.9-2.9,0-3.7,2.8-3.7,3.5s.1,1.5,.1,1.5c-19-2.1-30.9-11.7-30.9-11.7h0c-11.36-5.78-19.21-7.48-19.21-7.48l-3.88-.71c-2.4,0-1.62-.41-4.82,.69-3.2,1.2-3.2,2.2-3.2,3s.1,1.5-.3,3.1l.5,1.6s3.6,6.9,3.7,8v.1c-.5,.9-4.3,11.9-4.3,15.3,0,.9,1.9,5.1,2.4,6.5,1.7,0,1.2,2.1,1.2,2.1,1.3,0,.9,1.5,.9,3.8s-1.8,2.8-1.8,2.8c.9,2.1,.6,4.1,.6,4.1h.3v2.8l7.8,3.2s2.3,2.2,4.4,2.2c3.2,0,5.2-3,6-3s5,5.6,8.3,5.6c1.4,0,2.5-.7,2.5-.7v5.7c6.3,1.7,8.6,0,8.4-.1v-8.2s3.5,3.7,6.4,3.7,11.1-7.4,13-8.5c.4,.4,.8,.5,1.7,.7" fill="#050200" />
		<path d="M210.5,263.6s4.7,1.5,11.8,2.5c1.8,1.7,17.7,18.8,45.9,20.2l.6,3.6-4.3,10.1v4.6s-.5-.2-1.3-.2c-2.3,0-12.4,8.6-12.4,8.6,0,0-5.6-5.2-7.8-5.2s-9.1,4.8-9.1,4.8c0,0-5.7-6.2-8.7-6.2s-6,3.6-6,3.6l-3.9-3.1s.2-3.3,.2-5.2c0-4.6-4.3-10.7-4.3-11.9,0-3.3,4.2-13.3,4.2-15.4-.1-2.2-4.9-10.8-4.9-10.8Z" fill="#59C260" />
	</g>
</svg>