<svg xmlns="http://www.w3.org/2000/svg" viewBox="0 0 480 480">
  <g>
    <path d="M238.4,182.7c8.8,.3,15.8,.5,22.9,.7,3.9,.1,7.8,.1,11.6,.5,6.5,.6,12.9,1.3,19.4,2.1,3.4,.4,5.4,2.7,6.3,5.9,2.3,9.1,1.5,18-1.9,26.7-4,10.2-11.2,17.8-20,24-4.6,3.3-9.6,5.8-15.1,7-4,.9-8.1,1.4-12.2,1.8-4.3,.4-8.7,.7-13,.5-7.2-.4-14.4-1-21.3-3.4-7.1-2.5-13.1-6.8-18.7-11.8-8.2-7.3-13.4-16.4-15.4-27.2-1.1-5.9-.8-11.8,.7-17.6,1-3.7,3.4-5.7,7.1-6.1,5.5-.6,10.9-1.4,16.4-1.7,11.5-.6,23.2-1,33.2-1.4Zm1.7,8.4c-4.4,0-8.9-.1-13.3,0-5.9,.2-11.8,.5-17.7,.9-5.5,.4-11.1,.9-16.6,1.4-1.9,.1-3,1-3.5,2.8-.1,.6-.3,1.2-.4,1.7-.7,7,.1,13.7,3.5,20.1,5.9,11,14.6,18.9,26.4,23.1,5.8,2.1,11.7,2.6,17.8,2.8,6.3,.1,12.6,.2,18.7-1.1,12.7-2.5,22.6-9.3,29.9-19.9,4.4-6.4,7.1-13.3,6.7-21.2-.1-2.1-.5-4.2-.9-6.2-.2-1.1-1.1-1.9-2.4-2-4.1-.4-8.3-.8-12.4-1.2-11.9-.8-23.8-1.5-35.8-1.2Z" fill="#050200" />
  </g>
</svg>