<svg xmlns="http://www.w3.org/2000/svg" viewBox="0 0 480 480">
  <g>
    <path d="M215.87,134.92c1.8-.6,3.5-1,5.2-1.4h0c5.5-1.3,10.4-1.6,13.9-1.6,3.8,0,6.1,.4,6.1,.4h0l-1.3-4.8-4.8-4.3s-7.8,.1-17.5,2.4c-.1,.1-.2,.1-.3,.1-4.8,1.2-10,2.9-15,5.4-2.3,1.2-5.3,3.1-8.5,5.4-7.3,5.4-16.1,13-22.2,20l-.1,.1c-8.5,9.7-14.83,16.87-3.03,16.47,.1-.2,2.34-.23,2.44-.43,.7-1.2,.52-.43,1.22-1.63,0,0,11.42-27.29,40.94-35.1" fill="#fff" isolation="isolate" opacity=".5" />
    <path d="M197.08,256.51c2.91,0,5.05,.3,6.14,2.28,2.09,.11,3.96,.5,5.06,1.77,.72-.25,2.25,0,3.16,0,1.87,0,2.55,.05,3.67,1.01l2.41-.25c1.66,0,2.09,.22,3.16,1,2.36,.1,2.87-.42,3.97,1.12,1.52,.77,2.59,2.08,3.18,3.59,1.37-.03,2.73-.01,4.11,.11,3.32,.29,6.65,1.01,9.99,1,4.77-.02,7.83-3.31,12.46-3.54-.45-7.23,.5-12.05,.56-19.27-2.77-.25-5.54-.88-8.41-1.21-2.47-.28-4.4,.39-6.8,.85-3.12,.6-6.29-.35-9.29,.19-1.22,.22-2.44,.2-3.57-.05-1.07,1.57-2.85,2.67-5.38,2.67-3.42,0-5.59-2.02-6.49-4.53-.6-.13-1.12-.35-1.62-.61h-.29c-3.62,0-5.85-2.26-6.64-4.97-.11-.08-.22-.17-.33-.26-3.27-.5-5.17-3.03-5.63-5.8-1.26-1.81-1.63-4.2-1.12-6.31-.49-1.52-.51-3.2-.06-4.7-.56-1.89-.41-3.99,.45-5.69,0-1.82,.59-3.61,1.82-4.9,.45-1.29,1.28-2.41,2.46-3.18,.03-.04,.07-.07,.1-.11,.7-1.84,2.17-3.33,4.41-3.83,1.01-1,2.43-1.65,4.25-1.73,.27-.15,.57-.27,.87-.38,1.04-.83,2.42-1.35,4.15-1.35,.91,0,1.73,.16,2.47,.42,.4-.07,.81-.11,1.26-.11,.97,0,1.84,.17,2.61,.46,.85,.05,1.7,.15,2.52,.32,2.5-1.34,5.08-2.64,7.74-3.64,.68-.92,1.44-1.79,2.23-2.63-.06-.73-.09-1.39-.09-1.9,.06-5.55-.04-11.1-.05-16.65,0-.92,.15-1.75,.41-2.49-.88-1.05-1.46-2.44-1.5-4.2-.35-14.55,.28-29.09,.52-43.63-5.64-.26-11.73,1.22-17.37,2.78v3.32c.5,.77,.72,1.76,.44,2.93-1.81,7.54-4.12,13.94-8.56,20.35-3.41,4.93-8.36,8.33-13.26,11.68-9.76,6.67-21.77,12.73-33.54,8.07-.05,.45-.11,.9-.19,1.34-.57,3.01-1.93,5.78-2.37,8.84-.41,2.92-3.17,4.95-6.01,5.33-.17,1.4-.75,2.79-1.72,4.05v-.02h0c-2.32,3.02-5.15,5.73-8.23,8.07,.51,4.08,1.54,8.05,2.81,12.02,1.32,4.14,2.65,8.45,4.33,12.53,.81,.32,1.5,.78,2.08,1.34,3.59,.33,7.14,.69,10.67,1.59,3.23,.83,4.83,3.23,5.13,5.8,4.28,5.65,9.38,10.7,15.12,15m-3.31-58.18c0-2.1,1.7-3.7,3.7-3.7s3.7,1.6,3.7,3.7-1.7,3.7-3.7,3.7-3.7-1.6-3.7-3.7Zm-15,23.9v-.2h.1l14.02,8.03,4.57,19.67c-12.43-10.08-15.19-18.8-18.69-27.5h0Z" fill="#2e2e2e" />
    <rect x="188.35" y="167.25" width="55.1" height="7" transform="translate(-59.34 167.44) rotate(-37.65)" fill="#fff" isolation="isolate" opacity=".5" />
    <path d="M196.88,189.92c-.5-2.4-1.8-4.5-3.5-6.1-2-1.8-4.7-3-7.7-3-6.3,0-11.4,5.1-11.4,11.4s5.1,11.4,11.4,11.4,11.4-5.1,11.4-11.4c0-.8-.1-1.6-.2-2.3h0Zm-11.2,6c-2.1,0-3.7-1.6-3.7-3.7s1.7-3.7,3.7-3.7,3.7,1.7,3.7,3.7-1.6,3.7-3.7,3.7Z" fill="#050200" />
    <rect x="226.64" y="243.92" width="27.8" height="7.9" fill="#fff" isolation="isolate" opacity=".95" />
    <path d="M224.07,216.86h0c0-1.09-.25-2.18-.67-3.02-.92-2.02-2.69-3.53-4.87-4.03-.59-.17-1.18-.25-1.76-.25-4.03,0-7.31,3.28-7.31,7.31,0,.5,.08,1.01,.17,1.51,.42,2.18,1.85,4.03,3.78,5.04,1.01,.5,2.18,.76,3.36,.76,4.03,0,7.31-3.28,7.31-7.31h0Z" fill="#fff" isolation="isolate" opacity=".95" />
    <polygon points="145.23 199.86 155.18 193.81 157.62 209.03 148.33 213.99 145.23 199.86" fill="#fff" isolation="isolate" opacity=".95" />
    <path d="M187.48,256.62c10.64,6.4,20.28,8.72,25.44,9.91,4.35,1.01,8.06,1.55,10.75,1.85,1.3,1.41,3.28,2.43,5.35,2.43h21.11c3.2,0,8.08-1.25,7.99-7.55v-16.7c0-5.59-2.49-7.08-7.99-7h-21c-2.67,0-4.7,.96-5.87,3.19-7.58-2.14-8.63-2.74-14.06-6.44,2.27,.87,4.81,1.35,7.46,1.35,11.5,0,20.8-9.3,20.8-20.8,.1-4.67-1.39-8.95-3.96-12.34l.06-.06c1.8-1.8,3.91-3.63,5.01-4.73,2.2-2.2,3.02-4.99,3.02-7.99V127.66c-.02-2.26-.06-7.09-.06-7.09,0,0-13.44,.09-24.79,2.3-24.44,4.77-41.77,19.66-48.5,29.68-2.22,3.3-7.04,11.14-9.82,19.4-2,5.94-3.18,10.1-3.87,18.55l-7.4,4.46-2.4,1.6c-2.1,1.4-4.45,3.28-3.88,8.59l4.97,20c1.13,4.79,5.84,4.8,8.34,4.9l7.32,.36c1.54,2.42,3.08,4.83,4.62,7.25,4.43,5.64,11.34,12.9,21.38,18.94Zm-32.05-33.44l-1.54-.09c-1.55-.03-2.23-1.01-2.61-2.52l-2.37-9.29-.68-3.1-.34-1.53c-.21-.93-.37-1.71-.06-.32,.04,.16,.05,.24,.06,.29-.05-.31-.31-2.85,1.64-4.54l4.75-3.38s0,6.74,1.1,12.06c1.11,5.32,1.98,9.12,3.36,12.55l-3.31-.13h0Zm61.32,6.09c-2.6,0-4.9-.8-6.9-2.1s-3.5-3.2-4.5-5.4c-.7-1.5-1-3.2-1-4.9,0-6.9,5.6-12.4,12.4-12.4,1.9,0,3.7,.4,5.3,1.2,2.2,1,4,2.7,5.2,4.7,1.2,1.9,1.9,4.1,1.9,6.5,.1,6.9-5.5,12.4-12.4,12.4Zm-2.8-97.54h0c-.78,13.08-11.3,37.33-46.94,39.8-2,.4,2.2-.2,0,0,8.57-20.49,24.46-33.42,46.94-39.8Zm-48.87,84.65l13.79,8.67,4.39,18.83c-12.11-11.36-14.15-17.1-18.18-27.49Zm31.73,18.5c.75,1.31,7.15,6.31,12.38,9.49,4.7,2.85,9.12,4.78,12.81,6.11v8.81c-14.28-2.38-19.65-4.12-30.51-9.92l-4.86-25.71h0c-.4-1.79-1.4-3.29-2.9-4.39l-16.8-11.7-4.09-3.09c-.56-4.03-.37-5.9-.47-9.4l.06-1.25c.27-5.66,.93-9.98,2.13-14.68,29.2-2.7,43.06-16.59,49.56-27.99,3.5-6.1,5.3-12.1,6.3-16.7l.8-4.36c6.32-1.15,13.1-1.42,13.1-1.42v63.08c0,1.2-.5,2.4-1.4,3.2-1.2,1.1-2.8,2.7-4.7,4.6l-.02,.02c-3.28-2.15-7.23-3.42-11.48-3.42-11.5,0-20.8,9.3-20.8,20.8,0,4,1.1,7.8,3.1,10.89l-.02,.02c-.48,.24-1.52,.85-2.2,2.1-1.24,2.28-.75,3.59,0,4.9Zm54.22,29.03h-22.02v-17.24c0-.1,.1-.1,.1-.1h21.92c.1,0,0,0,0,0" fill="#050200" />
  </g>
</svg>