<?xml version="1.0" encoding="UTF-8"?>
<svg id="Layer_1" data-name="Layer 1" xmlns="http://www.w3.org/2000/svg" viewBox="0 0 480 480">
    <g>
        <path d="M266.3,286.5h-.2c-26-1.2-51.9,0-52.1,0-2.2,.1-4.1-1.6-4.2-3.8-.1-2.2,1.6-4.1,3.8-4.2,.3,0,26.5-1.2,52.9,0,2.2,.1,3.9,2,3.8,4.2-.1,2.1-1.9,3.8-4,3.8Z" fill="#299887" />
        <path d="M268.9,280.8h-.2c-26-1.2-57.1,0-57.4,0-2.2,.1-4.1-1.6-4.1-3.8-.1-2.2,1.6-4.1,3.8-4.1,.3,0,31.8-1.2,58.1,0,2.2,.1,3.9,2,3.8,4.2-.1,2-1.8,3.7-4,3.7Z" fill="#040200" />
        <path d="M270.8,293.5h-.2c-26-1.2-60.8,0-61.2,0-2.2,0-4.1-1.7-4.1-3.9s1.7-4.1,3.9-4.1c.4,0,35.5-1.2,61.8,0,2.2,.1,3.9,2,3.8,4.2-.1,2.1-1.9,3.8-4,3.8Z" fill="#040200" />
    </g>
</svg>