<svg xmlns="http://www.w3.org/2000/svg" viewBox="0 0 480 480">
  <g>
    <polygon points="191.3 356.5 158.9 356.5 154.3 339 165.8 341.6 161.1 313.8 178 334.5 191.3 356.5" fill="#59c260" />
    <polygon points="323.3 349.1 321.2 315.2 305.9 341.5 300.3 328.6 293.6 335.1 291.7 356.5 320.6 355.8 323.3 349.1" fill="#59c260" />
    <path d="M326.8,311.5v-.4c0-.1,0-.2-.1-.3,0-.1-.1-.2-.1-.3s-.1-.2-.1-.3-.1-.2-.2-.3c-.1-.1-.1-.2-.2-.3-.1-.1-.1-.2-.2-.3-.1-.1-.1-.2-.2-.2-.1-.1-.2-.1-.3-.2-.1-.1-.2-.2-.3-.2,0,0-.1,0-.1-.1-.1,0-.1-.1-.2-.1-.1-.1-.2-.1-.3-.2-.1,0-.2-.1-.3-.1s-.2-.1-.3-.1h-1.1c-.1,0-.2,0-.3,.1-.1,0-.2,.1-.3,.1s-.2,.1-.3,.1-.2,.1-.3,.2c-.1,.1-.2,.1-.3,.2-.1,.1-.2,.1-.3,.2-.1,.1-.2,.1-.2,.2-.1,.1-.1,.2-.2,.3-.1,.1-.2,.2-.2,.3,0,0,0,.1-.1,.1l-13.8,23.6-1.7-6.9c0-.1-.1-.1-.1-.2s-.1-.2-.1-.4c0-.1-.1-.2-.2-.3-.1-.1-.1-.2-.2-.3l-.3-.3s-.1-.1-.1-.2h-.1l-.3-.3-.2-.2c-.1-.1-.2-.1-.4-.2-.1,0-.1-.1-.2-.1-.1-.1-.3-.1-.4-.1s-.2,0-.2-.1h-1c-.1,0-.3,0-.4,.1h-.1q-.1,0-.2,.1c-.1,0-.3,.1-.4,.1s-.2,.1-.3,.2c-.1,.1-.2,.1-.3,.2-.1,.1-.2,.2-.3,.2s-.1,.1-.2,.1l-9.8,9.6c-1.4,1.4-1.4,3.6,0,4.9,.7,.7,1.6,1,2.5,1s1.8-.3,2.5-1l5.4-5.3,2.3,9.4h0q0,.1,.1,.2c0,.1,.1,.3,.1,.4s.1,.1,.1,.2c.1,.1,.1,.2,.2,.3,0,.1,.1,.1,.2,.2l.3,.3,.2,.2c.1,.1,.2,.2,.4,.3l.1,.1h.1s.1,0,.1,.1c.1,.1,.2,.1,.3,.2q.1,0,.2,.1c.1,0,.2,.1,.4,.1h.7c.3,0,.5,0,.8-.1h0c.2,0,.4-.1,.6-.2,0,0,.1,0,.1-.1,.2-.1,.3-.2,.5-.3h0c.2-.1,.3-.3,.4-.4l.1-.1c.1-.1,.2-.3,.3-.4,0,0,0-.1,.1-.1h0l11.6-20v28.5H161.6l-2.5-9.4,5.8,1.4h.1c.2,.1,.5,.1,.7,.1h.6c.2,0,.4-.1,.6-.2,.1,0,.1-.1,.2-.1,.1-.1,.3-.1,.4-.2,.1,0,.1-.1,.2-.1,.1-.1,.2-.2,.3-.2l.2-.2,.3-.3c0-.1,.1-.1,.1-.2,.1-.1,.2-.2,.2-.4,0-.1,.1-.1,.1-.2,.1-.1,.1-.3,.2-.5q0-.1,.1-.2h0v-.1c0-.2,.1-.4,.1-.6v-.7h0l-3.4-20.2,18.3,25.8c.7,1,1.8,1.5,2.9,1.5,.7,0,1.4-.2,2-.6,1.6-1.1,1.9-3.3,.8-4.9l-27.1-38.2c0-.1-.1-.1-.2-.2-.1-.1-.2-.2-.2-.3-.1-.1-.2-.1-.3-.2s-.2-.1-.3-.2-.2-.1-.3-.2-.2-.1-.3-.2c-.1,0-.2-.1-.3-.1s-.2-.1-.4-.1h-1.4c-.1,0-.2,.1-.3,.1s-.3,.1-.4,.1-.1,.1-.2,.1c-.2,.1-.3,.2-.4,.2h0l-.1,.1c-.1,.1-.3,.2-.4,.3l-.2,.2-.3,.3c0,.1-.1,.1-.1,.2-.1,.1-.1,.2-.2,.4,0,.1-.1,.2-.1,.2,0,.1-.1,.3-.1,.4v1.3l5,30.1-6.4-1.5h-.1c-.1,0-.3,0-.4-.1h-.7c-.1,0-.2,0-.3,.1h-.1q-.1,0-.2,.1c-.1,0-.2,.1-.3,.1s-.2,.1-.3,.2-.2,.1-.3,.2-.2,.1-.3,.2-.2,.1-.2,.2c-.1,.1-.2,.2-.2,.3-.1,.1-.1,.2-.2,.3-.1,.1-.1,.2-.2,.3-.1,.1-.1,.2-.1,.3s-.1,.2-.1,.4q0,.1-.1,.2v1.1c0,.1,0,.2,.1,.4v.1l4.6,17.6c0,.1,.1,.2,.1,.3s0,.1,.1,.2c.2,.4,.4,.7,.7,1l.1,.1,.3,.3c.1,0,.1,.1,.2,.1,.1,.1,.2,.1,.3,.2,.1,0,.1,.1,.2,.1,.1,.1,.3,.1,.4,.1s.1,0,.2,.1c.2,0,.4,.1,.6,.1h164.4c1.9,0,3.5-1.6,3.5-3.5v-44.9q.2,.1,.2,0Z" fill="#050200" />
  </g>
</svg>