<?xml version="1.0" encoding="UTF-8"?>
<svg id="Layer_1" data-name="Layer 1" xmlns="http://www.w3.org/2000/svg" viewBox="0 0 480 480">
  <g>
    <path d="M278.76,260.43l2.08-.77c32.7-12.3,44.5-38.8,44.5-60.1h0c0-25.7-12.33-40.69-17.13-46.59-.4-.4,.93-2.61,1.13-3.11,1.3-3.1,2.9-8,2.9-13.9,0-10.8-8-34.2-31.5-34.8h-1c-18.2,.1-25.9,12.9-28.9,20.9h-.3c-3.2-.5-6.3-.7-9.2-.7h-2.6c-3.8,.1-7,.4-9.2,.7-3-8-10.8-20.9-29-20.9h-1.1c-23.3,.7-31.2,24-31.2,34.8,0,5.9,1.6,10.8,2.9,13.9,.2,.5,.8,3.04,.5,3.44-4.8,6-16.5,20.56-16.5,46.26s17.1,49.9,44.7,60.2l.44,.27c.26,.02,.43,.19,.69,.23,.57,.1,.64,.23,1.2,.4,.47,.14,.62,.07,1.02,.3,.4,.06,.87,.27,1.45,.4l1.25,.43,.95,.28c.3,.1,.6,.2,.9,.2,9,2.5,18.9,3.8,29.5,4h5.9c11-.1,21.2-1.6,30.5-4.2,.1,0,2.38-.67,2.75-.83m13.75-44.17c-4.7,10.9-17.3,29-49.1,29h-.8c-31.8,0-46.34-17.78-51.04-28.58-4.8-11-2.13-22.9-.83-24.7h0c7.5-2.3,30.39-6.53,51.87-4.63h.72c21.85-2.16,43.97,1.11,51.47,3.41,1.3,1.9,2.41,14.49-2.29,25.49Z" fill="#21cafd"/>
    <ellipse cx="201.1" cy="137.66" rx="16.7" ry="21.4" transform="translate(-33.5 71.66) rotate(-18.68)" fill="#040200" />
    <circle cx="204.3" cy="135.5" r="6.6" fill="#fff" />
    <circle cx="200.2" cy="148.8" r="3" fill="#fff" />
    <ellipse cx="279.25" cy="137.72" rx="21.4" ry="16.7" transform="translate(59.35 358.15) rotate(-71.32)" fill="#040200" />
    <circle cx="276" cy="135.5" r="6.6" fill="#fff" />
    <circle cx="280.1" cy="148.8" r="3" fill="#fff" />
    <ellipse cx="231.7" cy="165.9" rx="4" ry="4.7" fill="#040200" />
    <ellipse cx="248.1" cy="165.9" rx="4" ry="4.7" fill="#040200" />
    <path d="M324.5,181.5c-2.1-9.9-5-17.54-11.36-25.81-.68-.94-2.23-2.88-3.04-4.34l.24-.48,.17-.41c2-4.77,2.69-9.92,2.69-14.75,0-11.02-8.22-35.46-32.7-36.3h-1.2c-18.36,0-26.57,12.82-29.83,20.47-.07,.17-.31,1.4-.5,1.37-2.57-.33-5.17-.63-7.85-.63h-2.67c-3.75,.1-6.45,.15-8.24,.37-3.34-8.23-11.68-21.59-30.1-21.69h-.93c-24.67,.53-32.97,25.15-32.97,36.3,0,4.84,1.02,9.71,2.99,14.42,.05,.14,.53,1.42,.76,2.15-3.61,4.53-6.27,9.14-9.04,14.6-4.8,9.5-6.51,19.8-6.51,30.3,0,8.2,1.15,16.28,3.75,24.08,2,5.8,3.74,10.95,7.64,15.85,7.2,9,14.03,15.03,24.43,19.83,2.08,.89,2.87,1.44,5.05,2.33,.03,.01,2.2,.95,2.2,.95l9.53,3.65c6.1,1.9,12.31,3.13,18.71,3.63,7,.5,14.27,.41,21.27,.41,8.8,0,17.66-1.9,26.06-4.3l7.96-3,1.74-.85,.24-.1,10.21-5.06c8.7-4.6,18.49-12.81,21.9-19,4.7-6.3,7.2-13.4,9-20.9,2.6-11,2.8-22.1,.4-33.1h0Zm-100.99-55.34s.97,8.38,5.27,7.26c4.5-.19,2.94-5.92,2.94-5.92,0,0,.07,1.16,0,0,3.69-.39,11.16-.51,16.45,.09-.1,2.63-.14,5.31,3.32,6,5.26,.8,5.41-7.34,5.41-7.34h0c1.11-11.97,13.46-21.78,23.2-20.27,22.67,3.53,26.95,26.53,26.95,31.75,0,3.41-.17,4.65-1.64,8.33-.22,.3-1.51,2.9-1.6,3.21-.81,2.55-.7,3.83,.33,6.47l2.65,3.72c.81,1.15,4.28,7.78,4.67,8.94,0,0,2.66,5.57,4.16,12.87,2.32,8.57,3.91,18.52,2.31,27.02l-.07,.47c-.77,6.99-3.06,11.73-5.56,16.93-5.32,8.7-7.11,10.73-14.45,17.56-9.9,6.7-21.74,12.93-33.44,15.53-8,1.8-17.38,2.75-25.28,2.65-8.8,.1-18.77-1.8-26.97-3.7-7.27-2.29-11.67-3.13-18.94-6.77-3.36-1.68-7.81-4.08-12.22-7.98-4.96-4.27-10.09-11.25-13.29-18.65-4.8-11-6.14-21.28-5.14-33.28,.8-9.3,3.32-18.72,7.46-25.94,.23-.39,1.56-2.64,1.74-2.95l.26-.42,.7-1.09c-.04-.13,1.06-1.6,1.06-1.6l.61-.89c.22-.27,.37-.59,.66-.94,.04-.05,.57-.79,.61-.84h0c1.14-2.04,1.52-4.56,.08-8.41-.81-1.84-2.05-4.87-2.81-9.65-.69-4.29,2.27-30.64,26.6-32.5,11.37-.87,21.58,12.19,23.98,20.34" />
  </g>
</svg>