<?xml version="1.0" encoding="UTF-8"?>
<svg id="Layer_1" data-name="Layer 1" xmlns="http://www.w3.org/2000/svg" viewBox="0 0 480 480">
  <g>
    <path d="M181.5,303.1s-.7,5.4,4,5c.4,.5,.8,.7,1.8,.7,.3,.7,.5,1.2,1.6,1.8,.1,.7,.5,1.5,1.4,2-.2,1-.9,4.8,3.2,4.8,4.2-.1,5.2-.7,5.2-.7,0,0,1,1.4,3.6,1.4,3.5-.2,5.2-6.3,6.1-9.3,.9-3,3.1-8.6,.2-10.3,.6-2.6,1-5.2-.6-5.7-1.5-.5,.4-2.5,.4-2.5,0,0,1.9-4.3-.9-8.4s1.7-8,1.7-8l1.3-4.5-2.9-6.3-2.9-1.8-23.2,41.8h0Z" fill="#f5c142" />
    <path d="M181.5,308.1c-.6,0-1.2-.1-1.8-.4-2-1-2.8-3.4-1.8-5.4l22.5-45.2c1-2,3.4-2.8,5.4-1.8,2,1,2.8,3.4,1.8,5.4l-22.5,45.2c-.7,1.4-2.1,2.2-3.6,2.2h0Z" fill="#fff" />
    <path d="M206.1,294.8c-.4,0-.7,0-1.1-.2-9.9-2.8-16.7-3.6-16.7-3.6-2.2-.2-3.8-2.2-3.5-4.4,.2-2.2,2.2-3.8,4.4-3.6,.3,0,7.5,.8,18.1,3.8,2.1,.6,3.4,2.8,2.7,4.9-.6,2-2.2,3.1-3.9,3.1h0Z" fill="#040200" />
    <path d="M197.8,304.4c-.6,0-1.3-.1-1.9-.5-2-1-2.7-3.5-1.7-5.4,.3-.5,2.6-4.8,9.1-8.1,2-1,4.4-.2,5.4,1.8s.2,4.4-1.8,5.4c-4.1,2.1-5.6,4.6-5.6,4.7-.7,1.3-2.1,2.1-3.5,2.1Z" fill="#040200" />
    <path d="M205.7,273.4l-3,5.7-2.2,4.5-7.2-.4,3.1-6.7,2.8-5.6c.1,0,.9,1.2,1,1.2l5.5,1.3h0Z" fill="#fff" />
    <polyline points="195.3 283.9 200.4 273.6 204.9 277.7 202.7 285.6" fill="#f5c142" />
    <path d="M196.12,321.37h-.36c-1.97-.19-3.4-2.09-3.22-4.17l.8-8.16c.18-2.09,1.97-3.6,3.94-3.41,1.97,.19,3.4,2.09,3.22,4.17l-.8,8.16c-.18,1.99-1.7,3.41-3.58,3.41Z" fill="#040200" />
    <path d="M210.7,282c-.5,0-1-.1-1.5-.3-2-.8-3-3.1-2.2-5.2,.4-.9,3.2-9.2-5-14.2-1.9-1.1-2.5-3.6-1.3-5.5,1.1-1.9,3.6-2.5,5.5-1.3,11.4,6.9,10.4,18.7,8.3,24-.7,1.5-2.2,2.5-3.8,2.5Z" fill="#040200" />
    <path d="M214.4,279.5c-.6,1.5-2.1,2.5-3.7,2.5-.5,0-1-.1-1.5-.3l-6.5-2.6-5.6-2.2c-.3-.1-.5-.2-.7-.4-1.5-1-2.2-3-1.5-4.8,.8-1.9,2.9-2.9,4.8-2.3,.1,0,.2,.1,.4,.1l6.1,2.4,6,2.4c2.1,.8,3.1,3.1,2.2,5.2h0Z" fill="#040200" />
  </g>
</svg>