<svg version="1.1" id="Layer_1" xmlns="http://www.w3.org/2000/svg" xmlns:xlink="http://www.w3.org/1999/xlink" x="0px" y="0px" viewBox="0 0 480 480" style="enable-background:new 0 0 480 480;" xml:space="preserve">
	<g>
		<path fill="#EAA1D0" d="M319.7,167c0,11-8.1,13.1-12,13.1s-11.2-7.7-12.1-18.8c-0.9-11.1-9.8-9.7-8.4,0.2c1.3,7.4-2.8,9.1-7.1,9.1
	s-6.2-7.9-11.2-7.9c-5.1,0-10.7,11.1-18.5,11.1c-8.4,0-9.5-7.8-9.5-11s1.2-12.8-1.7-12.8c-2.7,0-3.5,9.8-10.3,9.8c-4.7,0-6-4-6-7
	s4.2-10.5-4.6-10.5c-8.8,0-9.6,8.4-9.6,15.4s-0.9,15.6-7.2,15.6c-6.4,0-6.6-4.9-6.6-9.3c0-4.3,5.5-12.4-1.7-12.4
	c-7.1,0-17.7,20.4-26.7,20.4c-7.4,0-7.7-7.2-7.7-9.8c0-6.3,7.6-9.3,11.7-12.4c4.2-3.1,7.8-6,5.4-7.7c-2.4-1.7-9.6-0.5-9.6-6.6
	c0-6.1,12.2-6.9,18.9-6.9s29,4.3,29-3.6c0-6.8-5.7-7.1-5.7-13.1c0-2,1.8-2.8,5.2-2.8c4.8,0,6.5,5.3,9,5.3c4.3,0,3.2-33.8,20.2-48.4
	l5.4,9.4c0,0-7.5,8.1-7.5,25.9c0,5.6-0.4,11.9,2.8,11.9c5.2,0,12.8-12.6,18.5-12.6s7,3.3,7,7c0,5.6-11.5,10.7-11.5,14
	c0,3.4,6.3,2,9.4,2c3.2,0,10.5-1.5,16.3-1.5c7.8,0,14.7,3.6,14.7,9.2c0,5.6-8.8,2.8-8.8,4.2C289.2,139,319.7,152.6,319.7,167z" />
		<path fill="#C9D0DB" d="M293.9,56.1l-5.4,3.1l-29.6,17.1l-5.4,3.1c-1.2,0.7-2.8,0.3-3.5-0.9l-21.8-37.7c-0.7-1.2-0.3-2.8,0.9-3.5
	L269.6,14c1.2-0.7,2.8-0.3,3.5,0.9l21.8,37.7C295.5,53.9,295.1,55.4,293.9,56.1z" />
		<rect x="232.4" y="33.3" transform="matrix(0.866 -0.5 0.5 0.866 15.7002 133.1981)" fill="#FFFFFF" width="48.1" height="8" />
		<path fill="#EAA1D0" d="M288.5,59.3l-29.6,17.1c-0.7-1.8-1-3.8-1-5.8c0-9.6,7.8-17.4,17.4-17.4C280.5,53.1,285.3,55.5,288.5,59.3z" />
		<path fill="#050200" d="M298.7,138.9c-0.5-0.4-1.1-0.7-1.6-1.1c2.3-0.9,4.4-2.7,4.4-6.4c0-7.2-7.8-12.7-18.2-12.7
	c-3.6,0-7.7,0.5-10.9,1c-2.2,0.3-4.2,0.6-5.4,0.6c-0.8,0-1.7,0.1-2.6,0.1c-0.4,0-1,0.1-1.5,0.1c0.5-0.4,1.1-0.9,1.5-1.3
	c3.6-3,8.2-6.7,8.2-11.5c0-6.7-3.8-10.5-10.5-10.5c-4.3,0-8.3,3.8-12.1,7.5c-1.6,1.5-3.9,3.8-5.5,4.7c-0.3-1.6-0.2-4.5-0.2-6.4
	c0-0.5,0-1.1,0-1.6c0-9.3,2.2-15.8,4.1-19.5c1.1,0.9,2.5,1.4,3.9,1.4c1,0,2.1-0.3,3-0.8l1.8-1l0,0L275.2,71l20.5-11.8l0,0
	c1.4-0.8,2.4-2.1,2.8-3.7c0.4-1.6,0.2-3.2-0.6-4.6l-21.8-37.7c-0.8-1.4-2.1-2.4-3.7-2.8c-1.6-0.4-3.2-0.2-4.6,0.6l-14.3,8.3V6
	c0-1.9-1.6-3.5-3.5-3.5s-3.5,1.6-3.5,3.5v17.3l-19.1,11.1c-1.4,0.8-2.4,2.1-2.8,3.6c-0.4,1.6-0.2,3.2,0.6,4.6l13.2,23
	c-10.2,10.5-13.5,26.9-15.6,38c-0.4,2-0.8,4.2-1.3,5.9c-1.7-1.7-4.1-3.7-7.9-3.7c-7.6,0-8.8,3.9-8.8,6.3c0,4.2,2.1,6.6,3.6,8.3
	c1.4,1.6,2.2,2.5,2.2,4.7c-1.7,2.2-14.7,1-19,0.6c-2.6-0.2-4.9-0.5-6.5-0.5c-14.8,0-22.4,3.5-22.4,10.4c0,6.8,5.7,8.3,8.8,8.9
	c-0.8,0.7-1.9,1.5-3.2,2.5c-0.8,0.6-1.8,1.2-2.8,1.8c-4.4,2.7-10.4,6.4-10.4,13.4c0,8.3,4.2,13.2,11.2,13.2c6.3,0,12-6.2,17.4-12.2
	c2.8-3.1,7.4-8.2,9.2-8.2c0,0,0.1,0,0.1,0c-0.1,0.9-0.6,2.3-0.8,3.3c-0.6,1.9-1.1,3.8-1.1,5.6c0,3.5,0,12.8,10.1,12.8
	c10.7,0,10.7-14.4,10.7-19.1c0-10,2.3-11.9,6.1-11.9c1.4,0,1.9,0.2,2.1,0.3c0.2,0.6-0.2,2.5-0.4,3.5c-0.3,1.1-0.5,2.2-0.5,3.3
	c0,6.3,3.8,10.5,9.5,10.5c4.3,0,6.9-2.4,8.7-5c0,0.7-0.1,1.3-0.1,1.8c-0.1,1.1-0.1,2-0.1,2.7c0,6.7,3.4,14.5,13,14.5
	c5.7,0,10.1-4.1,13.6-7.3c1.5-1.4,4-3.7,4.9-3.7c1,0,2.2,1.5,3.5,2.9c1.8,2.2,4.1,4.9,7.8,4.9c3.8,0,6.7-1.1,8.6-3.4
	c2-2.3,2.6-5.6,1.9-9.7c-0.3-1.9,0-3.1,0.2-3.7c0.4,0.6,1,1.9,1.2,4.2c1,12.4,9.2,22,15.6,22c5.8,0,15.5-3.5,15.5-16.6
	C323.2,155.5,308.5,145.5,298.7,138.9z M261.4,70.5c0-7.6,6.2-13.9,13.9-13.9c2.6,0,5.1,0.7,7.2,2l-11.7,6.8l-9.3,5.4
	C261.4,70.7,261.4,70.6,261.4,70.5z M246.6,31.3v23c0,1.9,1.6,3.5,3.5,3.5s3.5-1.6,3.5-3.5V27.3l16.9-9.8l20.8,36.1l-2.3,1.3
	c-3.8-3.4-8.7-5.2-13.8-5.2c-11.5,0-20.9,9.4-20.9,20.9c0,1.4,0.2,2.8,0.4,4.2l-2.3,1.3l-20.8-36.1L246.6,31.3z M307.7,176.6
	c-1.9-0.2-7.9-6-8.7-15.6c-0.4-5.2-2.5-9-5.7-10.4c-0.8-0.4-1.7-0.6-2.6-0.6c-1.4,0-2.7,0.4-3.8,1.3c-2.7,2.1-3.9,6-3.2,10.8
	c0.3,1.9,0.2,3.4-0.3,4.1c-0.5,0.6-1.6,0.9-3.3,0.9c-0.5-0.1-1.8-1.6-2.4-2.4c-1.9-2.3-4.5-5.4-8.8-5.4c-3.6,0-6.6,2.7-9.6,5.6
	c-2.9,2.7-5.9,5.5-8.8,5.5c-5,0-6-4.1-6-7.5c0-0.5,0-1.4,0.1-2.3c0.3-5.8,0.4-10.1-1.8-12.5c-0.9-1-2.1-1.5-3.4-1.5
	c-3.2,0-4.7,2.8-5.9,5.1c-1.7,3.2-2.7,4.6-4.5,4.6c-0.6,0-2.5,0-2.5-3.5c0-0.3,0.2-1.1,0.3-1.7c0.6-2.6,1.5-6.4-0.9-9.4
	c-1.6-2-4.1-2.9-7.5-2.9c-13.1,0-13.1,14.2-13.1,18.9c0,5.5-0.6,12.1-3.7,12.1c-2.3,0-3.1-0.3-3.1-5.8c0-0.8,0.4-2.3,0.8-3.6
	c1-3.2,2.1-6.9,0-9.8c-1.3-1.7-3.3-2.5-5.9-2.5c-4.9,0-9.3,4.8-14.4,10.5c-4,4.4-9.1,10-12.3,10c-1.5,0-4.2,0-4.2-6.2
	c0-2.8,2.9-4.8,7.1-7.4c1.2-0.7,2.3-1.4,3.2-2.1c4.5-3.3,7.6-5.9,7.6-9.3c0-1.6-0.8-3.1-2.2-4.1c-1.3-0.9-2.9-1.3-4.5-1.6
	c-3.6-0.8-3.6-1.1-3.6-2.2c0-1.1,3.9-3.4,15.4-3.4c1.3,0,3.4,0.2,5.9,0.4c11.2,1,20.1,1.5,24.3-2.4c1.5-1.4,2.3-3.2,2.3-5.2
	c0-4.8-2.2-7.4-3.9-9.3c-1-1.2-1.6-1.9-1.8-3c0.4-0.1,0.9-0.1,1.7-0.1c1.3,0,2.2,0.9,3.5,2.2c1.3,1.4,3,3.1,5.5,3.1
	c4.4,0,5.3-4.7,7-13.2c1.9-9.7,4.7-23.9,12.5-33l2,3.4c-2.5,3.7-6.9,12.2-6.9,26.1l0,1.6c0,5.2-0.1,9.7,2.4,12.2
	c1,1,2.4,1.6,3.9,1.6c4,0,7.5-3.4,11.3-7.1c2.1-2.1,5.7-5.5,7.2-5.5c2.8,0,3.5,0.7,3.5,3.5c0,1.5-3.6,4.5-5.6,6.1
	c-3.2,2.6-5.9,4.8-5.9,7.9c0,1.6,0.6,3,1.7,4c2.3,2.2,6,1.9,9.2,1.6c0.8-0.1,1.5-0.1,2.1-0.1c1.6,0,3.8-0.3,6.3-0.6
	c3.2-0.4,6.9-0.9,10-0.9c6.1,0,11.2,2.6,11.2,5.7c-0.7,0.2-2.3,0.2-3,0.3c-1.4,0-5.8,0-5.8,4c0,2.9,2.7,4.8,9.1,9.1
	c8,5.4,21.4,14.4,21.4,22.3C316.2,175.7,310.2,176.6,307.7,176.6z" />
		<circle fill="#050200" cx="195.4" cy="93.6" r="11.9" />
		<circle fill="#EAA1D0" cx="195.4" cy="93.6" r="3.8" />
	</g>
</svg>