<?xml version="1.0" encoding="UTF-8"?>
<svg id="_903d43c2ab556627f8f8619d9595b6c25519141" data-name="8903d43c2ab556627f8f8619d9595b6c25519141" xmlns="http://www.w3.org/2000/svg" viewBox="0 0 480 480">
  <g>
    <path d="M272.2,129.81c-14.01-4.56-25.11-5.01-31.81-4.78-7.31,.25-14.63,1.5-17.34,1.97-6.06,1.05-11.12,2.31-14.9,3.37-7.18,1.64-6.69-.99-7.55-1.84-.6-.59-.53-2.08-2.21-4.97-1.08-1.85-2.17-5.91-2.76-6.99-4.1,1-15.27,2.55-15.27,2.55,0,0,.58,9.35,2.58,14.75,2.4,7,2.69,5.78,1.29,8.28-1.4,1.1-5.32,5.61-6.62,6.81-13,11.6-18.77,28.81-18.77,46.01,0,41.77,27.56,69.56,81.56,69.56s81.86-29.63,81.86-69.19c0-19-7.69-38.52-23.19-50.42-1.4-2.5-3.32-4.23-.92-11.23,2-5.4,1.73-14.56,1.73-14.56,0,0-10.33-1.55-14.43-2.55-1,3.6-2.98,8.87-4.78,13.07m-94.98,68.7c-.2-1.64,.62-4.38,1.9-6.12,3.22-4.39,9.82-2.16,14.01-2.45,17.8-1.2,38.95,0,38.95,0,0,0,21.05-2.26,38.85-1.06,17.8,1.2,15.79,.67,16.49,8.47,.3,5.2,.4,9.52,0,12.12-5.2,24.8-20.85,40.14-55.35,40.14-8.9,0-24.49,1.03-38.07-10.95-11.76-10.37-15.7-21.42-16.64-26.57-.54-4.82,.39-8.76-.15-13.58h.01Z" fill="#FB8C44" />
    <g>
      <path d="M301.51,141.68c-.35-.3-.73-.58-1.08-.88,2.17-7.94,4.53-19.06,4.07-29.59,1.8-4,3-8.8,3.5-14.1,1.4-14.4-3.4-26.6-10.6-27.3-7.3-.7-14.3,10.4-15.7,24.8-.6,6.3,0,12.1,1.4,16.8-2.09,4.18-4.18,9.37-6.27,15.61-11.14-4.34-23.49-6.66-36.4-6.71h-.55c-13.14,0-25.27,2.09-36.08,6.13-1.95-5.88-3.98-10.78-6-14.82,1.5-4.7,2.1-10.7,1.4-17-1.4-14.4-8.4-25.5-15.7-24.8s-12,12.9-10.6,27.3c.5,5.1,1.7,9.8,3.4,13.8-.54,10.33,1.66,21.29,3.86,29.21-.88,.74-1.74,1.5-2.58,2.28-14.39,13.4-22.55,31.82-22.99,51.87-.45,20.57,6.01,38.22,18.67,51.04,14.95,15.13,37.65,23.1,65.72,23.1h1.46c25.12-.24,46.32-6.8,61.32-18.98,16-12.99,24.46-32.03,24.46-55.07,0-20.22-8.78-38.93-24.71-52.68h0Zm-3.2,7.78c4.97,4.25,12.63,11.94,17.31,27.29,.61,2,2.6,8.65,2.6,17.59,0,40.89-29.11,65.58-77.86,66.05-26.55,.28-47.77-6.9-61.42-20.72-11.26-11.4-16.77-26.62-16.36-45.24,.16-7.18,1.65-20.4,9.97-33.58,3-4.75,10.14-12.31,14.14-16.28,1.71-1.7,2.45-4.2,1.76-6.51-.19-.65-1.17-3.28-1.17-3.28,0,0-2.19-5.66-3.59-14.19,0,0,3.3,1.6,5.1,1.4,1.9-.2,3.6-1.1,5-2.7l3.67,9.77c.85,2.34,2.27,5.02,4.58,5.5,1.15,.24,2.11-.15,2.41-.27,3.94-1.53,15.12-6.02,35.94-6.02s27.34,3.61,33.67,6.06c.79,.3,3.25,1.31,5.44,.29,2.37-1.11,3.82-4.81,3.82-4.81,0,0,1.36-3.67,3.98-10.73,.3,.38,2.04,2.51,5.1,2.8,2.55,.24,4.9-1.3,4.9-1.3l-2.82,15.69s-1.88,5.32-.48,8.1c1.22,2.42,4.31,5.08,4.31,5.08h0Z" fill="#050200" />
      <ellipse cx="185.39" cy="88.31" rx="4.1" ry="4.6" fill="#fff" />
      <ellipse cx="295.69" cy="88.31" rx="4.1" ry="4.6" fill="#fff" />
    </g>
  </g>
</svg>