<svg version="1.1" id="Layer_1" xmlns="http://www.w3.org/2000/svg" xmlns:xlink="http://www.w3.org/1999/xlink" x="0px" y="0px" viewBox="0 0 480 480" style="enable-background:new 0 0 480 480;" xml:space="preserve">
	<g>
		<path fill="#050200" d="M256.8,229c-1,0-2-0.5-2.7-1.3c-1.2-1.5-1-3.7,0.6-4.9c10.8-8.6,14.7-15.5,14.8-15.5c0.9-1.7,3.1-2.3,4.8-1.3
			c1.7,0.9,2.3,3.1,1.4,4.7c-0.2,0.3-4.5,8.1-16.5,17.6C258.3,228.7,257.6,229,256.8,229z" />
		<path fill="#050200" d="M223.6,229c-0.8,0-1.5-0.2-2.2-0.8c-12-9.5-16.3-17.3-16.5-17.6c-0.9-1.7-0.3-3.8,1.4-4.8
			c1.7-0.9,3.8-0.3,4.8,1.4c0.1,0.2,4.1,7,14.8,15.5c1.5,1.2,1.8,3.4,0.6,4.9C225.6,228.5,224.6,229,223.6,229z" />
	</g>
</svg>