<svg version="1.1" id="Layer_1" xmlns="http://www.w3.org/2000/svg" xmlns:xlink="http://www.w3.org/1999/xlink" x="0px" y="0px" viewBox="0 0 480 480" style="enable-background:new 0 0 480 480;" xml:space="preserve">
	<g>
		<g>
			<path fill="#050200" d="M229.4,213.3c-0.6-0.5-1.3-0.8-2.2-0.8c-15.3-0.6-23.6,2.4-24,2.5c-1.8,0.7-2.7,2.7-2.1,4.5
		c0.7,1.8,2.7,2.7,4.5,2.1c0.2-0.1,7.7-2.6,21.3-2.1c1.9,0.1,3.6-1.4,3.7-3.3C230.6,215,230.2,214,229.4,213.3z" />
			<path fill="#050200" d="M214,231.2c-0.6-0.5-1-1.1-1.1-2c-2.9-15-1-23.7-1-24.1c0.4-1.9,2.3-3.1,4.2-2.7c1.9,0.4,3.1,2.3,2.7,4.2
		c-0.1,0.2-1.5,8,1.1,21.4c0.4,1.9-0.9,3.8-2.7,4.1C215.8,232.1,214.8,231.8,214,231.2z" />
		</g>
		<g>
			<path fill="#050200" d="M250.3,213.3c0.6-0.5,1.3-0.8,2.2-0.8c15.3-0.6,23.6,2.4,24,2.5c1.8,0.7,2.7,2.7,2.1,4.5
		c-0.7,1.8-2.7,2.7-4.5,2.1c-0.2-0.1-7.7-2.6-21.3-2.1c-1.9,0.1-3.6-1.4-3.7-3.3C249.1,215,249.6,214,250.3,213.3z" />
			<path fill="#050200" d="M265.8,231.2c0.6-0.5,1-1.1,1.1-2c2.9-15,1-23.7,1-24.1c-0.4-1.9-2.3-3.1-4.2-2.7c-1.9,0.4-3.1,2.3-2.7,4.2
		c0.1,0.2,1.5,8-1.1,21.4c-0.4,1.9,0.9,3.8,2.7,4.1C263.9,232.1,265,231.8,265.8,231.2z" />
		</g>
	</g>
</svg>