<svg version="1.1" id="Layer_1" xmlns="http://www.w3.org/2000/svg" xmlns:xlink="http://www.w3.org/1999/xlink" x="0px" y="0px" viewBox="0 0 480 480" style="enable-background:new 0 0 480 480;" xml:space="preserve">
	<g>
		<path fill="#050200" d="M229.8,215c-0.5-0.6-1.2-1-2.1-1.1c-15.1-2.6-23.8-0.5-24.1-0.5c-1.9,0.5-3,2.3-2.6,4.3c0.5,1.9,2.3,3,4.3,2.6
		c0.2-0.1,7.9-1.6,21.4,0.6c1.9,0.3,3.7-0.9,4-2.8C230.8,216.9,230.5,215.8,229.8,215z" />
		<path fill="#050200" d="M251,215c0.5-0.6,1.2-1,2.1-1.1c15.1-2.6,23.8-0.5,24.1-0.5c1.9,0.5,3,2.3,2.6,4.3c-0.5,1.9-2.3,3-4.3,2.6
		c-0.2-0.1-7.9-1.6-21.4,0.6c-1.9,0.3-3.7-0.9-4-2.8C250,216.9,250.3,215.8,251,215z" />
	</g>
</svg>