<svg version="1.1" id="Layer_1" xmlns="http://www.w3.org/2000/svg" xmlns:xlink="http://www.w3.org/1999/xlink" x="0px" y="0px" viewBox="0 0 480 480" style="enable-background:new 0 0 480 480;" xml:space="preserve">
	<g>
		<path fill="#050200" d="M268.8,203.8c0.5,0.6,0.8,1.3,0.7,2.2c-0.1,15.3-3.6,23.5-3.7,23.8c-0.8,1.8-2.8,2.6-4.6,1.8
		c-1.8-0.8-2.6-2.8-1.8-4.6c0.1-0.2,3-7.5,3.1-21.2c0-1.9,1.6-3.5,3.5-3.5C267.2,202.6,268.2,203,268.8,203.8z" />
		<path fill="#050200" d="M211.3,203.8c-0.5,0.6-0.8,1.3-0.7,2.2c0.1,15.3,3.6,23.5,3.7,23.8c0.8,1.8,2.8,2.6,4.6,1.8
		c1.8-0.8,2.6-2.8,1.8-4.6c-0.1-0.2-3-7.5-3.1-21.2c0-1.9-1.6-3.5-3.5-3.5C213,202.6,212,203,211.3,203.8z" />
	</g>
</svg>