<?xml version="1.0" encoding="UTF-8"?>
<svg id="Layer_1" data-name="Layer 1" xmlns="http://www.w3.org/2000/svg" viewBox="0 0 480 480">
  <g>
    <path d="M267.7,298.8l1.8,20.5s4.9,4.2,12.4,9,10.6,8.2,10.6,11c0,4.2-2.1,4.2-2.1,4.2l-8.4-2.2-17.2-7.6-13.5-17.7,2.6-14.5,13.8-2.7Z" fill="#fff" />
    <path d="M289,341.7s2.4,2.7,2.4,7.7c0,3.7-3.3,3.7-3.3,3.7,0,0-1.9,2.7-5.4,.9-1.2,.8-2.3,.9-3.7,.6-1.2,.8-2.9,1.6-5.2,.4-1.8,.8-2.3,.9-3.6,.6-1.3-.3-3.6-2.9-3.6-2.9,0,0-2.5,2.3-4,2.3-1.1,0-1.5-.3-1.5-.3,0,0-2.4,1.3-6-1.2s-7.1-5.7-7.5-7.5-.9-18.8-.9-18.8l-3.6-2.7s0-8.8,.4-11,.2-8,1-9.6,18.5-1.7,18.5-1.7l7.2,22.7,18.8,16.8Z" fill="#7cfb9d" />
    <g>
      <path d="M238.6,326.3c0-2.2,1.8-4,4-4h15.1c2.2,0,4,1.8,4,4,0,.3,0,.5-.1,.7,2.1,2,3.5,4.9,3.5,8.1,0,1.4-.3,2.7-.7,3.9h25c2.2,0,4,1.8,4,4s-1.8,4-4,4h-16v5.1c0,2.2-1.8,4-4,4s-4-1.8-4-4v-5.1h-22c-2.2,0-4-1.8-4-4s1.7-3.9,3.9-4c-.4-1.2-.7-2.5-.7-3.9,0-1.7,.4-3.4,1.1-4.8h-1.1c-2.2,0-4-1.8-4-4Zm18.5,8.8c0-1.8-1.5-3.2-3.2-3.2-1.8,0-3.2,1.5-3.2,3.2s1.5,3.2,3.2,3.2c1.7,.1,3.2-1.4,3.2-3.2Z" fill="#040200" />
      <path d="M245.1,318.1h-.5c-2,0-3.7-1.5-4-3.5-.3-2.2,1.2-4.2,3.4-4.5l22.2-3c2.2-.3,4.2,1.2,4.5,3.4,.3,2.2-1.2,4.2-3.4,4.5l-22.2,3.1Z" fill="#040200" />
      <path d="M239.9,299.4c7.8-.5,27.5-4.4,27.7-4.4,2.2-.4,4.3,1,4.7,3.1,.4,2.2-1,4.3-3.1,4.7-.8,.2-20.4,4-28.8,4.5h-.2c-2.1,0-3.9-1.6-4-3.8-.2-2.1,1.5-4,3.7-4.1Z" fill="#040200" />
    </g>
  </g>
</svg>