<?xml version="1.0" encoding="UTF-8"?>
<svg id="_584f0257b2f52ab11a50612ce61c14c29bda436" data-name="3584f0257b2f52ab11a50612ce61c14c29bda436" xmlns="http://www.w3.org/2000/svg" viewBox="0 0 480 480">
  <g>
    <path d="M289.4,250.9c-1.62,1.33-3.39,2.47-5.18,3.57-2.03,1.81-4.53,3.31-6.81,5.01-.86,1.02-1.77,1.99-2.77,2.91,6.01-3.69,11.05-7.43,15.49-11.44-.24-.01-.48-.01-.73-.04Z" fill="#eb473d" />
    <path d="M285.83,257.64c5.89,7.42,10.72,15.08,11.9,18.73-9.54-1.88-16.25-9.07-19.43-13.19,2.71-1.88,5.18-3.77,7.54-5.54h-.01Z" fill="#eb473d" />
    <path d="M307.54,263.01c-2.21,.58-7.89-.93-12.88-3.48-1.51-2.09-3.02-3.95-4.18-5.46,.23-.23,.58-.46,.81-.7,7.43,3.25,14.28,7.31,16.25,9.63h0Z" fill="#eb473d" />
    <path d="M273.76,267.55c3.3,4.4,10.4,12.2,21.1,14.2,.8,.2,1.6,.2,2.3,.2,3.1,0,4.6-1.4,5.4-2.8,1.4-2.4,1-5.6-1.4-10.2,1.3,.3,2.6,.4,3.9,.4,2.3,0,4.5-.5,6.2-2,1.8-1.5,2.6-3.5,2.2-5.6-.8-5-8.13-9.13-15.03-12.23,.25-.21-.24,.2,0,0-.21-.09-3.65-1.81-3.65-1.81l-5.39,3.18s-3.39,2.47-5.18,3.57c-2.03,1.81-4.53,3.31-6.81,5.01-1.09,1.28-2.25,2.51-3.57,3.62-.57,.68-1.15,1.35-1.73,2.01m7.66-1.45c2.3-1.6,4.4-3.1,6.4-4.6,5,6.3,9.1,12.8,10.1,15.9-8.1-1.6-13.8-7.7-16.5-11.3Zm15.5-4.3c-1.3-1.8-2.6-3.4-3.6-4.7,.2-.2,.5-.4,.7-.6,6.4,2.8,12.3,6.3,14,8.3-1.9,.5-6.8-.8-11.1-3Z" fill="#050200" />
  </g>
</svg>