<svg version="1.1" id="Layer_1" xmlns="http://www.w3.org/2000/svg" xmlns:xlink="http://www.w3.org/1999/xlink" x="0px" y="0px" viewBox="0 0 480 480" style="enable-background:new 0 0 480 480;" xml:space="preserve">
	<g>
		<g>
			<path fill="#FFFFFF" d="M196.1,269.4c0,0.2,0,0.3-0.2,0.5c-1.2,2.1-10,2.7-20.5,2.4c-7.1-0.2-15-0.8-21.8-1.6c0,0,0,0,0,0
			c-6.7-0.8-12.4-1.9-15.5-3c-3.8-1.4-8.8-4.1-13.9-8c-2.3-1.7-4.7-3.7-7-5.9c-4.3-4-8.5-8.7-11.7-13.8c-0.2-0.3-0.4-0.7-0.6-1
			c-2.4-4-4.3-8.2-5.4-12.6c-1.8-7.5-3.6-13-5.2-17.3c0,0,0,0,0,0c-2.7-7-5.1-10.6-6.9-14.3c-1.1-2.4-0.3-6.1,1.9-8.8
			c1.1-1.3,2.7-2.4,4.5-2.8h0c1.4-0.3,3.1-0.2,4.9,0.4c0,0,0,0,0,0c2.4,0.8,5,2.7,7.9,5.9c2.2,2.5,3.9,4.8,5.3,6.9
			c6.7,10.6,4.6,17.8,8.7,26.8c3.7,8.2,19.8,23.3,38.3,27.5c3,0.7,6.1,1.1,9.1,1.1c3,0,6.1-0.3,9.1-1c0,0,2,0.2,4.5,0.7
			c3.9,0.8,9.1,2.3,9.3,4.9c2.3,0.1,3.6,1.6,4.3,3.6C196.2,262.7,196.2,266.3,196.1,269.4z" />
			<path fill="#C9D0DB" d="M196.1,269.4c0,0.2,0,0.3-0.2,0.5c-1.2,2.1-10,2.7-20.5,2.4c-7.8,0.2-15.1-0.4-21.8-1.6c0,0,0,0,0,0
			c-6.7-0.8-12.4-1.9-15.5-3c-3.8-1.4-8.8-4.1-13.9-8c-10.3-6.3-16.9-13.8-19-19.6c-0.1-0.3-0.2-0.7-0.3-1c0,0,0,0,0,0
			c-2.4-4-4.3-8.2-5.4-12.6c-1.8-7.5-3.6-13-5.2-17.3c0,0,0,0,0,0c-1.2-2.3-2.6-4.6-4.2-7c-5.6-8.5-4.7-13.9-1.7-16.7
			c0.3,0.2,0.6,0.4,1,0.7c6.4,4.6,14.7,12.9,17.8,26.8c0.7,3.1,1.6,6.2,2.8,9.3c1.7,4.4,3.8,8.8,6.4,12.9c3.1,4.9,6.9,9.5,11.4,13.4
			c9,7.9,20.8,13,35.3,13c5.4,0,21.7-0.7,32.3-1.2C196.2,262.7,196.2,266.3,196.1,269.4z" />
			<path fill="#FFFFFF" d="M106.1,326.5c0,0,7.9-19.2,36-16.7s30,18.1,8,23.1C114.5,338.3,106.1,326.5,106.1,326.5z" />
			<path fill="#C9D0DB" d="M110,328.2c0,0,18.1-15.8,51.8-6.3c0,0-2.7,12.5-28.6,12.4S110,328.2,110,328.2z" />
			<path fill="#FFFFFF" d="M196.6,270.8c0,0-0.5,7.2-7,9.5c-0.4,0.1-0.8,0.3-1.3,0.4c-5.5,1.2-39.3,18.2-61.2,30c-0.6,0.3-1.2,0.6-1.8,1
			c0,0-0.1,0-0.1,0.1h0c-1.6,0.9-3.2,1.8-4.7,2.6c-0.3,0.1-0.5,0.3-0.8,0.4c-4.2,2.4-7.5,4.3-9.5,5.7c-0.6,0.4-1,0.7-1.4,1
			c-0.6,0.5-1.2,0.8-1.9,0.8c0,0,0,0,0,0h0c-0.2,0-0.3,0-0.5,0c-0.3,0-0.5-0.1-0.8-0.2c0-0.2,0-0.5,0-0.7c0-7.8,3-14.5,7.6-20.3
			c0,0,0,0,0,0c14.5-18,45.6-26.4,53.4-28.3c0,0,0,0,0,0C182,271.4,194.8,270.5,196.6,270.8z" />
			<path fill="#C9D0DB" d="M189.5,278.8c0,0-57.2,3.4-83.5,43.9c0,0,20.8-13.2,28.1-14.4c7.3-1.2,13.1-11.2,36.1-14.1
			c10.8-0.6,10.2-1.3,10.2-1.3s6.8-5,5.2-8C188.2,283,190.1,281,189.5,278.8z" />
			<path fill="#050200" d="M199.7,253.9c-0.6-1.8-2.6-2.8-4.4-2.2c-1.8,0.6-2.8,2.6-2.2,4.4c0,0,1.7,5.1,1,9.3c-0.1,0.4,0,0.9,0,1.3
			c-1.8,0.3-3.6,0.6-5.3,0.9c0.7-5.9,0.3-10.7-0.1-13.8c1.3-0.7,2.1-2.2,1.7-3.8c-0.4-1.9-2.3-3.1-4.1-2.7c0,0-1.9,0.4-4.9,0.7
			c-4.4,0.5-8.8,0.6-13.1,0.3c-3-0.2-5.9-0.5-8.7-1.1c-3.8-0.7-7.3-1.7-10.6-3c-5.2-2-9.4-4.4-13.1-7.1c0,0,0,0,0,0c0,0,0,0,0,0
			c-3.9-3-7.2-6.4-9.8-10.5c-4-6.2-6.9-14-8.7-24c-0.2-1-0.5-2.1-0.7-3c0,0,0-0.1,0-0.1c-0.4-1.5-0.9-3-1.4-4.4
			c-1.6-4.2-3.7-7.5-6.3-10c0.5-10.8-7.5-16.8-12.1-18.5c-1.8-0.7-3.8,0.3-4.5,2.1c-0.7,1.8,0.3,3.8,2.1,4.5c0.3,0.1,5.4,2.1,7,7.5
			c-0.7-0.2-1.3-0.4-2-0.5l-0.4-0.1h0c-1.5-0.3-3-0.4-4.8-0.4c-0.2,0-0.4,0-0.6,0c-1.6,0.1-3.1,0.4-4.5,1l-5.2-5
			c-1.4-1.3-3.6-1.3-4.9,0.1c-1.3,1.4-1.3,3.6,0.1,4.9l4.8,4.6c-1.4,2.4-2.3,6.2-0.3,11.7c-4.6-3-7.9-9.1-7.9-9.2
			c-0.9-1.7-3-2.4-4.7-1.5c-1.7,0.9-2.4,3-1.5,4.7c0.3,0.6,7.6,14.6,18.8,14.6c0.9,1.4,1.7,2.8,2.5,4.2l0,0.6l0.6,0.6
			c2.1,4.1,3.9,8.4,5.6,13.7c1,3,1.9,6,2.8,9.2c0.5,1.7,1,3.5,1.6,5.3l0.1,0.5c0.1,0.4,0.3,0.8,0.4,1.2c1.8,5,6,10.4,11.9,15.3
			c0.1,0.1,0.1,0.1,0.2,0.2c2.5,2.1,5.4,4.1,8.4,6c2.6,1.6,5.3,3,8.1,4.3c0.2,0.1,0.5,0.2,0.7,0.3c5.3,2.4,11,4.4,16.9,5.8
			c0.1,0,0.1,0,0.2,0c0.9,0.2,1.8,0.4,2.7,0.6c-12.6,4.4-29.2,12-39.4,23.8l-1.1,1.3c-5.6,6.9-8.4,14.5-8.4,22.5c0,0.3,0,0.6,0,0.9
			c0,0.7,0.1,1.3,0.2,1.8c0,0.1,0,0.1,0.1,0.2c0,0.1,0,0.1,0.1,0.2c0.2,0.9,0.5,1.8,0.8,2.5c0.7,1.5,1.7,3,2.9,4.3
			c4.4,4.6,11.8,7.1,20.4,7.1c2.3,0,4.7-0.2,7.1-0.5l1.2,0l0.2-0.2c3-0.5,6-1.3,9.1-2.3l-3.1,8.3c0,0.1,0,0.1-0.1,0.2
			c0,0.1-0.1,0.2-0.1,0.4c0,0.1,0,0.2,0,0.3c0,0.1,0,0.2,0,0.4c0,0.1,0,0.2,0,0.3c0,0.1,0,0.2,0,0.3c0,0.1,0.1,0.2,0.1,0.4
			c0,0.1,0,0.1,0.1,0.2c0,0,0,0.1,0,0.1c0,0.1,0.1,0.1,0.1,0.2c0.1,0.1,0.1,0.3,0.2,0.4c0,0.1,0.1,0.1,0.1,0.2
			c0.1,0.1,0.2,0.2,0.3,0.4c0,0,0.1,0.1,0.1,0.1c0.2,0.1,0.3,0.3,0.5,0.4c0,0,0.1,0,0.1,0.1c0.1,0.1,0.3,0.2,0.5,0.2
			c0,0,0.1,0,0.1,0c0,0,0.1,0,0.1,0c0.1,0,0.3,0.1,0.4,0.1c0.1,0,0.1,0,0.2,0c0.2,0,0.4,0,0.6,0c0,0,0,0,0,0c0,0,0,0,0,0s0,0,0,0
			c0,0,0,0,0,0c0.2,0,0.4,0,0.6-0.1c0.1,0,0.1,0,0.2,0c0.1,0,0.3-0.1,0.4-0.1c0,0,0.1,0,0.1,0l9.3-3.8c1.8-0.7,2.7-2.8,1.9-4.6
			c-0.7-1.8-2.8-2.7-4.6-1.9l-2,0.8l1.2-3.3c4.3-0.4,7.6-1.8,10-3.9l6.6,3.2c0,0,0,0,0,0c0.2,0.1,0.4,0.2,0.7,0.2c0.1,0,0.1,0,0.2,0
			c0.2,0,0.4,0.1,0.7,0.1c0,0,0,0,0,0c0.3,0,0.5,0,0.8-0.1c0,0,0.1,0,0.1,0c0.2-0.1,0.5-0.2,0.7-0.3c0,0,0.1,0,0.1-0.1
			c0.2-0.1,0.4-0.3,0.6-0.4c0,0,0.1-0.1,0.1-0.1c0.2-0.2,0.4-0.4,0.5-0.6c0,0,0,0,0,0l4.7-7.3c1-1.6,0.6-3.8-1.1-4.8
			c-1.6-1-3.8-0.6-4.8,1.1l-3,4.7l-2.6-1.2c0.8-2,1.2-3.9,1.2-5.7c0-1.3-0.3-2.6-0.8-3.9c-0.6-1.5-1.6-3.1-3-4.5l3-2.5l4.2,4.2
			c0.7,0.7,1.6,1,2.5,1c0.9,0,1.8-0.3,2.5-1c1.4-1.4,1.4-3.6,0-4.9l-6.4-6.5c0,0-0.1-0.1-0.2-0.1c-0.1-0.1-0.2-0.2-0.3-0.2
			c-0.1-0.1-0.2-0.1-0.3-0.2c-0.1-0.1-0.2-0.1-0.3-0.2c-0.1,0-0.2-0.1-0.3-0.1c-0.1,0-0.2-0.1-0.3-0.1c-0.1,0-0.2,0-0.3-0.1
			c-0.1,0-0.2,0-0.3,0c-0.1,0-0.2,0-0.3,0c-0.1,0-0.2,0-0.3,0c-0.1,0-0.2,0-0.3,0.1c-0.1,0-0.2,0.1-0.3,0.1c-0.1,0-0.2,0.1-0.3,0.1
			c-0.1,0-0.2,0.1-0.3,0.2c-0.1,0.1-0.2,0.1-0.3,0.2c-0.1,0-0.1,0.1-0.2,0.1l-7,5.8c-3-1.3-6.7-2.2-11.2-2.2c-0.3,0-0.6,0-0.9,0
			c8.5-3.7,21.3-7.6,39.5-8.9c1.9-0.1,3.4-1.8,3.2-3.8c-0.1-1.9-1.8-3.4-3.8-3.2c-1.1,0.1-2.1,0.2-3.1,0.3
			c-0.3-5.6-1.9-10.5-3.3-13.9c2-0.1,4.1-0.3,6.2-0.5c0.7,1.3,1.9,3.7,2.5,7.1c0.3,1.5,1.5,2.6,2.9,2.8c0,0.8-0.4,1.8-2.2,1.8v1.4
			c0,0,4,0.5,4.5-3.6c1.2-0.7,2-2.1,1.7-3.6c-0.5-2.8-1.3-5.1-2.1-6.9c1.7-0.3,3.4-0.6,5.1-0.9c0.2,0,0.3-0.1,0.4-0.1
			c1.9-0.5,3-2.3,2.6-4.2c0-0.1,0-0.1-0.1-0.2c0.8-0.5,1.4-1.4,1.5-2.4C201.9,260.5,199.8,254.1,199.7,253.9z M159.5,254.4
			c2.7,0.5,5.4,0.8,8.2,0.9c0,3-0.2,8-1.8,13.3c-3.7-0.2-7.3-0.6-10.8-1.3C157.9,262.9,159,257.9,159.5,254.4z M96.2,205.4
			c-1-1.7-2.1-3.5-3.2-5.3c0,0,0,0,0,0c0,0,0,0,0,0c-2.5-3.7-3.6-6.9-3.5-9.3l4.6,4.4c0.7,0.7,1.6,1,2.4,1c0.9,0,1.8-0.4,2.5-1.1
			c1.3-1.4,1.3-3.6-0.1-4.9l-3.6-3.4c1,0,1.8,0.1,2.6,0.3l0.3,0.1c4.7,1,8.1,4.5,10.4,10.6c0.2,0.6,0.4,1.2,0.6,1.9
			C104.5,204.1,99,205.2,96.2,205.4z M99.5,212c3.2-0.6,7.4-1.9,11.5-4.8c0.7,3.2,1.5,6.2,2.4,9c-3.4,2.6-8,3.6-10.7,3.9
			C101.7,217.2,100.7,214.5,99.5,212z M107.5,235.9c-0.4-1.2-0.7-2.5-1.1-3.7c-0.5-1.8-1-3.6-1.6-5.3c3.1-0.5,7.4-1.6,11.1-4
			c0.8,1.8,1.7,3.6,2.7,5.3C116.1,230.8,111.8,234.4,107.5,235.9z M117.2,250.2c-3.1-2.8-5.4-5.5-6.9-7.9c5.1-1.9,9.6-5.6,12.5-8.3
			c2,2.5,4.1,4.7,6.6,6.8C127.3,243.9,123.3,248.9,117.2,250.2z M132,259.9c-2.1-1-4.1-2.1-6-3.3c-0.8-0.5-1.5-0.9-2.2-1.4
			c5.4-2.6,9-7.1,11.1-10.2c1.1,0.7,2.2,1.3,3.4,2C138,250.2,136.9,256.4,132,259.9z M147.8,265.7c-3-0.8-5.9-1.7-8.7-2.7
			c3.7-4,5.2-9,5.9-12.8c0.5,0.2,1,0.4,1.5,0.6c2,0.8,4.1,1.5,6.2,2.1C152.2,256.2,151.1,261.8,147.8,265.7z M114.5,305.1
			c1.4,0.5,3.3,1.4,4.8,2.7c0.6,0.5,1,1,1.4,1.5c-4.4,1.6-8,3.7-10.8,5.7C110.7,311.6,112.3,308.3,114.5,305.1z M121.4,330.9
			c-4.3-0.7-7.9-2.2-10.1-4.5c-0.7-0.7-1.1-1.4-1.5-2.1c2.1-2.1,7-6.2,14-8.5C122.4,319.7,121.1,325,121.4,330.9z M127.7,307.6
			c-0.8-1.8-2.1-3.5-3.8-5c-1.5-1.3-3.1-2.3-4.6-3c1.7-1.7,3.6-3.3,5.6-4.8c2.2,1,6.3,3.4,9.5,8.2
			C131,304.9,128.9,306.6,127.7,307.6C127.8,307.5,127.8,307.6,127.7,307.6z M139.3,329.5c-2.1,0.6-4.2,1.1-6.3,1.4l-0.8,0.1
			c-1.3,0.2-2.6,0.3-3.8,0.3c-0.6-8.2,2.6-15.1,4-17.7c0.6-0.2,1.4-0.3,2.4-0.5c1.5-0.2,3.1-0.4,4.8-0.6
			C137.5,317.2,136.4,323.3,139.3,329.5z M147.9,312.3c7.6,0.5,11.2,4.2,12.1,6.5c0.2,0.5,0.3,0.9,0.3,1.2c0,0.3-0.1,8-10.1,8.3
			c-1.1,0-2.3,0-3.6-0.2C142.2,321.6,146,315,147.9,312.3z M140.6,299.7c-2.8-4.5-6.2-7.4-9.2-9.3c2.7-1.6,5.4-3.1,8.2-4.4
			c1.9,2,4.9,5.8,7,11.2C144.4,298,142.4,298.8,140.6,299.7z M153.2,294.9c-2-5.2-4.7-9.2-7-11.9c3-1.2,6-2.3,8.6-3.2
			c1.7,2.8,4.6,8,5.9,13.1C158.1,293.5,155.6,294.2,153.2,294.9z M167.7,291.4c-1.4-5.3-4-10.4-5.9-13.8c2.3-0.7,4.1-1.1,5.3-1.4
			l1,0l0.3-0.3c0.2,0,0.3-0.1,0.4-0.1c0.5,0,0.9,0,1.4,0c1.3,2.6,3.7,8.2,4,14.6C172,290.7,169.8,291.1,167.7,291.4z M181.6,268.4
			c-2.1,0.2-4.2,0.3-6.2,0.4c-0.7,0-1.4,0-2.1,0c1.3-5.3,1.6-10.1,1.6-13.3c2.3,0,4.6-0.2,7-0.4
			C182.1,257.9,182.4,262.7,181.6,268.4z" />
		</g>
		<g>
			<path fill="#FFFFFF" d="M284.7,269.4c0,0.2,0,0.3,0.2,0.5c1.2,2.1,10,2.7,20.5,2.4c7.1-0.2,15-0.8,21.8-1.6c0,0,0,0,0,0
			c6.7-0.8,12.4-1.9,15.5-3c3.8-1.4,8.8-4.1,13.9-8c2.3-1.7,4.7-3.7,7-5.9c4.3-4,8.5-8.7,11.7-13.8c0.2-0.3,0.4-0.7,0.6-1
			c2.4-4,4.3-8.2,5.4-12.6c1.8-7.5,3.6-13,5.2-17.3c0,0,0,0,0,0c2.7-7,5.1-10.6,6.9-14.3c1.1-2.4,0.3-6.1-1.9-8.8
			c-1.1-1.3-2.7-2.4-4.5-2.8h0c-1.4-0.3-3.1-0.2-4.9,0.4c0,0,0,0,0,0c-2.4,0.8-5,2.7-7.9,5.9c-2.2,2.5-3.9,4.8-5.3,6.9
			c-6.7,10.6-4.6,17.8-8.7,26.8c-3.7,8.2-19.8,23.3-38.3,27.5c-3,0.7-6.1,1.1-9.1,1.1c-3,0-6.1-0.3-9.1-1c0,0-2,0.2-4.5,0.7
			c-3.9,0.8-9.1,2.3-9.3,4.9c-2.3,0.1-3.6,1.6-4.3,3.6C284.6,262.7,284.6,266.3,284.7,269.4z" />
			<path fill="#C9D0DB" d="M284.7,269.4c0,0.2,0,0.3,0.2,0.5c1.2,2.1,10,2.7,20.5,2.4c7.8,0.2,15.1-0.4,21.8-1.6c0,0,0,0,0,0
			c6.7-0.8,12.4-1.9,15.5-3c3.8-1.4,8.8-4.1,13.9-8c10.3-6.3,16.9-13.8,19-19.6c0.1-0.3,0.2-0.7,0.3-1c0,0,0,0,0,0
			c2.4-4,4.3-8.2,5.4-12.6c1.8-7.5,3.6-13,5.2-17.3c0,0,0,0,0,0c1.2-2.3,2.6-4.6,4.2-7c5.6-8.5,4.7-13.9,1.7-16.7
			c-0.3,0.2-0.6,0.4-1,0.7c-6.4,4.6-14.7,12.9-17.8,26.8c-0.7,3.1-1.6,6.2-2.8,9.3c-1.7,4.4-3.8,8.8-6.4,12.9
			c-3.1,4.9-6.9,9.5-11.4,13.4c-9,7.9-20.8,13-35.3,13c-5.4,0-21.7-0.7-32.3-1.2C284.6,262.7,284.6,266.3,284.7,269.4z" />
			<path fill="#FFFFFF" d="M374.8,326.5c0,0-7.9-19.2-36-16.7s-30,18.1-8,23.1C366.3,338.3,374.8,326.5,374.8,326.5z" />
			<path fill="#C9D0DB" d="M370.8,328.2c0,0-18.1-15.8-51.8-6.3c0,0,2.7,12.5,28.6,12.4S370.8,328.2,370.8,328.2z" />
			<path fill="#FFFFFF" d="M284.2,270.8c0,0,0.5,7.2,7,9.5c0.4,0.1,0.8,0.3,1.3,0.4c5.5,1.2,39.3,18.2,61.2,30c0.6,0.3,1.2,0.6,1.8,1
			c0,0,0.1,0,0.1,0.1h0c1.6,0.9,3.2,1.8,4.7,2.6c0.3,0.1,0.5,0.3,0.8,0.4c4.2,2.4,7.5,4.3,9.5,5.7c0.6,0.4,1,0.7,1.4,1
			c0.6,0.5,1.2,0.8,1.9,0.8c0,0,0,0,0,0h0c0.2,0,0.3,0,0.5,0c0.3,0,0.5-0.1,0.8-0.2c0-0.2,0-0.5,0-0.7c0-7.8-3-14.5-7.6-20.3
			c0,0,0,0,0,0c-14.5-18-45.6-26.4-53.4-28.3c0,0,0,0,0,0C298.8,271.4,286,270.5,284.2,270.8z" />
			<path fill="#C9D0DB" d="M291.3,278.8c0,0,57.2,3.4,83.5,43.9c0,0-20.8-13.2-28.1-14.4c-7.3-1.2-13.1-11.2-36.1-14.1
			c-10.8-0.6-10.2-1.3-10.2-1.3s-6.8-5-5.2-8C292.6,283,290.8,281,291.3,278.8z" />
			<path fill="#050200" d="M281.2,253.9c0.6-1.8,2.6-2.8,4.4-2.2c1.8,0.6,2.8,2.6,2.2,4.4c0,0-1.7,5.1-1,9.3c0.1,0.4,0,0.9,0,1.3
			c1.8,0.3,3.6,0.6,5.3,0.9c-0.7-5.9-0.3-10.7,0.1-13.8c-1.3-0.7-2.1-2.2-1.7-3.8c0.4-1.9,2.3-3.1,4.1-2.7c0,0,1.9,0.4,4.9,0.7
			c4.4,0.5,8.8,0.6,13.1,0.3c3-0.2,5.9-0.5,8.7-1.1c3.8-0.7,7.3-1.7,10.6-3c5.2-2,9.4-4.4,13.1-7.1c0,0,0,0,0,0c0,0,0,0,0,0
			c3.9-3,7.2-6.4,9.8-10.5c4-6.2,6.9-14,8.7-24c0.2-1,0.5-2.1,0.7-3c0,0,0-0.1,0-0.1c0.4-1.5,0.9-3,1.4-4.4c1.6-4.2,3.7-7.5,6.3-10
			c-0.5-10.8,7.5-16.8,12.1-18.5c1.8-0.7,3.8,0.3,4.5,2.1c0.7,1.8-0.3,3.8-2.1,4.5c-0.3,0.1-5.4,2.1-7,7.5c0.7-0.2,1.3-0.4,2-0.5
			l0.4-0.1h0c1.5-0.3,3-0.4,4.8-0.4c0.2,0,0.4,0,0.6,0c1.6,0.1,3.1,0.4,4.5,1l5.2-5c1.4-1.3,3.6-1.3,4.9,0.1
			c1.3,1.4,1.3,3.6-0.1,4.9l-4.8,4.6c1.4,2.4,2.3,6.2,0.3,11.7c4.6-3,7.9-9.1,7.9-9.2c0.9-1.7,3-2.4,4.7-1.5c1.7,0.9,2.4,3,1.5,4.7
			c-0.3,0.6-7.6,14.6-18.8,14.6c-0.9,1.4-1.7,2.8-2.5,4.2l0,0.6l-0.6,0.6c-2.1,4.1-3.9,8.4-5.6,13.7c-1,3-1.9,6-2.8,9.2
			c-0.5,1.7-1,3.5-1.6,5.3l-0.1,0.5c-0.1,0.4-0.3,0.8-0.4,1.2c-1.8,5-6,10.4-11.9,15.3c-0.1,0.1-0.1,0.1-0.2,0.2
			c-2.5,2.1-5.4,4.1-8.4,6c-2.6,1.6-5.3,3-8.1,4.3c-0.2,0.1-0.5,0.2-0.7,0.3c-5.3,2.4-11,4.4-16.9,5.8c-0.1,0-0.1,0-0.2,0
			c-0.9,0.2-1.8,0.4-2.7,0.6c12.6,4.4,29.2,12,39.4,23.8l1.1,1.3c5.6,6.9,8.4,14.5,8.4,22.5c0,0.3,0,0.6,0,0.9
			c0,0.7-0.1,1.3-0.2,1.8c0,0.1,0,0.1-0.1,0.2c0,0.1,0,0.1-0.1,0.2c-0.2,0.9-0.5,1.8-0.8,2.5c-0.7,1.5-1.7,3-2.9,4.3
			c-4.4,4.6-11.8,7.1-20.4,7.1c-2.3,0-4.7-0.2-7.1-0.5l-1.2,0l-0.2-0.2c-3-0.5-6-1.3-9.1-2.3l3.1,8.3c0,0.1,0,0.1,0.1,0.2
			c0,0.1,0.1,0.2,0.1,0.4c0,0.1,0,0.2,0,0.3c0,0.1,0,0.2,0,0.4c0,0.1,0,0.2,0,0.3c0,0.1,0,0.2,0,0.3c0,0.1-0.1,0.2-0.1,0.4
			c0,0.1,0,0.1-0.1,0.2c0,0,0,0.1,0,0.1c0,0.1-0.1,0.1-0.1,0.2c-0.1,0.1-0.1,0.3-0.2,0.4c0,0.1-0.1,0.1-0.1,0.2
			c-0.1,0.1-0.2,0.2-0.3,0.4c0,0-0.1,0.1-0.1,0.1c-0.2,0.1-0.3,0.3-0.5,0.4c0,0-0.1,0-0.1,0.1c-0.1,0.1-0.3,0.2-0.5,0.2
			c0,0-0.1,0-0.1,0c0,0-0.1,0-0.1,0c-0.1,0-0.3,0.1-0.4,0.1c-0.1,0-0.1,0-0.2,0c-0.2,0-0.4,0-0.6,0c0,0,0,0,0,0c0,0,0,0,0,0s0,0,0,0
			c0,0,0,0,0,0c-0.2,0-0.4,0-0.6-0.1c-0.1,0-0.1,0-0.2,0c-0.1,0-0.3-0.1-0.4-0.1c0,0-0.1,0-0.1,0l-9.3-3.8c-1.8-0.7-2.7-2.8-1.9-4.6
			c0.7-1.8,2.8-2.7,4.6-1.9l2,0.8l-1.2-3.3c-4.3-0.4-7.6-1.8-10-3.9l-6.6,3.2c0,0,0,0,0,0c-0.2,0.1-0.4,0.2-0.7,0.2
			c-0.1,0-0.1,0-0.2,0c-0.2,0-0.4,0.1-0.7,0.1c0,0,0,0,0,0c-0.3,0-0.5,0-0.8-0.1c0,0-0.1,0-0.1,0c-0.2-0.1-0.5-0.2-0.7-0.3
			c0,0-0.1,0-0.1-0.1c-0.2-0.1-0.4-0.3-0.6-0.4c0,0-0.1-0.1-0.1-0.1c-0.2-0.2-0.4-0.4-0.5-0.6c0,0,0,0,0,0l-4.7-7.3
			c-1-1.6-0.6-3.8,1.1-4.8c1.6-1,3.8-0.6,4.8,1.1l3,4.7l2.6-1.2c-0.8-2-1.2-3.9-1.2-5.7c0-1.3,0.3-2.6,0.8-3.9
			c0.6-1.5,1.6-3.1,3-4.5l-3-2.5l-4.2,4.2c-0.7,0.7-1.6,1-2.5,1c-0.9,0-1.8-0.3-2.5-1c-1.4-1.4-1.4-3.6,0-4.9l6.4-6.5
			c0,0,0.1-0.1,0.2-0.1c0.1-0.1,0.2-0.2,0.3-0.2c0.1-0.1,0.2-0.1,0.3-0.2c0.1-0.1,0.2-0.1,0.3-0.2c0.1,0,0.2-0.1,0.3-0.1
			c0.1,0,0.2-0.1,0.3-0.1c0.1,0,0.2,0,0.3-0.1c0.1,0,0.2,0,0.3,0c0.1,0,0.2,0,0.3,0c0.1,0,0.2,0,0.3,0c0.1,0,0.2,0,0.3,0.1
			c0.1,0,0.2,0.1,0.3,0.1c0.1,0,0.2,0.1,0.3,0.1c0.1,0,0.2,0.1,0.3,0.2c0.1,0.1,0.2,0.1,0.3,0.2c0.1,0,0.1,0.1,0.2,0.1l7,5.8
			c3-1.3,6.7-2.2,11.2-2.2c0.3,0,0.6,0,0.9,0c-8.5-3.7-21.3-7.6-39.5-8.9c-1.9-0.1-3.4-1.8-3.2-3.8c0.1-1.9,1.8-3.4,3.8-3.2
			c1.1,0.1,2.1,0.2,3.1,0.3c0.3-5.6,1.9-10.5,3.3-13.9c-2-0.1-4.1-0.3-6.2-0.5c-0.7,1.3-1.9,3.7-2.5,7.1c-0.3,1.5-1.5,2.6-2.9,2.8
			c0,0.8,0.4,1.8,2.2,1.8v1.4c0,0-4,0.5-4.5-3.6c-1.2-0.7-2-2.1-1.7-3.6c0.5-2.8,1.3-5.1,2.1-6.9c-1.7-0.3-3.4-0.6-5.1-0.9
			c-0.2,0-0.3-0.1-0.4-0.1c-1.9-0.5-3-2.3-2.6-4.2c0-0.1,0-0.1,0.1-0.2c-0.8-0.5-1.4-1.4-1.5-2.4C279,260.5,281.1,254.1,281.2,253.9
			z M321.3,254.4c-2.7,0.5-5.4,0.8-8.2,0.9c0,3,0.2,8,1.8,13.3c3.7-0.2,7.3-0.6,10.8-1.3C322.9,262.9,321.8,257.9,321.3,254.4z
			 M384.6,205.4c1-1.7,2.1-3.5,3.2-5.3c0,0,0,0,0,0c0,0,0,0,0,0c2.5-3.7,3.6-6.9,3.5-9.3l-4.6,4.4c-0.7,0.7-1.6,1-2.4,1
			c-0.9,0-1.8-0.4-2.5-1.1c-1.3-1.4-1.3-3.6,0.1-4.9l3.6-3.4c-1,0-1.8,0.1-2.6,0.3l-0.3,0.1c-4.7,1-8.1,4.5-10.4,10.6
			c-0.2,0.6-0.4,1.2-0.6,1.9C376.3,204.1,381.8,205.2,384.6,205.4z M381.3,212c-3.2-0.6-7.4-1.9-11.5-4.8c-0.7,3.2-1.5,6.2-2.4,9
			c3.4,2.6,8,3.6,10.7,3.9C379.1,217.2,380.2,214.5,381.3,212z M373.3,235.9c0.4-1.2,0.7-2.5,1.1-3.7c0.5-1.8,1-3.6,1.6-5.3
			c-3.1-0.5-7.4-1.6-11.1-4c-0.8,1.8-1.7,3.6-2.7,5.3C364.7,230.8,369,234.4,373.3,235.9z M363.7,250.2c3.1-2.8,5.4-5.5,6.9-7.9
			c-5.1-1.9-9.6-5.6-12.5-8.3c-2,2.5-4.1,4.7-6.6,6.8C353.5,243.9,357.6,248.9,363.7,250.2z M348.8,259.9c2.1-1,4.1-2.1,6-3.3
			c0.8-0.5,1.5-0.9,2.2-1.4c-5.4-2.6-9-7.1-11.1-10.2c-1.1,0.7-2.2,1.3-3.4,2C342.8,250.2,343.9,256.4,348.8,259.9z M333,265.7
			c3-0.8,5.9-1.7,8.7-2.7c-3.7-4-5.2-9-5.9-12.8c-0.5,0.2-1,0.4-1.5,0.6c-2,0.8-4.1,1.5-6.2,2.1C328.6,256.2,329.7,261.8,333,265.7z
			 M366.3,305.1c-1.4,0.5-3.3,1.4-4.8,2.7c-0.6,0.5-1,1-1.4,1.5c4.4,1.6,8,3.7,10.8,5.7C370.1,311.6,368.5,308.3,366.3,305.1z
			 M359.4,330.9c4.3-0.7,7.9-2.2,10.1-4.5c0.7-0.7,1.1-1.4,1.5-2.1c-2.1-2.1-7-6.2-14-8.5C358.4,319.7,359.7,325,359.4,330.9z
			 M353.1,307.6c0.8-1.8,2.1-3.5,3.8-5c1.5-1.3,3.1-2.3,4.6-3c-1.7-1.7-3.6-3.3-5.6-4.8c-2.2,1-6.3,3.4-9.5,8.2
			C349.8,304.9,351.9,306.6,353.1,307.6C353,307.5,353.1,307.6,353.1,307.6z M341.5,329.5c2.1,0.6,4.2,1.1,6.3,1.4l0.8,0.1
			c1.3,0.2,2.6,0.3,3.8,0.3c0.6-8.2-2.6-15.1-4-17.7c-0.6-0.2-1.4-0.3-2.4-0.5c-1.5-0.2-3.1-0.4-4.8-0.6
			C343.3,317.2,344.4,323.3,341.5,329.5z M332.9,312.3c-7.6,0.5-11.2,4.2-12.1,6.5c-0.2,0.5-0.3,0.9-0.3,1.2c0,0.3,0.1,8,10.1,8.3
			c1.1,0,2.3,0,3.6-0.2C338.6,321.6,334.8,315,332.9,312.3z M340.3,299.7c2.8-4.5,6.2-7.4,9.2-9.3c-2.7-1.6-5.4-3.1-8.2-4.4
			c-1.9,2-4.9,5.8-7,11.2C336.4,298,338.5,298.8,340.3,299.7z M327.6,294.9c2-5.2,4.7-9.2,7-11.9c-3-1.2-6-2.3-8.6-3.2
			c-1.7,2.8-4.6,8-5.9,13.1C322.7,293.5,325.2,294.2,327.6,294.9z M313.1,291.4c1.4-5.3,4-10.4,5.9-13.8c-2.3-0.7-4.1-1.1-5.3-1.4
			l-1,0l-0.3-0.3c-0.2,0-0.3-0.1-0.4-0.1c-0.5,0-0.9,0-1.4,0c-1.3,2.6-3.7,8.2-4,14.6C308.9,290.7,311,291.1,313.1,291.4z
			 M299.3,268.4c2.1,0.2,4.2,0.3,6.2,0.4c0.7,0,1.4,0,2.1,0c-1.3-5.3-1.6-10.1-1.6-13.3c-2.3,0-4.6-0.2-7-0.4
			C298.7,257.9,298.4,262.7,299.3,268.4z" />
		</g>
	</g>
</svg>