<svg xmlns="http://www.w3.org/2000/svg" viewBox="0 0 480 480">
	<g>
		<path fill="#3EE6FF" d="M338.8,241c0,9.2-7.3,16.6-12.9,21.4c-8.9,7-18.6,4.8-18.6,10.1c0,4.6,9.8,6.8,9.8,14.9c0,5.7-2.7,12-7.6,12
	s-8.1-3.3-8.1-3.3c-1.4-2.7-2.7-5.1-3.8-7.5c0,0,0-0.1-0.1-0.1c0-0.1-0.1-0.3-0.2-0.4c-4.6-8.9-8.8-16-11.8-20.8
	c-3-4.8-4.9-7.4-4.9-7.4c16.5-6.2,25.4-14.2,30.5-20.6c0.5-0.6,1-1.2,1.4-1.8c0.2-0.2,0.3-0.4,0.5-0.6c0.3-0.4,0.6-0.7,0.8-1.1
	c1.4-2,2.4-3.8,3.2-5C331.2,226.3,338.8,231.8,338.8,241z" />
		<g>
			<image style="overflow:visible;" width="114" height="143" xlink:href="CA1BEC7E.png" transform="matrix(1 0 0 1 261 193)"></image>
		</g>
		<path fill="#050200" d="M320.9,221.2c25.9-2.1,26,17.4,26,19.6c0,24-28.3,33.8-28.3,33.8s6.6,4.6,6.6,14c0,13.7-10.6,18.8-15.4,18.8
	s-7.4-1.8-7.4-1.8l-24.3-47C305.6,247.8,316.6,224.6,320.9,221.2z M301.4,296.1c0,0,3.2,3.3,8.1,3.3s7.6-6.3,7.6-12
	c0-8.1-9.8-10.3-9.8-14.9c0-5.3,9.7-3.1,18.6-10.1c5.6-4.8,12.9-12.2,12.9-21.4s-7.6-14.7-21.8-10.2c-0.8,1.2-1.8,3-3.2,5
	c-4.6,6.7-13.4,16.7-33.2,24.1c0,0,7.4,10.3,16.7,28.2C298.6,290.6,300,293.3,301.4,296.1z" />
		<g>

			<image style="overflow:visible;enable-background:new    ;" width="114" height="143" xlink:href="CA1BEC7E.png" transform="matrix(-1 0 0 1 218.88 193)"></image>
			<path fill="#3EE6FF" d="M141.1,241c0,9.2,7.3,16.6,12.9,21.4c8.9,7,18.6,4.8,18.6,10.1c0,4.6-9.8,6.8-9.8,14.9c0,5.7,2.7,12,7.6,12
		s8.1-3.3,8.1-3.3c1.4-2.7,2.7-5.1,3.8-7.5c0,0,0-0.1,0.1-0.1c0-0.1,0.1-0.3,0.2-0.4c4.6-8.9,8.8-16,11.8-20.8
		c3-4.8,4.9-7.4,4.9-7.4c-16.5-6.2-25.4-14.2-30.5-20.6c-0.5-0.6-1-1.2-1.4-1.8c-0.2-0.2-0.3-0.4-0.5-0.6c-0.3-0.4-0.6-0.7-0.8-1.1
		c-1.4-2-2.4-3.8-3.2-5C148.7,226.3,141.1,231.8,141.1,241z" />
			<g>
				<image style="overflow:visible;" width="114" height="143" xlink:href="CA1BEC82.png" transform="matrix(1 0 0 1 104.48 193)"></image>
			</g>
			<path fill="#050200" d="M159,221.2c-25.9-2.1-26,17.4-26,19.6c0,24,28.3,33.8,28.3,33.8s-6.6,4.6-6.6,14c0,13.7,10.6,18.8,15.4,18.8
		s7.4-1.8,7.4-1.8l24.3-47C174.3,247.8,163.3,224.6,159,221.2z M178.5,296.1c0,0-3.2,3.3-8.1,3.3s-7.6-6.3-7.6-12
		c0-8.1,9.8-10.3,9.8-14.9c0-5.3-9.7-3.1-18.6-10.1c-5.6-4.8-12.9-12.2-12.9-21.4s7.6-14.7,21.8-10.2c0.8,1.2,1.8,3,3.2,5
		c4.6,6.7,13.4,16.7,33.2,24.1c0,0-7.4,10.3-16.7,28.2C181.3,290.6,179.9,293.3,178.5,296.1z" />
		</g>
	</g>
</svg>