<svg version="1.1" id="Layer_1" xmlns="http://www.w3.org/2000/svg" xmlns:xlink="http://www.w3.org/1999/xlink" x="0px" y="0px" viewBox="0 0 480 480" style="enable-background:new 0 0 480 480;" xml:space="preserve">
	<g>
		<path fill="#050200" d="M98.7,353.1c-13,0-18.2-40-18.2-66.4c0-5.1,1.1-11.2,1.1-15.3c0-12.1,8-21.2,13.3-38.7
		c3.9-12.1,6.8-12.7,11.6-17c4.8-4.3,11.4-11.4,15.4-17.5s5.6-8.2,14.3-8.2s10.9,3.1,13.3,14c2.4,10.9,8.7,15.6,13,26.7
		c3.7,9.4,13.7,11.4,21.5,14.6c7.9,3.2,15.9,6.4,20.1,12.1c-2.6,5-26.8,48.5-26.8,48.5s-2.7-2.9,0.6-9.3c-3.9,1.2-5.5,0-12.3,12.1
		c0,6.4-2.1,15.8-9.4,15.8c-7.3,0-10.4-14.2-10.4-14.2s-11.2-15.3-15.3-15.3s-21.6,17.7-25,33C107.1,335.4,111,353.1,98.7,353.1z" />
		<path fill="#EB473D" d="M156.5,316.1c0,0-4-3.7-4-17.8c0-5.5-0.5-17.2-0.5-23.8s2.7-19.8,2.7-27.6c0-7-9-20.7-12.3-26
		c-3.3-5.2-5.9-11.9-9-11.9c-3.1,0-21.9,22.6-25.2,28.6c-3.3,6-8,16.9-10.5,23c-2.5,6.1-3.3,21.5-3.3,27.2s0,17.4,4,43.7
		c1.4,7.7,2.7,12.7,0,12.7s-5.1-10.4-6.5-18.7c-0.8-4-3.4-16.8-3.4-35.4c0-2.8-0.9-22.5,5.1-34c2.7-5.6,7.9-21.4,9.7-24.7
		c1.8-3.3,21-23,23.1-26.4c2.2-3.4,2.8-7.7,8.2-7.7c5.4,0,6.8,0.6,8.1,10.5c1.7,3.4,10.2,18.7,16.6,28.8c4.3,8.4,8.3,9.6,14.5,11.7
		c6.3,2.1,23.1,8.9,25.4,10.4c-1.5,2.7-3.2,4.7-3.2,4.7s-8-5.7-29.4-10.9c-5-0.7-6.6,5.5-7.3,11.6c-0.7,6.1-2.2,15.4-2.2,25
		s1,15.6,1,19.5S156.5,316.1,156.5,316.1z" />
		<path fill="#050200" d="M381.9,353.1c13,0,18.2-40,18.2-66.4c0-5.1-1.1-11.2-1.1-15.3c0-12.1-8-21.2-13.3-38.7
		c-3.9-12.1-6.8-12.7-11.6-17c-4.8-4.3-11.4-11.4-15.4-17.5c-4-6.1-5.6-8.2-14.3-8.2c-8.7,0-10.9,3.1-13.3,14
		c-2.4,10.9-8.7,15.6-13,26.7c-3.7,9.4-13.7,11.4-21.5,14.6c-7.9,3.2-15.9,6.4-20.1,12.1c2.6,5,26.8,48.5,26.8,48.5s2.7-2.9-0.6-9.3
		c3.9,1.2,5.5,0,12.3,12.1c0,6.4,2.1,15.8,9.4,15.8c7.3,0,10.4-14.2,10.4-14.2s11.2-15.3,15.3-15.3s21.6,17.7,25,33
		C373.5,335.4,369.6,353.1,381.9,353.1z" />
		<g>
			<path fill="#FF8D0A" d="M103.7,312.4c0,0-1.5-14.9-1.5-21.1s1.5-23.9,1.5-23.9s8-19.4,10.2-23.8c3.6-6.7,15.8-20,19-23
			c2.3,4.1,13.9,21.9,13.9,28s-2.5,19.3-2.5,32.3c0,10.2,0.6,15.5,0.6,15.5s-8.7-9.3-14.1-9.3C119.3,287.1,103.7,312.4,103.7,312.4z
			" />
			<path fill="#FF8D0A" d="M165.5,295.1c0,0-1.4-16.2,2.4-34.5c0,0,19.4,5.9,24.3,9.5c-3.1,4.7-10.4,19-10.4,19S171.4,287.1,165.5,295.1
			z" />
			<path fill="#FF8D0A" d="M376.9,312.4c0,0,1.5-14.9,1.5-21.1s-1.5-23.9-1.5-23.9s-8-19.4-10.2-23.8c-3.6-6.7-15.8-20-19-23
			c-2.3,4.1-13.9,21.9-13.9,28s2.5,19.3,2.5,32.3c0,10.2-0.6,15.5-0.6,15.5s8.7-9.3,14.1-9.3C361.3,287.1,376.9,312.4,376.9,312.4z" />
			<path fill="#FF8D0A" d="M315.1,295.1c0,0,1.4-16.2-2.4-34.5c0,0-19.4,5.9-24.3,9.5c3.1,4.7,10.4,19,10.4,19S309.2,287.1,315.1,295.1z
			" />
		</g>
		<path fill="#EB473D" d="M324.1,316.1c0,0,4-3.7,4-17.8c0-5.5,0.5-17.2,0.5-23.8s-2.7-19.8-2.7-27.6c0-7,9-20.7,12.3-26
		s5.9-11.9,9-11.9c3.1,0,21.9,22.6,25.2,28.6c3.3,6,8,16.9,10.5,23c2.5,6.1,3.3,21.5,3.3,27.2s0,17.4-4,43.7
		c-1.4,7.7-2.7,12.7,0,12.7s5.1-10.4,6.5-18.7c0.8-4,3.4-16.8,3.4-35.4c0-2.8,0.9-22.5-5.1-34c-2.7-5.6-7.9-21.4-9.7-24.7
		c-1.8-3.3-21-23-23.1-26.4c-2.2-3.4-2.8-7.7-8.2-7.7c-5.4,0-6.8,0.6-8.1,10.5c-1.7,3.4-10.2,18.7-16.6,28.8
		c-4.3,8.4-8.3,9.6-14.5,11.7c-6.3,2.1-23.1,8.9-25.4,10.4c1.5,2.7,3.2,4.7,3.2,4.7s8-5.7,29.4-10.9c5-0.7,6.6,5.5,7.3,11.6
		s2.2,15.4,2.2,25s-1,15.6-1,19.5S324.1,316.1,324.1,316.1z" />
	</g>
</svg>