<svg version="1.1" id="Layer_1" xmlns="http://www.w3.org/2000/svg" xmlns:xlink="http://www.w3.org/1999/xlink" x="0px" y="0px" viewBox="0 0 480 480" style="enable-background:new 0 0 480 480;" xml:space="preserve">
	<g>
		<path fill="#050200" d="M204.1,258c0,0-1.5-1.4-3.2-2.4c-1.7-1-3.6-3.2-11.4-6.5s-13.9-5.6-17.6-11c-3.2-3.7-9.5-7.8-9.5-7.8l3.1,5.1
		c0,0-8.4-2-14.2-3.5c-5.8-1.5-10.2-2.9-12.2-2.9c-2,0-7.8,1.6-7.8,8.8c0,9.2,12.6,13.4,12.6,13.4s-4.2,11,14.8,18.2
		c0,0-5.4,16.6,23.3,19c0,0,3.1-1.1,5.4-4.2c2.4-3.1,7.2-6.6,8.8-9.8c1.6-3.2,3.4-7.3,4.6-9.6C202.1,262.5,204.1,258,204.1,258z" />
		<path fill="#FFFFFF" d="M172.2,243.5c0,0,9.9,10.8,26.9,16.3c0,0-8.8,12.8-13.5,21.4c0,0-2.9,0.4-8.5-0.6s-13.1-4.3-11.9-9.1
		c5.3,1,16.8,4.1,16.8-2c0-3.1-3-3.7-5.4-3.7c-2.4,0-26.3-4-26.3-12.1c0,0,15.7,5.3,20.3,5.3c2.7,0,3.6-2.2,3.6-3.4
		c0-1.2,0.5-3-5.1-4.3c-5.9-1.4-31.5-7-30.3-14.4C139.1,236.8,159.6,242.1,172.2,243.5z" />
		<path fill="#050200" d="M275.9,258c0,0,1.5-1.4,3.2-2.4c1.7-1,3.6-3.2,11.4-6.5s13.9-5.6,17.6-11c3.2-3.7,9.5-7.8,9.5-7.8l-3.1,5.1
		c0,0,8.4-2,14.2-3.5s10.2-2.9,12.2-2.9c2,0,7.8,1.6,7.8,8.8c0,9.2-12.6,13.4-12.6,13.4s4.2,11-14.8,18.2c0,0,5.4,16.6-23.3,19
		c0,0-3.1-1.1-5.4-4.2c-2.4-3.1-7.2-6.6-8.8-9.8c-1.6-3.2-3.4-7.3-4.6-9.6C277.9,262.5,275.9,258,275.9,258z" />
		<path fill="#FFFFFF" d="M307.8,243.5c0,0-9.9,10.8-26.9,16.3c0,0,8.8,12.8,13.5,21.4c0,0,2.9,0.4,8.5-0.6s13.1-4.3,11.9-9.1
		c-5.3,1-16.8,4.1-16.8-2c0-3.1,3-3.7,5.4-3.7s26.3-4,26.3-12.1c0,0-15.7,5.3-20.3,5.3c-2.7,0-3.6-2.2-3.6-3.4c0-1.2-0.5-3,5.1-4.3
		c5.9-1.4,31.5-7,30.3-14.4C341,236.8,320.5,242.1,307.8,243.5z" />
	</g>
</svg>