<?xml version="1.0" encoding="UTF-8"?>
<svg id="Layer_1" data-name="Layer 1" xmlns="http://www.w3.org/2000/svg" viewBox="0 0 480 480">
  <g>
    <path d="M187.77,273.59l19.76,7.93c-.58,2.02-1.15,4.18-1.87,6.49l-20.48-8.51,2.6-5.91h-.01Z" fill="#fff" />
    <path d="M220.7,278.84l4.45-1.47-1.15,16.47c-7.7,.2-14.76-.91-16.76-1.51,1.5-7.8,4.1-13.81,4.2-13.91,.8-1.8,.85-2.46-.95-3.26-1.4-.6-2.43-.19-3.43,.81l-9.85-4.17,5.71-7.46,13.35,12.96c.5,.9,.65,1.87,1.65,2.07,.3,.1,.67-.07,.97-.07,.7,0,.92,.36,1.52-.04l.28-.42h0Z" fill="#fff" />
    <path d="M211.64,264.78c4.18,.74,9.1,1.48,14.52,2.09l-.25,4.55-5.91,2.09-8.37-8.73h0Z" fill="#fff" />
    <path d="M250.63,271.64l-.28-5.17c6.01-.7,11.61-1.54,16.5-2.38l-9.51,9.93-6.71-2.38h0Z" fill="#fff" />
    <path d="M266,279.12s2,5.55,3.5,13.45c-2,.6-8.21,2.16-15.91,1.96l-1.26-16.99,4.34,1.58c.6,.4,1.22,.75,1.92,.75h.92c1-.2,1.36-.82,1.86-1.82l12.89-13.96,5.78,7.92-9.78,3.5c-1-1.1-2.17-1.31-3.57-.61-1.8,.8-1.61,1.75-.81,3.45l.11,.77h0Z" fill="#fff" />
    <path d="M289.18,274.09l2.46,5.6-19.4,7.92c-.55-2.32-1.23-4.24-1.78-6.01l18.72-7.51Z" fill="#fff" />
    <path d="M192.7,269s-3.23-1.43-4.91-.47c-.66,.38-1.04,.89-1.39,1.67-1.73,3.91-3.7,8.37-4.6,10.4-.2,.44-.5,1.23-.28,2.08,.41,1.58,2.28,2.22,2.28,2.22,0,0,1.64,.88,2.5,1.31,1.75,.88,3.45,1.68,5.1,2.39,12.1,2,11.87,3.48,12.77,5.94,.24,.66,2.06,4.05,5.82,4.45s6.2,.8,11.1,.8c1.6,0,3.4,0,5.3-.1,2.6-.1,4.7-2.1,4.9-4.8l1.66-26.6c2.3,.1,4.67,.14,7.07,.14s2.46-.11,4.76-.21l1.6,26.66c.2,2.6,1.31,4.43,5.02,4.57,1.9,.1,5.89,.33,7.49,.33,4.8,0,6.22-.27,11.1-.8s5.44-3.8,5.69-4.45c.81-2.15,.53-4.39,12.63-6.39,2.55-1.05,5.64-2.3,7.65-3.16s3-2.59,2.5-4.15c-.77-2.37-4.84-9.3-6.45-11.8s-5.39-.33-5.39-.33l-9.96-14.34s-7.92,6.19-36.71,6.19-37.8-5.83-37.8-5.83l-9.46,14.26v.02Zm10.11,16.8l-14.2-5.9,1.8-4.1,13.7,5.5c-.4,1.4-.8,2.9-1.3,4.5Zm20.4,7.2c-7.7,.2-12.5-.4-14.5-1,1.5-7.8,3.8-13.2,3.9-13.3,.8-1.8,0-3.8-1.8-4.6-1.4-.6-3-.2-4,.8l-8.4-3.4,4.6-6.4,12.5,13.3c.5,.9,1.4,1.6,2.4,1.8,.3,.1,.6,.1,.9,.1,.7,0,1.4-.2,2-.6l3.2-1.2-.8,14.5h0Zm1.4-22l-4.8,1.7-6.8-7.1c3.4,.6,7.4,1.2,11.8,1.7l-.2,3.7h0Zm28.1-3.8c4.3-.5,8.3-1.1,11.8-1.7l-6.8,7.1-4.8-1.7-.2-3.7h0Zm18,7.7c-1-1.1-2.6-1.5-4-.8-1.8,.8-2.6,2.9-1.8,4.6,0,0,2.4,5.4,3.9,13.3-2,.6-6.8,1.2-14.5,1l-.9-14.4,3.2,1.2c.6,.4,1.3,.6,2,.6,.3,0,.6-.1,.9-.1,1-.2,1.9-.8,2.4-1.8l12.5-13.3,4.6,6.4-8.3,3.3h0Zm3.9,10.9c-.4-1.7-.9-3.1-1.3-4.4l13.7-5.5,1.8,4.1-14.2,5.8Z" fill="#050200" />
  </g>
</svg>