<?xml version="1.0" encoding="UTF-8"?>
<svg id="Layer_1" data-name="Layer 1" xmlns="http://www.w3.org/2000/svg" viewBox="0 0 480 480">
  <g>
    <path d="M298.55,303.1l-23.2-41.8-2.9,1.8-2.9,6.3,1.3,4.5s4.5,3.9,1.7,8c-2.8,4.1-.9,8.4-.9,8.4,0,0,1.9,2,.4,2.5-1.6,.5-1.2,3.1-.6,5.7-2.9,1.7-.7,7.3,.2,10.3,.9,3,2.6,9.1,6.1,9.3,2.6,0,3.6-1.4,3.6-1.4,0,0,1,.6,5.2,.7,4.1,0,3.4-3.8,3.2-4.8,.9-.5,1.3-1.3,1.4-2,1.1-.6,1.3-1.1,1.6-1.8,1,0,1.4-.2,1.8-.7,4.7,.4,4-5,4-5h0Z" fill="#21CAFD" />
    <path d="M298.55,308.1c-1.5,0-2.9-.8-3.6-2.2l-22.5-45.2c-1-2-.2-4.4,1.8-5.4,2-1,4.4-.2,5.4,1.8l22.5,45.2c1,2,.2,4.4-1.8,5.4-.6,.3-1.2,.4-1.8,.4h0Z" fill="#fff" />
    <path d="M273.95,294.8c-1.7,0-3.3-1.1-3.9-3.1-.7-2.1,.6-4.3,2.7-4.9,10.6-3,17.8-3.8,18.1-3.8,2.2-.2,4.2,1.4,4.4,3.6,.3,2.2-1.3,4.2-3.5,4.4,0,0-6.8,.8-16.7,3.6-.4,.2-.7,.2-1.1,.2h0Z" fill="#040200" />
    <path d="M278.75,302.84c0-.1-1.5-2.6-5.6-4.7-2-1-2.8-3.4-1.8-5.4s3.4-2.8,5.4-1.8c6.5,3.3,8.8,7.6,9.1,8.1,1,1.9,.3,4.4-1.7,5.4-.6,.4-1.3,.5-1.9,.5-1.4,0-2.8-.8-3.5-2.1Z" fill="#040200" />
    <path d="M274.35,273.4l5.5-1.3c.1,0,.9-1.2,1-1.2l2.8,5.6,3.1,6.7-7.2,.4-2.2-4.5-3-5.7h0Z" fill="#fff" />
    <polyline points="277.35 285.6 275.15 277.7 279.65 273.6 284.75 283.9" fill="#21CAFD" />
    <path d="M279.91,318.09l-.83-8.4c-.18-2.15,1.29-4.1,3.32-4.3,2.03-.2,3.87,1.37,4.05,3.52l.83,8.4c.18,2.15-1.29,4.1-3.32,4.3h-.37c-1.94,0-3.5-1.47-3.69-3.52Z" fill="#040200" />
    <path d="M265.55,279.5c-2.1-5.3-3.1-17.1,8.3-24,1.9-1.2,4.4-.6,5.5,1.3,1.2,1.9,.6,4.4-1.3,5.5-8.2,5-5.4,13.3-5,14.2,.8,2.1-.2,4.4-2.2,5.2-.5,.2-1,.3-1.5,.3-1.6,0-3.1-1-3.8-2.5Z" fill="#040200" />
    <path d="M265.65,279.5c-.9-2.1,.1-4.4,2.2-5.2l6-2.4,6.1-2.4c.2,0,.3-.1,.4-.1,1.9-.6,4,.4,4.8,2.3,.7,1.8,0,3.8-1.5,4.8-.2,.2-.4,.3-.7,.4l-5.6,2.2-6.5,2.6c-.5,.2-1,.3-1.5,.3-1.6,0-3.1-1-3.7-2.5h0Z" fill="#040200" />
  </g>
</svg>