<svg xmlns="http://www.w3.org/2000/svg" viewBox="0 0 480 480">
  <g>
    <path d="M205.7,281.9s-.6,4.4-.7,7.5,3.3,1.3,3.3,6.2c0,4,1,1.4,1,5s-2.1,15.5-7.6,15.5c-1.7,1.8-2.7,3-4.5,3-1.7,0-2.5-1.1-2.5-1.1,0,0-.7,.5-1.9,.5-1.3,0-3.7-1-3.7-4.4-2.2,0-3.7-2-3.7-4s1.7-4.1,1.7-4.1c0,0-4.6,0-4.6-4.1,0-3.1,5.4-13,7.7-17.9s4.5-10.1,7.8-10.2c.7-3.2,.6-9.9,5.5-9.9,1.1-2.2,2.3-4.5,4.7-4.5,1.6,0,2.2,.8,2.2,.8,0,0,2.2-.8,3.4,.7,.9-.3,3.2,1.7,3,4.7s-7.9,15.8-11.1,16.3h0Z" fill="#F6CAAA" />
    <path d="M214.14,260.4c-.08-.01-.15-.04-.22-.05-.22,.95-.28,1.89-.32,2.55,0,10.7-7.1,10.6-7.1,14.9,0,1.6,1,4.1,3.8,4.1,3.68,0,11.33-8.13,11.39-20.25-2.56,.03-5.03-.9-7.56-1.25Z" fill="#040200" />
    <path d="M274.3,281.9s.6,4.4,.7,7.5c.2,3.1-3.3,1.3-3.3,6.2,0,4-1,1.4-1,5s2.1,15.5,7.6,15.5c1.7,1.8,2.7,3,4.5,3,1.7,0,2.5-1.1,2.5-1.1,0,0,.7,.5,1.9,.5s3.7-1,3.7-4.4c2.2,0,3.7-2,3.7-4s-1.6-4.1-1.6-4.1c0,0,4.6,0,4.6-4.1,0-3.1-5.4-13-7.7-17.9-2.3-4.9-4.5-10.1-7.8-10.2-.7-3.2-.6-9.9-5.5-9.9-1.1-2.2-2.3-4.5-4.7-4.5-1.6,0-2.2,.8-2.2,.8,0,0-2.2-.8-3.4,.7-.9-.3-3.2,1.7-3,4.7s7.8,15.8,11,16.3h0Z" fill="#F6CAAA" />
    <path d="M266.4,262.9c-.04-.72-.11-1.77-.37-2.79-2.55,.35-5.1,.44-7.67,.44-.04,.35-.06,.68-.06,.95,0,12.2,7.7,20.4,11.4,20.4,2.8,0,3.8-2.5,3.8-4.1,0-4.3-7.1-4.2-7.1-14.9Z" fill="#040200" />
  </g>
</svg>