<svg xmlns="http://www.w3.org/2000/svg" viewBox="0 0 480 480">
  <g>
    <path d="M315.2,171.7h-29.1c-7.2,.4-30.8,.2-51.9,0h-43.7c-1.4,.1-2.6,.2-3.5,0h-24.2c5.1-26.4,37.3-46.7,76.2-46.7s71.1,20.3,76.2,46.7Z" fill="#86e2fe" />
    <path d="M286.1,171.7c-7.2,.4-30.8,.2-51.9,0-19.8-.2-37.4-.5-37.4-.5-2,0-4.3,.3-6.3,.5-1.4,.1-2.6,.2-3.5,0-2.1-.4-2.4-2.1,1.2-7.1,.8-1.1,1.7-2.3,2.6-3.5,4-5.2,9.3-11.1,15.6-15.3,2.8-1.9,5.9-3.4,9.1-4.4h.2c3.7-1.1,7.6-1.5,11.8-.9,.3,.2,.7,.4,1,.6,3.3,2,5.3,3.5,7.1,4.2,2.2,.9,4,.7,6.8-1.3,5.4-3.7,19.6-5.1,31.2,4.2,11.5,9.5,26.4,22.8,12.5,23.5h0Z" fill="#f4cce5" />
    <g>
      <path d="M297.1,170.1c-.7-1.3-17.8-33-42.6-33-7.7,0-13.1,2.1-16,6.4-2.9-4.2-8.3-6.4-16-6.4-24.9,0-41.9,31.7-42.6,33-.9,1.7-.3,3.8,1.5,4.7,.5,.3,1.1,.4,1.6,.4,1.3,0,2.5-.7,3.1-1.9,.1-.1,3.3-6.2,8.8-12.8l15.7,1.3h.3c1.8,0,3.3-1.4,3.5-3.2,.2-1.9-1.3-3.6-3.2-3.8l-10.1-.9c6-5.5,13.3-10.1,21.5-10.1,3.6,0,8.4,.6,10.3,3.3,1,1.4,1.1,3.1,.9,4.5l-12.5-1.1c-1.9-.2-3.6,1.2-3.8,3.2-.2,1.9,1.2,3.6,3.2,3.8l15.5,1.4h1c.1,0,.2-.1,.3-.1s.2-.1,.4-.1c.1,0,.2-.1,.2-.1,.1-.1,.2-.1,.3-.2,.1,0,.1-.1,.2-.1s.1,.1,.2,.1c.1,.1,.3,.2,.4,.2,0,0,.1,0,.1,.1,.2,.1,.4,.1,.6,.2h0c.3,.1,.5,.1,.8,.1h.3l15.5-1.4c1.9-.2,3.3-1.9,3.2-3.8-.2-1.9-1.9-3.4-3.8-3.2l-12.5,1.1c-.1-1.4,0-3.1,.9-4.5,1.9-2.7,6.6-3.3,10.3-3.3,8.2,0,15.5,4.5,21.5,10.1l-10.1,.9c-1.9,.2-3.4,1.9-3.2,3.8,.2,1.8,1.7,3.2,3.5,3.2h.3l15.7-1.3c5.5,6.6,8.7,12.6,8.8,12.8,.6,1.2,1.8,1.9,3.1,1.9,.6,0,1.1-.1,1.6-.4,1.6-1,2.2-3.1,1.3-4.8h0Z" fill="#777574" />
      <path d="M276.5,163.5l-14,4.9c-1.8,.6-2.8,2.6-2.1,4.5,.5,1.4,1.9,2.3,3.3,2.3,.4,0,.8-.1,1.2-.2l14-4.9c1.8-.6,2.8-2.6,2.1-4.5-.7-1.8-2.7-2.8-4.5-2.1Z" fill="#777574" />
      <path d="M253.4,161.6l-6.6,7.8c-1.3,1.5-1.1,3.7,.4,4.9,.7,.6,1.5,.8,2.3,.8,1,0,2-.4,2.7-1.2l6.6-7.8c1.3-1.5,1.1-3.7-.4-4.9s-3.7-1-5,.4Z" fill="#777574" />
      <path d="M214.5,168.4l-14-4.9c-1.8-.6-3.8,.3-4.5,2.1-.6,1.8,.3,3.8,2.1,4.5l14,4.9c.4,.1,.8,.2,1.2,.2,1.4,0,2.8-.9,3.3-2.3,.7-1.9-.3-3.9-2.1-4.5Z" fill="#777574" />
      <path d="M223.5,161.6c-1.3-1.5-3.5-1.7-4.9-.4-1.5,1.3-1.7,3.5-.4,4.9l6.6,7.8c.7,.8,1.7,1.2,2.7,1.2,.8,0,1.6-.3,2.3-.8,1.5-1.3,1.7-3.5,.4-4.9l-6.7-7.8h0Z" fill="#777574" />
      <path d="M238.6,162.5c-1.9,0-3.5,1.6-3.5,3.5v5.8c0,1.9,1.6,3.5,3.5,3.5s3.5-1.6,3.5-3.5v-5.8c0-2-1.6-3.5-3.5-3.5Z" fill="#777574" />
    </g>
    <ellipse cx="197.81" cy="152.9" rx="11.2" ry="7.7" transform="translate(-52.04 143.82) rotate(-35.62)" fill="#fff" />
    <ellipse cx="218.69" cy="141.11" rx="7.5" ry="4.7" transform="translate(-27.27 56.02) rotate(-13.75)" fill="#fff" />
    <line x1="162.8" y1="172.3" x2="315.81" y2="172.1" fill="#fff" stroke="#000" stroke-miterlimit="10" stroke-width="8" />
  </g>
</svg>