<svg xmlns="http://www.w3.org/2000/svg" viewBox="0 0 480 480">
  <g>
    <path d="M316.8,155.3c0-4.4-1.2-28.3-17.6-56.1-2.7-4.5-8.2-6.5-13.1-4.5-11.1,4.5-30.4,13.6-39.3,26.3-.25-.02-.49-.03-.73-.05-.35,.99-.85,1.92-1.4,2.84-.4,.67-.82,1.32-1.21,2-.18,.31-.34,.62-.5,.94h0v.02c-.03,.07-.07,.15-.1,.22,0,.02-.02,.05-.03,.07-.1,.65-.24,1.31-.44,1.95h.5c-.5,1.8-.8,3.7-.8,5.6,0,8.5,8.5,12.2,13.7,12.2,3.4,0,5.6-1.5,7.8-3.8,5,1.2,16.2,4.1,27,9.8v2.3c0,8.9,7,16.3,14.8,16.3,2.3,0,4.2-.6,5.7-1.6,.16,.25,.31,.5,.46,.75,.87-.91,1.51-1.89,2.25-3.05,.79-1.26,1.74-2.37,2.25-3.74,.1-.3,.19-.6,.27-.91,.08-.32,.22-.61,.38-.88-.17-.22-.33-.45-.5-.67,.4-2,.6-4.1,.6-6Zm-47.2-19.4c3.4-3.8,7.8-7.9,15.3-10.6,0,0,3.2,7.3,4.9,17.6-6.7-2.8-13.6-5.1-20.2-7Z" fill="#040200" />
    <path d="M237.49,129c-.37-1.6-.9-3.08-1.69-4.55-.63-1.19-1.37-2.3-1.96-3.49-.22,.02-.45,.03-.64,.05-8.8-12.7-28.1-21.8-39.3-26.3-4.9-2-10.5,0-13.1,4.5-16.4,27.8-17.6,51.7-17.6,56.1,0,1.9,.2,4,.6,6-.13,.16-.25,.34-.38,.5,.42,1.89,.64,3.94,1.33,5.7,.63,1.62,1.98,2.47,3.47,3.21,.19-.31,.38-.61,.58-.91,1.5,1,3.4,1.6,5.7,1.6,7.8,0,14.8-7.4,14.8-16.3v-2.3c10.8-5.6,22-8.6,27-9.8,2.2,2.3,4.5,3.8,7.8,3.8,5.2,0,13.7-3.8,13.7-12.2,0-1.9-.3-3.8-.8-5.6h.49Zm-47.09,13.9c1.7-10.3,4.9-17.6,4.9-17.6,7.5,2.7,11.9,6.8,15.3,10.6-6.7,1.9-13.6,4.2-20.2,7Z" fill="#040200" />
    <path d="M210.5,135.9c-6.6,1.9-13.5,4.2-20.1,7,1.7-10.2,4.9-17.6,4.9-17.6,7.4,2.7,11.9,6.7,15.2,10.6Z" fill="#eaa1d0" />
    <g>
      <path d="M175.5,162.4c-4.7,0-4.1-6.4-4.1-8.4s0-26.7,15.7-50.2c.8-1.2,2.4-1.8,3.8-1.3,4.3,1.4,13.8,5,21.8,11.1,10.8,8.1,17.4,13.9,17.4,20.3,0,3.2-2.6,4.8-5.7,4.8-2.6,0-4-3.3-6.3-6.1-4.5-6.5-18.9-16.8-24.6-16.8s-11,23.7-11.8,32-1.2,14.6-6.2,14.6Z" fill="#fbeb4e" />
      <path d="M304.5,162.4c4.7,0,4.1-6.4,4.1-8.4s0-26.7-15.7-50.2c-.8-1.2-2.4-1.8-3.8-1.3-4.3,1.4-13.8,5-21.8,11.1-10.8,8.1-17.4,13.9-17.4,20.3,0,3.2,2.6,4.8,5.7,4.8,2.6,0,4-3.3,6.3-6.1,4.5-6.5,18.9-16.8,24.6-16.8s11,23.7,11.8,32c.8,8.3,1.3,14.6,6.2,14.6Z" fill="#fbeb4e" />
    </g>
    <path d="M269.6,135.9c6.6,1.9,13.5,4.2,20.1,7-1.7-10.2-4.9-17.6-4.9-17.6-7.4,2.7-11.9,6.7-15.2,10.6Z" fill="#eaa1d0" />
  </g>
</svg>