<?xml version="1.0" encoding="UTF-8"?>
<svg id="Layer_1" data-name="Layer 1" xmlns="http://www.w3.org/2000/svg" viewBox="0 0 480 480">
  <g>
    <path d="M179.2,295.3l-2.1,2.2c-1.3,1.4-1.3,3.6,.1,4.9,.7,.7,1.6,1,2.4,1,.9,0,1.8-.4,2.5-1.1l2.1-2.2c1.3-1.4,1.3-3.6-.1-4.9-1.3-1.3-3.6-1.3-4.9,.1Z" fill="#fff" />
    <path d="M199.1,260.1s-4.57,8.97-12.3,16.6c-1.29,1.27-.05,.49-8.7,6.3-7.3,4.9-14.3,9.5-14.3,19.7,0,15,9.1,24.7,14.6,29.1,1.8,1.5,4.1,2.3,6.4,2.3h.4c-1.5,4.8-1.3,9.2-1.2,11.9v1.5c0,11.5,6.5,11.5,22.4,11.5h16.1c6.5,0,13.2-2.5,17.3-7.9,4,5.4,10.8,7.9,17.3,7.9h16.1c15.8,0,22.4,0,22.4-11.5v-1.5c.1-2.7,.3-7.2-1.2-11.9h.4c2.3,0,4.5-.8,6.4-2.3,5.4-4.4,14.6-14.1,14.6-29.1,.2-10.3-6.8-14.9-14.1-19.7-7.37-4.84-6.83-4.74-8.7-6.3-3.65-3.03-8.38-8.07-12.3-16.6l-6.2,2c3.03,7.78,10.06,16.45,14.5,19.7,7.99,5.85,9.4,6.8,9.4,6.8,7.3,4.9,11.1,7.7,11.1,13.9-.5,12.3-8.1,20.2-12.5,23.8-.9,.8-2.2,.9-3.3,.4h-.1c-6.5-14.2-7.3-27.2-7.3-27.3-.1-1.9-1.8-3.4-3.7-3.3-1.9,.1-3.4,1.8-3.3,3.7,0,.5,.5,9.2,4.2,20.4-.4-.3-.9-.5-1.3-.8-5.3-4.4-10-10.3-10-17.4,0-4.5,1.4-7.4,2.3-8.7,1.2-1.8,1.6-4.1,1.1-6.1l-2.7-11.1c-.5-1.9-2.4-3-4.2-2.6-1.9,.5-3,2.4-2.6,4.2l2.7,11.1c.1,.3-.1,.5-.1,.6-1.6,2.4-3.4,6.5-3.4,12.5,0,5.5,1.9,10.3,4.8,14.4-7,.6-11.8,5.4-13.9,8.9-1,1.7-.4,3.8,1.3,4.8,1.7,.9,3.8,.4,4.8-1.3,.6-1,5.7-9,16.3-3.4,1.8,1.4,3.5,2.7,5.2,3.8,5.5,5.5,5.3,12.2,5.1,16.6v1.8c0,3.3-.5,3.5-1.1,3.8-2.1,.8-6.9,.8-14.2,.8h-16.1c-5.7,0-12.2-2.6-13.6-9.8v-38.8c0-1.9-1.6-3.5-3.5-3.5s-3.5,1.6-3.5,3.5v38.2c-1.2,7.6-8.1,10.3-13.9,10.3h-16.1c-7.3,0-12.1,0-14.2-.8-.7-.2-1.1-.4-1.1-3.8v-1.8c-.2-4.4-.4-11.1,5.1-16.6,1.7-1.1,3.5-2.3,5.2-3.8,10.6-5.6,15.7,2.5,16.3,3.4,1,1.7,3.1,2.3,4.8,1.3,1.7-1,2.3-3.1,1.3-4.8-2-3.5-6.8-8.3-13.9-8.9,2.8-4.1,4.8-9,4.8-14.4,0-6-1.9-10.1-3.4-12.5-.1-.1-.2-.4-.1-.6l2.7-11.1c.5-1.9-.7-3.8-2.6-4.2-1.9-.5-3.8,.7-4.2,2.6l-2.7,11.1c-.5,2.1-.1,4.3,1.1,6.1,.9,1.3,2.3,4.2,2.3,8.7,0,7.1-4.7,13.1-10,17.4-.5,.3-.9,.5-1.3,.8,3.7-11.2,4.2-19.9,4.2-20.4,.1-1.9-1.4-3.6-3.3-3.7-1.9-.1-3.6,1.4-3.7,3.3,0,.1-.8,13.1-7.3,27.3h-.1c-1.1,.5-2.3,.4-3.3-.4-4.5-3.6-12-11.6-12-23.7,0-6.2,3.8-9,11.1-13.9,0,0,4.82-3.24,9.4-6.8,6.71-5.22,14.5-19.7,14.5-19.7l-7.4-2Z" fill="#040200" />
    <path d="M300.8,295.3l2.1,2.2c1.3,1.4,1.3,3.6-.1,4.9-.7,.7-1.6,1-2.4,1-.9,0-1.8-.4-2.5-1.1l-2.1-2.2c-1.3-1.4-1.3-3.6,.1-4.9,1.3-1.3,3.6-1.3,4.9,.1Z" fill="#fff" />
  </g>
</svg>