<svg xmlns="http://www.w3.org/2000/svg" viewBox="0 0 480 480">
  <g>
    <path d="M330.3,213.5c-.2,.5-.3,1-.5,1.5-1.2,4.2-3,10.7-15,10.7h-13.8c3.9,2.7,9.1,7.7,13.4,16.8,2.7,5.2,.2,11-3.8,13.2-1.2,.6-2.5,1-3.9,1-3,0-6.4-1.8-8.9-6.2-2.2-3.9-5.4-7.2-7.6-9.1-7.5,9.2-19.7,16.8-38.9,25.1-3.3,2.2-7.2,3.4-11.4,3.4s-8.1-1.2-11.3-3.4c-8.8-3.8-16.1-7.5-22.2-11.2-.2,.1-.3,.2-.5,.2-1.2,.4-2.5,.6-3.9,.6-4.6,0-9.8-2.4-13.9-7-5.4-5.9-7-13.2-4.6-18.4-.7-1.6-1.2-3.4-1.7-5.1h-16.1c-11.9,0-13.8-6.4-15-10.7-.2-.5-.3-1-.5-1.5-.9-2.7-2.9-8.9,.2-13.2,1.7-2.4,4.6-3.6,8.4-3.6h21.2c.8-7.1,2.8-11.8,6.2-15.1,7.3-7.3,20.1-7.2,43.4-7.1h20.6c23.3-.1,36.1-.2,43.4,7.1,3.4,3.4,5.3,8,6.2,15.1h21.8c3.8,0,6.7,1.2,8.4,3.6,3.2,4.3,1.2,10.6,.3,13.3Z" fill="#2e2e2e" />
    <rect x="254.52" y="188.17" width="7" height="52.2" transform="translate(-68.34 136.94) rotate(-26.38)" fill="#fff" />
    <g>
      <path d="M240,187.4c-33.2,0-46.9,0-46.9,23.9,0,5.4,.8,10.1,2.2,14,.5,1.5,1.1,2.8,1.8,4.1,2.9,5.5,6.9,9.1,11,11.2,1.4,.7,2.8,1.2,4.1,1.5,1.2,.3,2.3,.4,3.4,.4,1.9,0,3.6-.5,5.3-1.4,2.5-1.3,4.8-3.3,7.3-5.4,3.8-3.3,7.7-6.7,11.8-6.7s8,3.4,11.8,6.7c2.4,2.1,4.8,4.1,7.3,5.4,1.7,.9,3.4,1.4,5.3,1.4,9.4,0,22.6-9.7,22.6-31.1-.1-24-13.8-24-47-24Zm31,45.4c-2.4,1.8-4.8,2.5-6.5,2.6h-.2c-2.1,0-5.1-2.6-8-5.1-4.5-3.9-9.7-8.4-16.4-8.4s-11.8,4.5-16.4,8.4c-2.9,2.5-5.9,5.1-8,5.1-4.9,0-15.6-6.1-15.6-24.1,0-15.4,3.4-16.9,39.9-16.9h4.2c2.8,0,5.5,0,7.9,.1,25.3,.5,27.9,3.2,27.9,16.8,.1,11.5-4.3,18.2-8.8,21.5Z" fill="#040200" />
      <path d="M330.2,200.3c-1.7-2.4-4.6-3.6-8.4-3.6h-21.8c-.8-7.1-2.8-11.8-6.2-15.1-7.3-7.3-20.1-7.2-43.4-7.1h-20.6c-23.3-.1-36.1-.2-43.4,7.1-3.4,3.4-5.3,8-6.2,15.1h-21.2c-3.8,0-6.7,1.2-8.4,3.6-3.1,4.3-1,10.5-.2,13.2,.2,.5,.3,1,.5,1.5,1.2,4.2,3.1,10.7,15,10.7h16.1c.5,1.8,1,3.5,1.7,5.1,.7,1.7,1.5,3.4,2.4,5,3.6,6.2,8.9,11.6,16.4,16.8,1.3,.9,2.7,1.8,4.1,2.7,6.1,3.7,13.4,7.4,22.2,11.2,1.6,.7,3.3,1.4,5,2.1,2,.8,4.2,1.2,6.3,1.2s4.3-.4,6.3-1.2c1.7-.7,3.4-1.4,5-2.2,19.2-8.3,31.5-15.8,38.9-25.1,2.2,2,5.4,5.2,7.6,9.1,2.5,4.4,5.8,6.2,8.9,6.2,1.4,0,2.7-.4,3.9-1,4-2.2,6.5-8,3.8-13.2-4.3-9.2-9.5-14.2-13.4-16.8h13.8c11.9,0,13.8-6.4,15-10.7,.1-.5,.3-1,.5-1.5,.8-2.6,2.8-8.9-.2-13.1Zm-164.5,18.3c-6.7,0-7.2-1.8-8.3-5.6-.2-.6-.3-1.1-.5-1.7-1.6-4.8-1.2-6.4-.8-6.9,.3-.4,1.3-.7,2.7-.7h20.8v2.6c0,4.5,.2,8.5,.8,12.3h-14.7Zm94.2,36.2c-1.5,.7-3,1.5-4.6,2.2-2.3,1.1-4.8,2.2-7.3,3.3-1.4,.6-2.8,1.2-4.3,1.8-2.3,1-5,1-7.3,0-1.5-.6-2.9-1.2-4.3-1.8-2.6-1.1-5-2.2-7.3-3.3-1.6-.7-3.1-1.5-4.6-2.2-3.1-1.5-5.9-3-8.5-4.5-1-.6-2.1-1.2-3-1.8-1.1-.7-2.1-1.4-3.1-2-6.3-4.4-10.6-9-13.6-14.2-.6-1-1.1-2.1-1.6-3.2-.5-1.1-.9-2.2-1.2-3.3-1.8-5.5-2.5-11.8-2.5-19.4,0-10.7,1.4-16.6,4.6-19.8,4.5-4.5,14.5-5.1,30.5-5.1h28.8c20.7-.1,33.2-.2,38.4,5,3.2,3.2,4.6,9.1,4.6,19.8-.2,23.9-7.2,35.4-33.7,48.5Zm48.3-9.3l.1,.2c.9,1.6,0,3.4-.9,3.9-1.4,.7-3-1.9-3.3-2.5-2.9-5.2-7.1-9.2-9.8-11.5,.8-1.5,1.6-3,2.2-4.6,2.9,1.8,7.6,5.9,11.7,14.5Zm15.5-34.2c-.2,.6-.3,1.2-.5,1.7-1.1,3.8-1.6,5.6-8.2,5.6h-15.3c.5-3.8,.8-7.9,.8-12.3v-2.6h21.4c1.4,0,2.4,.3,2.7,.7,.3,.5,.7,2.1-.9,6.9Z" fill="#040200" />
    </g>
    <circle cx="240" cy="249.1" r="17.2" fill="#c9d0db" />
    <path d="M259.1,240.9c-3.2-7.4-10.5-12.6-19.1-12.6s-15.9,5.2-19.1,12.6c-1.1,2.5-1.7,5.3-1.7,8.2,0,2,.3,3.9,.8,5.7,1.4,4.8,4.5,8.9,8.6,11.6,3.3,2.2,7.2,3.4,11.3,3.4s8.1-1.2,11.4-3.4c4.1-2.7,7.2-6.8,8.6-11.6,.5-1.8,.8-3.7,.8-5.7,0-2.9-.6-5.7-1.6-8.2Zm-11.1,19.4c-2.2,1.6-5,2.6-8,2.6s-5.7-1-8-2.6c-3.5-2.5-5.8-6.6-5.8-11.2,0-7.6,6.2-13.7,13.7-13.7s13.7,6.2,13.7,13.7c.1,4.6-2.1,8.7-5.6,11.2Z" fill="#040200" />
    <ellipse cx="197.51" cy="240.61" rx="9.2" ry="13.9" transform="translate(-110.48 195.4) rotate(-42.27)" fill="#c9d0db" />
    <path d="M212.2,242c-.7-3.4-2.5-6.8-5.3-9.9-3.4-3.8-7.6-6.1-11.6-6.8-2.2-.4-4.4-.2-6.3,.5-1.2,.4-2.3,1.1-3.3,2s-1.7,1.9-2.3,3.1c-2.4,5.1-.8,12.5,4.6,18.4,4.1,4.5,9.3,7,13.9,7,1.4,0,2.7-.2,3.9-.6,.2-.1,.4-.1,.5-.2,1-.4,2-1,2.8-1.8,1-.9,1.8-2,2.3-3.2,1.3-2.7,1.5-5.5,.8-8.5Zm-7.7,6.3c-2,1.8-7.2,.5-11.2-3.9s-4.8-9.8-2.8-11.6c.4-.3,.8-.6,1.4-.7,.3-.1,.7-.1,1.1-.1,2.5,0,5.9,1.5,8.8,4.7,3,3.3,4.2,7.2,3.8,9.6-.3,.9-.6,1.5-1.1,2Z" fill="#040200" />
    <g>
      <path d="M220.9,240.9c-1.1,2.5-1.7,5.3-1.7,8.2,0,2,.3,3.9,.8,5.7-3.1-1.5-5.9-3-8.5-4.5,1.1-2.4,1.3-5.3,.7-8.3,1.2,.3,2.3,.4,3.4,.4,1.9,0,3.7-.6,5.3-1.5Z" fill="#fbeb4e" />
      <path d="M293.4,206.3c0,23.9-7,35.4-33.5,48.5,.5-1.8,.8-3.7,.8-5.7,0-2.9-.6-5.7-1.7-8.2,1.7,.9,3.4,1.4,5.3,1.4,9.4,0,22.6-9.7,22.6-31.1,0-23.9-13.7-23.9-46.9-23.9s-46.9,0-46.9,23.9c0,5.4,.8,10.1,2.2,14-2.2-.4-4.4-.2-6.3,.5-1.8-5.5-2.5-11.8-2.5-19.4,0-10.7,1.4-16.6,4.6-19.8,4.5-4.5,14.5-5.1,30.5-5.1h28.8c20.7-.1,33.2-.2,38.4,5,3.2,3.3,4.6,9.2,4.6,19.9Z" fill="#fbeb4e" />
    </g>
  </g>
</svg>