<?xml version="1.0" encoding="UTF-8"?>
<svg id="e0e7dcbe914e3244f4fae4e3f68d54728b1c75de" xmlns="http://www.w3.org/2000/svg" viewBox="0 0 480 480">
  <g>
    <path d="M168.5,195.7h-16.2c-2.8,0-5.3,1.3-5.3,7.5s3.4,30.4,14.3,30.4h15l-7.8-37.9h0Z" fill="#050200" />
    <path d="M168.1,203.2h-13.3s1.7,15.6,5.9,22.6h12.1l-4.7-22.6Z" fill="#2e2e2e" />
    <path d="M311.5,195.7h16.2c2.8,0,5.3,1.3,5.3,7.5s-3.4,30.4-14.3,30.4h-15l7.8-37.9h0Z" fill="#050200" />
    <path d="M311.9,203.2h13.3s-1.7,15.6-5.9,22.6h-12.1l4.7-22.6Z" fill="#2e2e2e" />
    <path d="M285.5,173.4c-32.8,0-32.7,11.5-45.3,11.5s-12.5-11.5-45.3-11.5c-5.5,0-28.6-2.7-28.6,24.5,0,42,25.4,59.7,44,59.7,15.1,0,19.9-7.2,29.9-7.2s14.8,7.2,29.9,7.2c18.6,0,44-17.7,44-59.7,0-27.2-23.2-24.5-28.6-24.5h0Zm-74.2,62.7c-7.2-.3-23.2-9.7-23.2-38.2h0c0-1.4,1.1-2.5,2.5-2.5h4.1c14.4,0,18.8,2.5,23,4.9,4.7,2.6,11.7,6.6,22.3,6.6s17.7-4,22.3-6.6c4.2-2.4,8.6-4.9,23-4.9h4.1c1.4,0,2.5,1.1,2.5,2.5h0c0,28.5-15.5,38.2-22.7,38.2-3.9,0-5.3,0-9.2-1.6-4.8-2-11.1-5.7-20.1-5.7s-14.7,3.6-19.5,5.6c-3.6,1.6-5.1,1.8-9.1,1.7h0Z" fill="#050200" />
    <path d="M289.5,181.3h-4c-18.1,0-24.7,3.7-29.9,6.7-4,2.2-8.5,4.8-15.4,4.8s-11.5-2.5-15.4-4.8c-5.2-3-11.8-6.7-29.9-6.7h-4c-12,0-16.6,4.7-16.6,16.6,0,37.6,22.1,51.7,36,51.7,6.7,0,10.8-1.7,15.1-3.5,4.1-1.7,8.7-3.7,14.8-3.7s10.8,2,14.8,3.7c4.3,1.8,8.4,3.5,15.1,3.5,13.9,0,36-14,36-51.7,0-12-4.7-16.6-16.6-16.6Zm2.88,28.47c-.4,2.36-.94,4.61-1.61,6.9-.67,2.27-1.41,4.51-2.47,6.63-1.07,2.16-2.56,3.79-4.46,5.26-1.13,.88-2.2,1.76-3.15,2.84-.83,.94-1.6,1.93-2.59,2.71-1.69,1.33-3.78,2.06-5.84,2.61-2,.54-4.18,1.11-6.27,.99-2.32-.14-4.6-.82-6.8-1.57-2.17-.74-4.27-1.54-6.35-2.51-1.32-.62-2.7-1.33-4.17-1.48-1.23-.12-2.36-.1-3.52-.62-.74-.33-1.31-.86-2.14-.92-.63-.05-1.25,.04-1.88,.1-1.33,.14-2.65,.15-3.99,.17-2.66,.03-5.43,.11-7.93,1.14-1.37,.57-2.68,1.23-4.09,1.71-1.27,.42-2.56,.76-3.82,1.2-2.4,.82-4.47,1.71-7.05,1.75-2.54,.04-5.17-.06-7.58-.89-1.2-.41-2.48-.9-3.51-1.65-.58-.42-1.1-.91-1.65-1.35-.35,.11-.75,.1-1.16-.11-4.19-2.14-6.7-6.85-8.41-11.04-2.24-5.49-3.96-11.3-4.41-17.23-.13-1.68-.27-3.41-.25-5.09,.02-1.66,.23-3.46,1.71-4.46,1.56-1.06,3.67-1.17,5.5-1.17,2.14,0,4.29,.26,6.42,.44,5.18,.44,10.44,1.02,15.26,3.1,5.01,2.16,9.83,4.64,15.02,6.39,2.58,.87,5.23,1.74,7.97,1.8,2.7,.06,5.37-.41,8.04-.7,2.28-.24,4.66-.36,6.81-1.19,2.42-.93,4.59-2.58,6.93-3.69,4.75-2.26,9.72-3.61,14.79-4.91,2.55-.66,5.04-1.16,7.67-1.39,2.25-.19,4.54-.67,6.74,.08,.52,.18,.81,.53,.94,.94,3.96,1.75,1.74,12.45,1.27,15.22Z" fill="#fff" />
    <path d="M289.5,188.3h-4c-16.3,0-21.7,3.1-26.5,5.8-4.2,2.4-10.1,5.7-18.9,5.7s-14.6-3.3-18.9-5.7c-4.8-2.7-10.2-5.8-26.5-5.8h-4c-6,0-9.6,4.5-9.6,9.6,0,32.5,17.8,44.7,29,44.7,5.3,0,8.3-1.2,12.4-3,4.5-1.9,10-4.2,17.5-4.2s13.1,2.3,17.6,4.2c4.1,1.7,7.1,3,12.4,3,11.2,0,29-12.1,29-44.7,.1-5.3-2.6-9.6-9.5-9.6Zm2.6,9.6c0,28.5-15.5,38.2-22.7,38.2-3.9,0-5.3,0-9.2-1.6-4.8-2-11.1-5.7-20.1-5.7s-14.7,3.6-19.5,5.6c-3.8,1.6-5.4,1.8-9.3,1.7-7.2-.3-23.2-9.7-23.2-38.2h0c0-1.4,1.1-2.5,2.5-2.5h4.1c14.4,0,18.8,2.5,23,4.9,4.7,2.6,11.7,6.6,22.3,6.6s17.7-4,22.3-6.6c4.2-2.4,8.6-4.9,23-4.9h4.1c1.6-.1,2.7,1,2.7,2.5h0Z" fill="#050200" />
    <path d="M269.4,236.1c-3.9,0-5.3,0-9.2-1.6-4.8-2-11.1-5.7-20.1-5.7s-14.7,3.6-19.5,5.6c-3.8,1.6-5.4,1.8-9.3,1.7-7.2-.3-23.2-9.7-23.2-38.2h0c0-1.4,1.1-2.5,2.5-2.5h4.1c14.4,0,18.8,2.5,23,4.9,4.7,2.6,11.7,6.6,22.3,6.6s17.7-4,22.3-6.6c4.2-2.4,8.6-4.9,23-4.9h4.1c1.4,0,2.5,1.1,2.5,2.5h0c.2,28.4-15.3,38.2-22.5,38.2Z" fill="#050200" isolation="isolate" opacity=".51" />
    <ellipse cx="275.64" cy="210.48" rx="9.4" ry="6.9" transform="translate(-59.41 300.03) rotate(-52.33)" fill="#fff" opacity=".82" />
    <circle cx="267.2" cy="224.2" r="3" fill="#fff" opacity=".82" />
  </g>
</svg>