<svg xmlns="http://www.w3.org/2000/svg" viewBox="0 0 480 480">
  <g>
    <path d="M300.4,202.8c-1.9-18.5-3.5-22-17.5-23.1s-22.3-1.9-42.9-1.9-29,.7-42.9,1.9-15.5,4.6-17.5,23.1,10.9,50.8,30.2,50.8h60.4c19.2-.1,32.1-32.3,30.2-50.8Zm-100-3.5c12.2-1,39.6-.7,39.6-.7h8.6c9.1,0,23.2,.1,31,.7,1.8,5.1,.4,24.1-9.7,34.2-1,1-2.3,1.4-3.7,1.3-7.1-.5-20-5.9-26.2-5.9s-19.1,5.4-26.2,5.9c-1.4,.1-2.7-.4-3.7-1.3-10.1-10.1-11.6-29.2-9.7-34.2Z" fill="#040200" />
    <path d="M293.4,203.5c-.7-6.3-1.4-12.6-3-14.7-.6-.8-2-1.7-8.1-2.2-13.6-1.2-21.9-1.9-42.3-1.9s-28.7,.7-42.3,1.9c-6.2,.5-7.6,1.4-8.1,2.2-1.5,2.1-2.3,8.5-3,14.7-1.1,10.2,3.6,27.5,12.2,37,3.6,4,7.3,6,11,6h60.4c3.7,0,7.4-2,11-6,8.6-9.6,13.3-26.9,12.2-37Zm-27.2,31.3c-7.1-.5-20-5.9-26.2-5.9s-19.1,5.4-26.2,5.9c-1.4,.1-2.7-.4-3.7-1.3-10.1-10.1-11.6-29.1-9.8-34.2,12.2-1,39.6-.7,39.6-.7h8.6c9.1,0,23.2,.1,31,.7,1.8,5.1,.4,24.1-9.7,34.2-.9,.9-2.2,1.4-3.6,1.3Z" fill="#FB8C44" />
    <path d="M287.4,204.4c-.1-1.5-.5-4.6-.9-7.4-.4-2.4-2.3-4.2-4.7-4.4h-.1c-13.5-1.2-21.6-1.9-41.8-1.9s-28.3,.7-41.8,1.9h-.1c-2.4,.2-4.3,2.1-4.7,4.5-.4,2.8-.7,5.9-.9,7.4-.9,8.9,3.3,24.7,10.7,33.2,1.7,1.9,4.2,4.2,6.5,4.2h60.4c2.4,0,4.9-2.3,6.5-4.2,7.7-8.5,11.8-24.4,10.9-33.3Zm-17.5,29.1c-1,1-2.3,1.4-3.7,1.3-7.1-.5-20-5.9-26.2-5.9s-19.1,5.4-26.2,5.9c-1.4,.1-2.7-.4-3.7-1.3-10.1-10.1-11.6-29.1-9.8-34.2,12.2-1,39.6-.7,39.6-.7h8.6c9.1,0,23.2,.1,31,.7,2,5,.5,24.1-9.6,34.2Z" fill="#040200" />
    <path d="M269.9,233.5c-.8,.8-1.8,1.2-2.9,1.3h-.8c-2.6-.2-5.9-1-9.3-2-6.2-1.7-12.9-3.9-16.9-3.9-6.2,0-19.1,5.4-26.2,5.9-1.4,.1-2.7-.4-3.7-1.3-10.1-10.1-11.6-29.1-9.8-34.2,12.2-1,39.6-.7,39.6-.7h12.1c8.9,0,20.7,.2,27.6,.7,1.9,5,.4,24.1-9.7,34.2Z" fill="#545453" isolation="isolate" opacity=".5" />
    <path d="M218.7,255.2c-1.3,0-4.7-.1-9.8-1.7-8.8-2.9-17.6-5.7-18.5-25v-.4c-.2-4.9-8.1-63.3-13.1-99l-.1-1.3c-.2-2,.6-4,2.2-5.2l6.1-4.9c4-3.2,9.9-.7,10.5,4.3l.3,2.4c.5,3.5,11.7,86.9,13.2,100.3v.4c.6,4.7,1.1,8.8,2,10.1,.4,.5,1.9,1.6,7.8,2.8l7.1,1.4-7.7,15.8Z" fill="#040200" />
    <path d="M185.3,128.1l3.2-2.5s11.6,86.7,13.2,100.2,1.9,17.3,16.2,20.2l-.4,3.9s-1.1,.3-6.5-1.4-11.8-4.1-12.5-20.2c0-5.7-13.2-100.2-13.2-100.2Z" fill="#FB8C44" />
    <path d="M227.1,259.9c-2.2,0-6.3,0-9.1-3.6-1.7-2.2-2.2-5-1.4-7.7,.2-.8,.4-1.6,.6-2.3,.9-3.9,2.1-8.8,7.7-11.1,3.4-1.5,7.1-1.5,15.2-1.5s11.8,0,15.2,1.5c5.6,2.4,6.7,7.2,7.7,11.1,.2,.7,.4,1.5,.6,2.4,.7,2.6,.2,5.4-1.5,7.6-2.8,3.6-6.9,3.6-9.1,3.6h-25.9Z" fill="#040200" />
    <path d="M240,251.9h-12.2c-2.2,0-3.8,.1-3.5-1.2,2.3-9,.6-9,15.7-9s13.3,0,15.7,9c.3,1.3-1.2,1.2-3.5,1.2h-12.2Z" fill="#FB8C44" />
    <path d="M185.6,183.7s-26.5-7.4-28.5-7.4-5.7,.2-5.7,15.3c0,1.4-1.6,7.9,6.3,10.6,8,2.7,23.6,7.8,23.6,7.8l4.3-26.3Z" fill="#040200" />
    <polygon points="159.6 184.7 158.8 194.5 180.5 201.5 182.6 190.9 159.6 184.7" fill="#2e2e2e" />
    <polygon points="167.4 185.4 164.8 199.1 172.4 201 175.5 185.8 167.4 185.4" fill="#040200" />
    <path d="M294.1,183.7s26.5-7.4,28.5-7.4,5.7,.2,5.7,15.3c0,1.4,1.6,7.9-6.3,10.6-8,2.7-23.6,7.8-23.6,7.8l-4.3-26.3Z" fill="#040200" />
    <polygon points="320.1 184.7 320.9 194.5 299.2 201.5 297.1 190.9 320.1 184.7" fill="#2e2e2e" />
    <polygon points="312.3 185.4 314.9 199.1 307.3 201 304.2 185.8 312.3 185.4" fill="#040200" />
    <path opacity=".82" d="M267,234.8h-.8c-2.6-.2-5.9-1-9.3-2l-13.8-34.3h9l14.9,36.3Z" fill="#fff" />
  </g>
</svg>