<svg id="_d9d5edee81f358589a46863cbc64ef963000fd2" data-name="0d9d5edee81f358589a46863cbc64ef963000fd2" xmlns="http://www.w3.org/2000/svg" viewBox="0 0 480 480">
	<g>
		<path d="M328.3,190.6c-.1,2.4-2.2,4.1-4.5,3.7-11.3-2.1-43.9-7.3-83.8-7.3s-72.5,5.2-83.8,7.3c-2.3,.4-4.5-1.3-4.5-3.7-.2-7.8,.7-23.5,10.8-29.9,0,0-1.5-4.9,0-12,5.4-19.2,34.1-33.8,44.2-56.9,9.2-19.5,33.4-19.9,33.4-19.9,0,0,24.1,.4,33.4,19.9,10.1,23.1,38.8,37.7,44.2,56.9,1.5,7.1,0,12,0,12,9.9,6.4,10.8,22.1,10.6,29.9Z" fill="#EAA1D0" />
		<path d="M239.61,68.96c-1.1,0-26.21,.14-36.31,21.34v.1c-4.7,10.8-13.9,19.8-22.8,28.5-9.6,9.4-18.6,18.2-21.6,28.8l.1,.3c-1,4.8-.8,8.8-.4,11.2-9.5,7.8-10.6,22.9-10.4,31.5,.1,2.2,1.1,4.2,2.7,5.5,1.3,1.1,2.9,1.6,4.6,1.6,.4,0,.9,0,1.3-.1,11.9-2.2,43.8-6.6,83.1-6.6s71.2,4.4,83.1,6.6c2.1,.4,4.3-.2,5.9-1.5,1.7-1.4,2.7-3.4,2.7-5.5h0c.4-8.7-.7-23.8-10.2-31.6,.3-2.4,.6-6.4-.4-11.2l-.1-.2c-3-10.6-12-19.4-21.6-28.8-8.9-8.7-18.1-17.7-22.8-28.5h0c-10-21.2-35.79-21.44-36.89-21.44m-73.71,80.54c2.5-8.8,10.9-16.9,19.7-25.6,9.3-9.2,19-18.6,24.3-30.7,8-16.7,21.97-17.48,30.2-17.9,8.37,0,22.2,1.2,30.2,17.9,5.3,12,14.9,21.5,24.3,30.7,8.8,8.7,17.2,16.8,19.7,25.6,.5,2.3,.6,4.4,.5,6-.2-.1-.5-.2-.7-.2-18.9-5.4-61.7-6.23-74-6.23s-55.1,.93-74,6.23c-.2,.1-.5,.2-.7,.2-.1-1.6,0-3.7,.5-6Zm158.9,41c0,.1,0,.2-.1,.3s-.2,.1-.3,.1c-12.1-2.2-44.5-7.4-84.4-7.4s-72.3,5.2-84.4,7.4c0,0-.1,0-.3-.1-.1-.1-.1-.2-.1-.3-.2-6.2,.4-21.3,9.2-26.9,1.1-.7,2.3-1.2,3.6-1.6,18.5-5.3,61.4-6.5,72-6.5s53.5,1.3,72,6.5c1.3,.4,2.5,.9,3.6,1.6,8.8,5.6,9.4,20.6,9.2,26.9Z" fill="#050200" />
	</g>
</svg>