<svg xmlns="http://www.w3.org/2000/svg" viewBox="0 0 480 480">
    <g>
        <path d="M239.2,107.9c-44.6,0-80.8,11.2-80.8,25s36.2,25,80.8,25,80.8-11.2,80.8-25-36.2-25-80.8-25Zm.8,20.9s16.4-.2,28.2,4c0,0-16.4,2-28.2,2s-28.2-2-28.2-2c11.8-4.2,28.2-4,28.2-4Z" fill="#5A6FF6" />
        <path d="M291,122.9c-2.6,0-3.5,2.1-3.5,3.4,0,1.1,.4,1.7,.4,1.7,0,0-3.2,.6-6,1.7-1.8-.9-18.8-9-42-9s-40.2,8.1-42,9c-2.8-1.1-6-1.7-6-1.7,0,0,.4-.6,.4-1.7,0-1.2-.8-3.4-3.5-3.4-2.3,0-5.4,1.7-5.4,4.9,0,7.1,15.9,13.4,56.4,13.4s56.4-6.3,56.4-13.4c.2-3.2-2.9-4.9-5.2-4.9Zm-51,11.9c-11.9,0-28.2-2-28.2-2,11.8-4.2,28.2-4,28.2-4,0,0,16.4-.2,28.2,4,0,0-16.3,2-28.2,2Z" fill="#050200" />
        <path d="M200.9,125.3c-1.2,0-2.3-.6-3-1.6-1-1.6-.5-3.8,1.1-4.8,.2-.1,4.8-3,11.8-3.4,2-.1,3.6,1.4,3.7,3.3,.1,1.9-1.4,3.6-3.3,3.7-5,.3-8.4,2.3-8.4,2.3-.7,.4-1.3,.5-1.9,.5Z" fill="#fff" />
        <path d="M274.4,149.2c-1.7,0-3.2-1.3-3.5-3.1-.2-1.9,1.1-3.7,3-3.9,.1,0,12.4-1.6,19.6-4.9,1.8-.8,3.8,0,4.6,1.7,.8,1.8,0,3.8-1.7,4.6-8.2,3.7-21,5.4-21.6,5.5-.1,.1-.3,.1-.4,.1Z" fill="#fff" />
        <ellipse cx="304.82" cy="134.12" rx="6.7" ry="5.1" transform="translate(-27.99 145.91) rotate(-25.78)" fill="#fff" />
        <path d="M239.2,104.3c-40.9,0-84.3,10-84.3,28.5,0,7,6.2,12.7,16.1,17.2l8,3.1c16.2,5.4,38.6,8.2,60.2,8.2s44.9-2.9,61.2-8.5l8-3.2c9.3-4.4,15.1-10,15.1-16.8,0-18.5-43.4-28.5-84.3-28.5Zm0,50c-47.9,0-77.3-12.5-77.3-21.5s29.4-21.5,77.3-21.5,77.3,12.5,77.3,21.5-29.4,21.5-77.3,21.5Z" fill="#050200" />
    </g>
</svg>