<svg xmlns="http://www.w3.org/2000/svg" viewBox="0 0 480 480">
    <g>
        <path d="M203.1,163.5c-16.9,0-20.6-21.4-20.6-27.9,0-19.8,8-34.3,16.1-34.3,11.5,0,12.6,20.2,16.2,26.9,3.5,5.1,10.7,7,10.7,16.6,0,10.4-9.2,18.7-22.4,18.7Z" fill="#050200" />
        <path d="M203.3,155.5c-8.1,0-12.8-11.4-12.8-19.6,0-16.4,5.4-23.6,7.4-25.7,.5-.5,1.2-.5,1.7,0,.7,.8,1.8,2.6,2.9,6.4,5.9,23.1,14.8,21.1,14.8,27.6,.1,6.6-5.9,11.3-14,11.3Z" fill="#FB8C44" />
        <path d="M208.9,147.1c-7.2,0-11.5-18.9-11.5-22.5,0-6.8,2.5-7.2,3.5-3.4,4.3,16.6,12.1,17.8,12.1,22s-4.1,3.9-4.1,3.9Z" fill="#fff" />
        <path d="M276.6,163.5c16.9,0,20.6-21.4,20.6-27.9,0-19.8-8-34.3-16.1-34.3-11.5,0-12.6,20.2-16.2,26.9-3.5,5.1-10.7,7-10.7,16.6,0,10.4,9.2,18.7,22.4,18.7Z" fill="#050200" />
        <path d="M276.3,155.5c8.1,0,12.8-11.4,12.8-19.6,0-16.4-5.4-23.6-7.4-25.7-.5-.5-1.2-.5-1.7,0-.7,.8-1.8,2.6-2.9,6.4-5.9,23.1-14.8,21.1-14.8,27.6s6,11.3,14,11.3Z" fill="#FB8C44" />
        <path d="M270.8,147.1c7.2,0,11.5-18.9,11.5-22.5,0-6.8-2.5-7.2-3.5-3.4-4.3,16.6-12.1,17.8-12.1,22,0,4.2,4.1,3.9,4.1,3.9Z" fill="#fff" />
    </g>
</svg>