<svg xmlns="http://www.w3.org/2000/svg" viewBox="0 0 480 480">
	<g>
		<path fill="#5A6FF6" d="M366.6,174.4c0,7.7-18.4,12.9-41.7,16.3c-10.5,1.5-21.9,2.7-33.2,3.5c-20.4,1.6-40,2.2-51.7,2.2h-1c-1.5,0-3.1,0-4.9,0c-19.6-0.3-53.9-1.8-81.1-5.8c-22.8-3.4-40.7-8.5-40.7-16.1c0-7.3,17.5-17.8,36.8-27.9c11.5-6,23.7-11.9,33.1-16.9c1.2-0.6,2.4-1.2,3.5-1.9c23.7-13,43.4-22.8,53.8-23.1c5.9,0.2,14.7,3.4,25.5,8.5c8.4,3.9,18,9,28.3,14.6c8.8,4.8,21.1,10.8,33,16.9c5.5,2.8,11,5.8,16,8.6c0,0,0,0,0,0c4.4,2.5,8.4,4.9,11.9,7.3C361.7,165.8,366.6,170.5,366.6,174.4z" />
		<ellipse transform="matrix(0.9272 -0.3747 0.3747 0.9272 -34.6182 91.5864)" fill="#fff" cx="218.2" cy="134.8" rx="18.1" ry="12.5" />
		<ellipse transform="matrix(0.3747 -0.9272 0.9272 0.3747 63.4763 420.1421)" fill="#fff" cx="343.2" cy="163" rx="9.2" ry="12.9" />
		<ellipse transform="matrix(0.4283 -0.9037 0.9037 0.4283 1.9369 330.8336)" fill="#fff" cx="262.4" cy="163.9" rx="11.4" ry="13.8" />
		<path fill="#fff" d="M324.9,190.7c-10.5,1.5-21.9,2.7-33.2,3.5c-0.1-0.6-0.1-1.2-0.1-1.8c0-8.3,7.5-15,16.7-15C316.8,177.4,323.9,183.2,324.9,190.7z" />
		<path fill="#fff" d="M234.1,196.4c-19.6-0.3-53.9-1.8-81.1-5.8c7-14.2,25.8-22.4,46-19C215.7,174.3,228.8,184.2,234.1,196.4z" />
		<path fill="#fff" d="M326.3,144.7c-7.8,4.3-17.6,6.1-27.7,4.4c-19.8-3.3-33.9-18.9-33.7-36c8.4,3.9,18,9,28.3,14.6C302.2,132.6,314.4,138.5,326.3,144.7z" />
		<ellipse transform="matrix(0.9793 -0.2025 0.2025 0.9793 -31.6409 31.9183)" fill="#fff" cx="140.2" cy="170.6" rx="10.6" ry="6.5" />
		<path fill="#fff" d="M170.6,150.4c-8.9,3.6-18.1,1.8-21.5-3.8c11.5-6,23.7-11.9,33.1-16.9c0.3,0.5,0.6,1,0.8,1.6C185.7,137.9,180.2,146.5,170.6,150.4z" />
		<path fill="#050200" d="M345.9,151.3c4,2.3,7.4,4.5,10.4,6.5c9.6,6.6,13.8,11.7,13.8,16.6c0,9.2-13.8,15.3-44.7,19.8c-9.6,1.4-20.8,2.6-33.4,3.6c-20.4,1.6-40.2,2.2-51.9,2.2l-1.7,0c-1.3,0-2.8,0-4.3,0c-22.3-0.3-55.4-2-81.5-5.9c-30.2-4.5-43.7-10.5-43.7-19.6c0-7.8,10.8-16.4,38.6-31c5.7-3,11.4-5.9,17-8.7c5.8-2.9,11.3-5.7,16-8.2c1.2-0.6,2.3-1.2,3.4-1.8c25.8-14.1,44.1-23,55-23.5v0c0.2,0,0.3,0,0.5,0c0.2,0,0.3,0,0.5,0v0c5.9,0.3,14.4,3.1,26.5,8.8c9.4,4.4,20.2,10.2,28.5,14.7c5.4,3,12.1,6.3,19.3,9.9c4.5,2.2,9.1,4.6,13.7,6.9c6.1,3.2,11.1,5.8,15.4,8.2L345.9,151.3z M239.5,108.2c-10,0.4-31,11.1-52.2,22.7c-1.1,0.6-2.3,1.2-3.5,1.9c-4.8,2.6-10.3,5.3-16.1,8.2c-5.6,2.8-11.3,5.7-16.9,8.6c-30.3,15.9-34.9,22.3-34.9,24.8c0,0.3,0.4,7.2,37.7,12.7c25.8,3.8,59.5,5.5,80.6,5.8c1.5,0,2.9,0,4.2,0l1.6,0c11.6,0,31.2-0.6,51.4-2.2c12.4-1,23.5-2.1,33-3.5c38.3-5.5,38.7-12.5,38.7-12.8c0-0.6-0.5-3.8-10.8-10.8c-3.2-2.2-7.1-4.6-11.6-7.2l-1.8-1c-4-2.2-8.6-4.7-14.2-7.6c-4.6-2.3-9.1-4.7-13.6-6.9c-7.2-3.6-14-7-19.5-10c-8.2-4.5-18.9-10.2-28.1-14.6C252.2,111,244.4,108.3,239.5,108.2z" />
	</g>
</svg>