<svg xmlns="http://www.w3.org/2000/svg" viewBox="0 0 480 480">
	<g>
		<path fill="#FBEB4E" d="M162.1,187.4c-7.9-2.9-17-1.1-23.1,0.9c9.2-20.8,35.2-48,67.9-59.9C186.8,142.1,167.1,164.9,162.1,187.4z" />
		<path fill="#EB473D" d="M216.5,149.7c-5,12.7-8.6,26-10,36.9c-15.2-6.1-29.3-2.7-37.1,0.3c3.4-12.9,12.4-27,25.7-39.8c11.4-11,24.3-19.3,34.9-22.9C223.8,132.4,218.8,143.8,216.5,149.7z" />
		<path fill="#5A6FF6" d="M266,185.4c-21.9-6.6-38.3-3.9-52.4,1.1c3-22.9,15.9-54,26.3-62.9C250.1,132.4,262.7,162.7,266,185.4z" />
		<path fill="#FBEB4E" d="M310.1,186.2c-13.8-4.8-25.6-2.8-37-0.1c-1.4-10.8-5-23.9-9.9-36.5c-2.3-5.8-7.3-17.3-13.5-25.5c10.6,3.5,23.5,11.9,34.9,22.9C297.7,159.7,306.6,173.5,310.1,186.2z" />
		<path fill="#5A6FF6" d="M340.9,188.1c-9.1-3.1-17.4-2.2-23.3-0.6c-5-22.7-24.8-45.5-45-59.2C305.5,140,331.6,167.2,340.9,188.1z" />
		<path fill="#050200" d="M351.2,197.5c-0.2-1.1-0.4-2.3-0.8-3.5c0,0,0-0.1,0-0.1c-4-15.2-17.4-33.9-35.2-48.8c-21.7-18.2-46.9-28.7-71.3-29.7c-0.3-1.9-1.9-3.4-3.9-3.4s-3.6,1.5-3.9,3.4c-24.4,1-49.6,11.5-71.3,29.7c-19.2,16.1-33.4,36.7-36,52.4c-0.3,1.9,1,3.7,2.9,4c1.9,0.3,3.7-1,4-2.9c0.1-0.6,0.2-1.1,0.3-1.7c3.5-1.6,16.2-6.7,25-2.4c-0.1,1.2-0.1,2.3-0.1,3.5c0,1.9,1.6,3.5,3.5,3.5s3.5-1.6,3.5-3.5c0-1,0-1.9,0.1-2.9c4.6-2.3,20.9-9.1,37.9-1.2c0,0.6,0,1.2,0,1.8c0,1.9,1.6,3.5,3.5,3.5s3.5-1.6,3.5-3.5c0-0.5,0-1,0-1.5c16.3-6.2,32-8.6,53.8-1.2c0,0.9,0.1,1.8,0.1,2.7c0,1.9,1.6,3.5,3.5,3.5s3.5-1.6,3.5-3.5c0-0.8,0-1.7-0.1-2.5c12.1-2.9,23.8-5.1,37.9,1.1c0.1,1.3,0.2,2.5,0.2,3.7c0,1.9,1.6,3.5,3.5,3.5s3.5-1.6,3.5-3.5c0-1.2-0.1-2.4-0.1-3.7c6-1.7,15.4-2.8,25.3,2.6c0.1,0.5,0.2,1.1,0.3,1.6c0.3,1.7,1.8,2.9,3.4,2.9c0.2,0,0.4,0,0.6,0C350.2,201.2,351.5,199.4,351.2,197.5z M139,188.3c9.2-20.8,35.2-48,67.9-59.9c-20.1,13.8-39.8,36.5-44.7,59.1C154.2,184.5,145.1,186.3,139,188.3z M169.5,186.9c3.4-12.9,12.4-26.9,25.7-39.8c11.4-11,24.3-19.3,34.9-22.9c-6.3,8.3-11.2,19.7-13.5,25.5c-5,12.7-8.6,26-10,36.9C191.4,180.5,177.3,183.9,169.5,186.9z M213.6,186.6c3-22.8,15.9-54,26.3-62.9c10.2,8.7,22.8,39,26.1,61.7C244.1,178.8,227.8,181.6,213.6,186.6z M273.1,186.1c-1.4-10.8-5-23.9-9.9-36.4c-2.3-5.8-7.3-17.3-13.5-25.5c10.6,3.5,23.5,11.9,34.9,22.9c13.1,12.7,22,26.4,25.5,39.2C296.3,181.4,284.5,183.4,273.1,186.1z M317.6,187.5c-5-22.7-24.8-45.5-45-59.2c32.8,11.8,58.9,39,68.3,59.9C331.8,185,323.5,185.9,317.6,187.5z" />
	</g>
</svg>