<svg xmlns="http://www.w3.org/2000/svg" viewBox="0 0 480 480">
	<g>
		<path fill="#2e2e2e" d="M240,68.6c0,0,14.5,56.6,17.3,69c2.8,12.4-10.1,18.2-17.3,18.2s-20.1-5.8-17.3-18.2C225.5,125.2,240,68.6,240,68.6" />
		<path fill="#fff" d="M242.2,77.1l-11.5,76.3c0,0-11.1-3.5-4.6-29.4s6.5-26,6.5-26S240.5,76,242.2,77.1z" />
		<path fill="#050200" d="M240,159.4c-5.3,0-13.1-2.6-17.6-8.2c-3.2-4-4.3-9-3.1-14.3l0,0c2.8-12.4,17.1-68.1,17.2-68.7c0.4-1.6,1.9-2.7,3.5-2.7s3.1,1.1,3.5,2.7c0.6,2.3,14.4,56.4,17.2,68.7c1.2,5.3,0.1,10.3-3.1,14.3C253.1,156.8,245.3,159.4,240,159.4z M226.1,138.4c-0.7,3.3-0.2,6,1.7,8.4c2.9,3.6,8.4,5.6,12.1,5.6c3.7,0,9.2-2,12.1-5.6c1.9-2.4,2.5-5.1,1.7-8.4c-1.9-8.5-9.5-38.3-13.9-55.7C235.6,100.1,228.1,129.8,226.1,138.4L226.1,138.4z M236.7,69.9C236.7,69.9,236.7,69.9,236.7,69.9C236.7,69.9,236.7,69.9,236.7,69.9z M243.3,69.9C243.3,69.9,243.3,69.9,243.3,69.9C243.3,69.9,243.3,69.9,243.3,69.9z" />
	</g>
</svg>